<svg width="69" height="73" viewBox="0 0 69 73" fill="none" xmlns="http://www.w3.org/2000/svg">
<path d="M24.9693 34.9587C25.8382 34.7814 26.6893 34.5331 27.576 34.4179C29.2871 34.1962 31.5391 34.3026 33.2857 34.4001C33.7113 34.4267 35.1742 34.8612 35.3958 34.542C36.5041 27.4137 38.0468 19.7446 41.9655 13.5827C44.6963 9.29151 49.1204 5.65643 54.5287 6.16179C59.4051 6.62283 65.5758 15.0988 67.1451 19.3988C68.3066 22.5728 69.0159 26.7488 65.1769 28.2648C62.5348 29.311 59.1125 27.591 56.7896 26.2523C56.2842 25.9597 53.6776 23.9559 53.3495 24.1953C50.8493 29.249 48.3048 34.3115 44.6786 38.6647L44.7318 38.8686C49.9007 42.4948 52.3654 48.8163 51.931 55.0758C53.0215 55.0314 54.1298 55.129 55.2203 55.0758C56.0803 55.0403 58.4121 54.3487 58.8554 55.3506C59.1479 56.0067 58.3323 56.2993 57.8358 56.4234C55.7966 56.9465 53.4737 56.6362 51.3813 56.8844C51.4788 58.1789 50.5301 59.7393 50.3972 60.8742C50.3617 61.1845 50.4326 61.0249 50.5922 61.0869C52.5782 61.8849 55.043 62.0711 57.0999 62.6828C57.7294 63.1971 57.4545 63.9063 56.7452 64.1369C55.2912 64.6068 51.337 62.6651 49.6613 62.603C47.4625 66.2558 44.4214 69.0752 40.5292 70.8396C30.3156 75.4677 17.8854 72.5862 11.8742 62.9045L5.57043 64.8195C4.73702 64.9082 4.34692 63.5694 5.06507 63.1882L10.9876 61.4948L9.7818 57.6115C8.95726 57.5494 8.09725 57.638 7.27271 57.5849C6.03146 57.5051 4.25826 57.4696 3.0968 57.2923C2.10381 57.1416 1.51865 56.2993 2.68897 55.785C3.85928 55.2708 5.19806 55.8294 6.4393 55.9003C7.52983 55.9712 8.63808 55.856 9.71974 55.9003C8.33664 49.9335 11.3068 44.7291 15.1458 40.4557C11.4043 36.1202 7.9554 31.4212 5.22465 26.3675C2.13927 20.6578 -1.17663 11.2154 0.410392 4.74323C1.45659 0.487525 5.01187 -1.13496 8.99272 0.824435C13.869 3.22713 17.6814 10.1781 19.8182 15.0101C22.6287 21.3493 24.464 28.0166 24.9693 34.9498V34.9587ZM11.2713 55.9269H14.4187C14.4187 55.9269 14.9862 56.2283 15.0394 56.2815C15.5536 56.7514 15.2256 57.7444 14.8354 57.7444H11.555L12.681 60.8121C13.0445 61.0781 15.3053 59.2162 16.0324 60.3245C16.6884 61.3175 14.1173 62.0179 13.5055 62.2839C21.086 73.8186 40.5558 74.3949 47.8703 62.2661C47.9679 61.6366 45.7425 62.0179 45.5297 60.7146C45.2371 58.9236 48.5707 60.5904 48.8456 60.3865L49.8386 56.7692H46.6911C46.5138 56.7692 46.2744 56.2727 46.3542 56.0244C46.3897 55.9269 47.3206 55.2354 47.3916 55.2354H50.0514L50.2642 54.8896C50.8848 49.7207 48.42 44.0198 44.5367 40.633C43.5969 39.8084 42.2138 39.4981 42.8787 37.8579C44.5012 36.0404 45.9819 33.9657 47.2497 31.8911C48.7658 29.4174 49.9893 26.3675 51.5497 24.0357C51.7625 23.7166 51.9221 23.2821 52.3565 23.2378V22.9629C52.2324 22.9452 52.0994 22.9098 52.0108 22.8211C50.211 21.1809 48.1895 19.2747 47.4802 16.9074C47.7817 16.3577 48.3048 16.3666 48.7924 16.6681C49.4574 17.0848 51.0976 19.5584 51.931 20.3741C54.1386 22.5285 60.2207 27.1123 63.3238 26.8729C64.7069 26.7665 65.8684 26.0838 66.1255 24.6475C67.0387 19.6205 60.4956 10.8697 56.2221 8.54676C51.9487 6.22386 46.5227 10.382 44.0757 13.9196C40.9105 18.4945 38.8358 25.4366 37.8517 30.8981C37.7187 31.6517 37.2577 36.129 37.0804 36.3418C37.0006 36.4305 36.4952 36.6344 36.3533 36.6433C35.1742 36.6876 33.4187 36.1734 32.1508 36.1024C30.3865 36.0049 28.0636 36.1911 26.3258 36.5635C25.9003 36.6521 24.2246 37.2284 24.0827 37.2018C22.9745 36.989 23.2493 35.1094 23.1429 34.214C22.0435 25.339 17.1672 7.65129 9.02819 2.75723C6.09353 0.99289 3.07907 1.68444 2.2634 5.18653C-0.192499 15.7105 9.00159 31.235 15.9437 38.7534C16.4934 39.3563 17.0608 39.3297 17.1406 40.3581C17.2204 41.3866 16.3072 41.7767 15.6689 42.5214C12.3884 46.3427 10.5 50.7935 11.2713 55.9446V55.9269Z" fill="#F6A1A7"/>
<path d="M27.8047 56.2479C28.9219 55.1574 30.1986 56.177 31.1561 56.8774C32.1846 56.0706 33.3372 55.3967 34.4011 56.6114C35.7133 58.1097 33.6829 60.5656 32.5126 61.5764C31.2004 62.7024 31.0763 62.791 29.6489 61.6384C28.2658 60.5302 26.067 57.9324 27.8047 56.239V56.2479Z" fill="#F6A1A7"/>
<path d="M38.71 52.5233C37.5485 51.4151 38.639 48.8971 40.1374 48.6666C41.9638 48.3829 42.9657 50.1738 42.7086 51.7963C42.4958 53.1528 39.6675 53.4454 38.71 52.5233Z" fill="#F6A1A7"/>
<path d="M22.8229 52.7989C21.7944 53.8273 20.1897 53.1624 19.4449 52.1517C17.8667 50.0149 21.227 47.6743 23.0888 49.6248C23.8602 50.4316 23.5499 52.0719 22.8229 52.7989Z" fill="#F6A1A7"/>
</svg>
