<svg width="89" height="72" viewBox="0 0 89 72" fill="none" xmlns="http://www.w3.org/2000/svg">
<path d="M77.0304 27.1357C77.4904 27.4657 77.9004 27.7457 78.2804 28.0457C78.9604 28.5957 79.1204 29.1457 78.6804 29.9157C78.3204 30.5557 77.8904 31.1657 77.4104 31.7257C76.0304 33.3657 74.7704 35.0457 74.1504 37.1557C73.7304 38.5857 72.7704 39.6857 71.6304 40.6357C69.5404 42.3657 67.4604 44.1157 65.3604 45.8257C65.1704 45.9857 64.8104 45.9457 64.5304 45.9957C64.6004 45.7257 64.5904 45.3457 64.7704 45.1957C66.6804 43.5557 68.5904 41.9057 70.5704 40.3457C71.9104 39.2957 72.8904 38.0657 73.4704 36.4557C73.8804 35.3357 74.4604 34.2757 74.9404 33.2257C74.3804 32.8557 73.7204 32.4757 73.1204 32.0157C72.6004 31.6057 72.4104 31.0557 72.8704 30.4457C73.6204 29.4557 74.3604 28.4457 75.1004 27.4557C74.0104 27.4857 72.9804 27.9357 72.1304 28.6657C70.8304 29.7957 69.6004 31.0057 68.3904 32.2257C68.0304 32.5857 67.6504 33.0557 67.5704 33.5257C67.3804 34.5557 66.6304 34.9457 65.8504 35.3257C63.2404 36.5957 60.6004 37.7957 58.0204 39.1157C52.7904 41.7757 48.8804 45.7757 46.3604 51.0857C44.9604 54.0357 44.6004 57.1457 45.0004 60.3757C45.3504 63.1957 45.7404 66.0357 45.1204 68.8857C45.0304 69.2857 45.0204 69.6857 44.4204 69.6957C43.8104 69.7057 43.7104 69.3757 43.6104 68.9057C43.1104 66.6457 43.1404 64.3457 43.5504 62.1157C45.0304 54.0957 41.7704 47.9657 36.1004 42.7457C33.2504 40.1257 29.7504 38.5857 26.3104 36.9557C24.8504 36.2657 23.4204 35.5157 21.9804 34.7857C21.7904 34.6857 21.5404 34.5557 21.4904 34.3857C20.8804 32.1757 19.1104 30.9157 17.5604 29.4557C16.4204 28.3857 15.1704 27.5657 13.5604 27.4157C14.2704 28.3157 15.0104 29.1657 15.6504 30.0857C16.3804 31.1357 16.2604 31.6357 15.1904 32.3957C14.7304 32.7257 14.2004 32.9557 13.8104 33.1757C14.3404 34.3857 14.9104 35.5557 15.3904 36.7757C15.9204 38.1157 16.7404 39.1857 17.8604 40.0857C19.8504 41.6757 21.7904 43.3257 23.7504 44.9557C23.9204 45.0957 24.1104 45.2357 24.2104 45.4157C24.2904 45.5557 24.3204 45.8357 24.2404 45.9157C24.1104 46.0357 23.8804 46.0557 23.6804 46.0857C23.6204 46.0857 23.5504 46.0057 23.4804 45.9457C21.2304 44.0657 18.9904 42.1757 16.7404 40.2957C15.6604 39.3857 14.9004 38.2557 14.5004 36.9157C13.9404 35.0357 12.8204 33.5057 11.5904 32.0257C11.0704 31.3957 10.5604 30.7457 10.1304 30.0457C9.59037 29.1457 9.76037 28.5557 10.6104 27.9257C10.9604 27.6657 11.3104 27.4157 11.7204 27.1157C9.96037 24.0157 8.58037 20.6857 5.63037 18.5257C4.65037 17.8157 3.40037 17.3957 2.21037 17.0657C1.12037 16.7557 0.630368 17.3857 1.18037 18.3757C1.91037 19.6857 2.78037 20.9257 3.65037 22.1457C5.29037 24.4557 6.77037 26.8457 7.58037 29.5857C8.12037 31.4157 9.49037 32.6957 10.6704 34.0957C12.1104 35.7957 13.2904 37.6357 13.7204 39.8357C14.3504 43.0157 16.3204 44.9757 19.1604 46.2557C22.8404 47.9057 26.1304 50.1657 29.1104 52.8757C30.7704 54.3857 32.3104 56.0257 32.6504 58.3557C32.8104 59.4757 32.7104 60.6457 32.5904 61.7857C32.3104 64.2857 32.2604 66.8457 31.1204 69.1557C30.7004 70.0057 30.0804 70.7557 29.5104 71.5157C29.4004 71.6557 29.0604 71.6257 28.8204 71.6757C28.8204 71.4357 28.7204 71.0957 28.8404 70.9657C30.6704 69.1057 31.0904 66.6957 31.4304 64.2657C31.6004 63.0157 31.6604 61.7557 31.8304 60.5057C32.1204 58.4257 31.4404 56.6757 30.0804 55.1457C27.9604 52.7657 25.4604 50.8557 22.7804 49.1757C21.4204 48.3157 19.9504 47.6157 18.4904 46.9357C15.6104 45.5957 13.6204 43.5357 12.9304 40.3557C12.3604 37.6957 10.8804 35.5457 9.09037 33.5757C7.83037 32.1957 6.86037 30.6857 6.35037 28.8657C5.73037 26.6657 4.44037 24.8157 3.14037 22.9757C2.32037 21.8157 1.48037 20.6557 0.720368 19.4557C0.220368 18.6557 -0.369632 17.7457 0.300368 16.7957C0.980368 15.8257 2.07037 16.0557 3.03037 16.2557C5.45037 16.7557 7.14037 18.3357 8.63037 20.1857C8.99037 20.6257 9.31037 21.0957 9.81037 21.4857C9.21037 19.7657 8.56037 18.0657 8.01037 16.3257C7.53037 14.8257 7.11037 13.2957 6.71037 11.7657C6.52037 11.0157 6.59037 10.2457 7.29037 9.76566C7.97037 9.30566 8.68037 9.57566 9.30037 9.95566C10.6904 10.8057 11.7704 11.9557 12.3704 13.4857C12.5904 14.0357 12.8804 14.2857 13.4904 14.3457C14.9404 14.4857 15.9804 15.3557 16.6804 16.5657C17.3204 17.6757 17.7904 18.8857 18.3604 20.0357C18.5004 20.3057 18.6904 20.6357 18.9504 20.7557C21.3004 21.7857 22.7604 23.6557 23.5404 25.9757C24.4104 28.5357 25.0904 31.1657 25.6604 33.8057C25.9904 35.3357 26.6504 36.2457 28.1504 36.8557C31.2804 38.1257 34.2204 39.7957 36.7404 42.0957C40.3104 45.3457 43.0404 49.1557 44.3004 53.7157C45.0804 52.0457 45.7704 50.2157 46.7504 48.5357C49.5304 43.7557 53.5104 40.2357 58.4804 37.8457C59.5904 37.3157 60.6904 36.7557 61.8204 36.2757C62.3604 36.0457 62.6204 35.6957 62.7504 35.1457C63.3404 32.6757 63.9104 30.1957 64.5804 27.7457C65.1404 25.7257 65.9904 23.8157 67.5604 22.3357C68.1504 21.7857 68.9104 21.4257 69.5504 20.9157C69.9104 20.6357 70.2604 20.2857 70.4804 19.8857C71.1804 18.6257 71.7304 17.2657 72.5004 16.0557C73.1704 15.0057 74.2404 14.4457 75.5304 14.2957C75.8404 14.2557 76.2204 13.8757 76.3504 13.5657C76.9304 12.1757 77.8704 11.1057 79.0604 10.2357C79.2804 10.0757 79.5204 9.85566 79.7704 9.83566C80.3604 9.77566 81.1304 9.59566 81.5104 9.88566C81.9004 10.1757 82.1504 11.0057 82.0704 11.5357C81.8604 12.8757 81.5004 14.2057 81.0804 15.5057C80.4304 17.5057 79.6804 19.4657 79.1304 21.5357C79.5404 20.9957 79.9204 20.4457 80.3604 19.9257C81.7704 18.2357 83.3804 16.8157 85.6004 16.3057C86.0004 16.2157 86.4104 16.1657 86.8204 16.1657C88.4804 16.1457 89.1704 17.1057 88.4704 18.6157C87.9904 19.6457 87.3304 20.6157 86.6604 21.5357C84.7104 24.2257 82.9304 26.9757 81.9004 30.2057C81.5104 31.4257 80.5604 32.5257 79.7004 33.5257C77.8604 35.6457 76.3604 37.9157 75.7304 40.7057C75.0804 43.5857 73.2604 45.5557 70.6104 46.7457C67.0104 48.3657 63.7204 50.4557 60.7704 53.0857C60.1204 53.6657 59.4904 54.2857 58.8904 54.9257C57.3504 56.5757 56.5904 58.4857 56.9604 60.7857C57.2804 62.7857 57.4704 64.8057 57.8104 66.7957C58.0704 68.3057 58.7204 69.6557 59.7704 70.8057C59.9404 70.9957 59.9204 71.3557 59.9904 71.6457C59.6904 71.5657 59.3004 71.5857 59.1204 71.3957C57.8604 70.0957 57.1504 68.4957 56.8504 66.7457C56.5004 64.6957 56.2604 62.6257 56.0104 60.5657C55.6804 57.7957 56.8704 55.6057 58.7804 53.7457C61.6204 50.9657 64.8104 48.6757 68.3604 46.8657C69.8404 46.1157 71.2804 45.2557 72.6504 44.3157C73.6704 43.6157 74.3204 42.5357 74.5804 41.3357C75.3004 37.9257 77.0304 35.0957 79.3804 32.5957C80.3604 31.5557 81.0004 30.3357 81.4204 28.9757C82.3904 25.7957 84.4104 23.2157 86.2704 20.5357C86.7204 19.8857 87.1904 19.2357 87.5404 18.5257C87.7204 18.1757 87.8304 17.5557 87.6404 17.3157C87.4504 17.0657 86.8404 17.0257 86.4404 17.0857C84.5104 17.3557 82.9804 18.3857 81.6904 19.7957C79.7204 21.9457 78.4804 24.5457 77.0504 27.1257L77.0304 27.1357ZM71.8904 27.9657C72.9704 27.0357 73.9804 26.4857 75.2004 26.5557C75.8604 26.5957 76.2104 26.3357 76.4204 25.7357C77.9704 21.2757 79.5404 16.8157 81.0904 12.3457C81.2004 12.0157 81.2004 11.6357 81.1904 11.2857C81.1804 10.5057 80.8504 10.2857 80.1404 10.6457C79.7104 10.8657 79.2604 11.1357 78.9504 11.5057C77.2004 13.5557 75.9004 15.8857 74.7504 18.3057C74.6204 18.5757 74.5804 18.8857 74.5404 19.1757C74.2004 21.4657 73.5304 23.6457 72.6104 25.7657C72.3404 26.3857 72.1804 27.0557 71.8904 27.9557V27.9657ZM16.8504 27.9457C16.5904 27.1257 16.4304 26.4957 16.1904 25.8957C15.3404 23.7857 14.6504 21.6457 14.2404 19.3957C14.0304 18.2457 13.4104 17.1657 12.8804 16.0957C12.4504 15.2157 11.8704 14.4157 11.3904 13.5557C10.7704 12.4357 10.0004 11.4457 8.87037 10.8057C8.57037 10.6357 8.11037 10.5157 7.82037 10.6357C7.63037 10.7057 7.55037 11.2557 7.57037 11.5757C7.60037 12.0857 7.70037 12.6057 7.86037 13.0957C8.75037 15.7957 9.64037 18.4957 10.5704 21.1757C11.1204 22.7457 11.7404 24.2957 12.3804 25.8357C12.5004 26.1257 12.9004 26.5157 13.1604 26.5157C14.5204 26.4957 15.6704 26.9457 16.8304 27.9457H16.8504ZM67.8804 30.9657C67.9604 30.9957 68.0504 31.0257 68.1304 31.0557C69.2604 29.8157 70.8004 28.9357 71.2404 27.0957C71.4904 26.0657 71.9704 25.0957 72.3204 24.0857C72.6504 23.1057 73.0204 22.1257 73.2404 21.1157C73.6704 19.1457 73.9004 17.1257 75.2604 15.2857C73.7704 15.6657 72.9304 16.5657 72.4504 17.7057C71.2004 20.6457 69.9704 23.6057 68.8804 26.6157C68.3804 28.0057 68.2004 29.5057 67.8804 30.9557V30.9657ZM13.7804 15.3957C14.1904 16.4957 14.6304 17.5957 15.0004 18.7257C15.2004 19.3457 15.2204 20.0257 15.4204 20.6457C16.1604 22.9557 17.0004 25.2357 17.6904 27.5557C18.1804 29.2057 19.6504 29.9057 20.7104 31.0257C20.6004 29.8557 20.5404 28.6757 20.1604 27.6157C19.0404 24.4757 17.8204 21.3757 16.5904 18.2857C16.3404 17.6657 15.9304 17.0857 15.5104 16.5457C15.0404 15.9457 14.4404 15.4857 13.7704 15.3957H13.7804ZM24.9204 35.4857C24.9804 35.4157 25.0304 35.3357 25.0904 35.2657C24.8504 34.2057 24.6104 33.1357 24.3604 32.0757C23.7704 29.5757 23.2804 27.0457 21.9704 24.7857C21.3104 23.6457 20.4804 22.6557 19.1204 21.9257C19.4204 22.6557 19.6304 23.2357 19.8804 23.7957C21.2004 26.7257 21.5104 29.8957 22.0804 33.0057C22.1304 33.2957 22.2704 33.6557 22.4904 33.8257C23.2704 34.4157 24.1104 34.9457 24.9204 35.4957V35.4857ZM69.4404 22.0657C69.4104 22.0057 69.3704 21.9457 69.3404 21.8857C68.6504 22.6057 67.7804 23.2157 67.3004 24.0557C66.5104 25.4157 65.8204 26.8657 65.3604 28.3657C64.6604 30.6257 64.2004 32.9557 63.5904 35.4757C64.3804 35.0757 64.9504 34.7857 65.5304 34.4957C66.2104 34.1457 66.6304 33.6457 66.7304 32.8257C66.9304 31.3057 67.0904 29.7757 67.4804 28.3057C68.0404 26.1957 68.7804 24.1457 69.4404 22.0657ZM12.3104 27.8857C11.8804 28.1857 11.5104 28.4757 11.1104 28.7057C10.6504 28.9657 10.6604 29.2757 10.9204 29.6457C11.5204 30.4657 12.1104 31.2857 12.7404 32.0757C12.8604 32.2257 13.2004 32.3557 13.3604 32.2957C13.8904 32.0857 14.4004 31.8257 14.8604 31.4957C15.0104 31.3857 15.0804 30.9357 14.9804 30.7657C14.3304 29.6157 13.5204 28.5857 12.3104 27.8957V27.8857ZM76.3204 27.7757C75.6404 28.4857 74.9104 29.1457 74.3204 29.9057C73.2804 31.2457 73.4204 31.5357 75.0404 32.1957C75.5204 32.3857 75.8404 32.3757 76.1504 31.9157C76.6304 31.2157 77.1604 30.5557 77.6904 29.8857C78.1504 29.3057 78.1004 28.8857 77.4004 28.5457C77.0904 28.3957 76.8204 28.1357 76.3304 27.7657L76.3204 27.7757ZM44.3004 67.4257L44.4604 67.4657V63.5057C44.4104 63.5057 44.3504 63.5057 44.3004 63.5057V67.4257Z" fill="#F6A1A7"/>
<path d="M71.8906 27.9646C72.1806 27.0546 72.3406 26.3946 72.6106 25.7746C73.5306 23.6546 74.2006 21.4746 74.5406 19.1846C74.5806 18.8846 74.6306 18.5746 74.7506 18.3146C75.9006 15.8946 77.2006 13.5646 78.9506 11.5146C79.2606 11.1546 79.7106 10.8846 80.1406 10.6546C80.8406 10.2946 81.1706 10.5046 81.1906 11.2946C81.1906 11.6446 81.1906 12.0246 81.0906 12.3546C79.5406 16.8246 77.9706 21.2846 76.4206 25.7446C76.2106 26.3446 75.8706 26.6046 75.2006 26.5646C73.9906 26.4946 72.9806 27.0446 71.8906 27.9746V27.9646Z" fill="white"/>
<path d="M16.8489 27.9479C15.6889 26.9379 14.5289 26.4879 13.1789 26.5179C12.9189 26.5179 12.5189 26.1379 12.3989 25.8379C11.7589 24.2979 11.1389 22.7479 10.5889 21.1779C9.64893 18.4979 8.75893 15.7979 7.87893 13.0979C7.71893 12.6079 7.61893 12.0879 7.58893 11.5779C7.56893 11.2579 7.64893 10.7079 7.83893 10.6379C8.11893 10.5279 8.57893 10.6379 8.88893 10.8079C10.0189 11.4479 10.7889 12.4379 11.4089 13.5579C11.8889 14.4179 12.4689 15.2179 12.8989 16.0979C13.4189 17.1679 14.0489 18.2479 14.2589 19.3979C14.6689 21.6479 15.3589 23.7879 16.2089 25.8979C16.4489 26.4979 16.6089 27.1279 16.8689 27.9479H16.8489Z" fill="white"/>
<path d="M67.8828 30.9669C68.2028 29.5169 68.3728 28.0069 68.8828 26.6269C69.9728 23.6269 71.2028 20.6669 72.4528 17.7169C72.9428 16.5669 73.7728 15.6669 75.2628 15.2969C73.9028 17.1369 73.6728 19.1569 73.2428 21.1269C73.0228 22.1369 72.6528 23.1169 72.3228 24.0969C71.9828 25.1069 71.4928 26.0769 71.2428 27.1069C70.8028 28.9469 69.2628 29.8269 68.1328 31.0669C68.0528 31.0369 67.9628 31.0069 67.8828 30.9769V30.9669Z" fill="white"/>
<path d="M13.7812 15.3984C14.4613 15.4784 15.0613 15.9384 15.5213 16.5484C15.9413 17.0884 16.3513 17.6584 16.6013 18.2884C17.8313 21.3884 19.0513 24.4784 20.1713 27.6184C20.5513 28.6784 20.6112 29.8584 20.7212 31.0284C19.6612 29.8984 18.1913 29.2084 17.7013 27.5584C17.0113 25.2384 16.1713 22.9584 15.4313 20.6484C15.2313 20.0284 15.2113 19.3484 15.0113 18.7284C14.6413 17.5984 14.2013 16.4984 13.7913 15.3984H13.7812Z" fill="white"/>
<path d="M24.9172 35.488C24.1072 34.938 23.2672 34.418 22.4872 33.818C22.2672 33.648 22.1272 33.288 22.0772 32.998C21.5072 29.888 21.1972 26.718 19.8772 23.788C19.6272 23.228 19.4072 22.648 19.1172 21.918C20.4772 22.648 21.3072 23.638 21.9672 24.778C23.2772 27.038 23.7672 29.568 24.3572 32.068C24.6072 33.128 24.8372 34.198 25.0872 35.258C25.0272 35.328 24.9772 35.408 24.9172 35.478V35.488Z" fill="white"/>
<path d="M69.4398 22.0667C68.7798 24.1467 68.0298 26.1967 67.4798 28.3067C67.0898 29.7767 66.9198 31.3167 66.7298 32.8267C66.6298 33.6367 66.2098 34.1467 65.5298 34.4967C64.9598 34.7967 64.3798 35.0867 63.5898 35.4767C64.2098 32.9567 64.6698 30.6267 65.3598 28.3667C65.8198 26.8667 66.5098 25.4167 67.2998 24.0567C67.7898 23.2167 68.6498 22.6067 69.3398 21.8867C69.3698 21.9467 69.4098 22.0067 69.4398 22.0667Z" fill="white"/>
<path d="M44.3008 67.4278V63.5078C44.3508 63.5078 44.4108 63.5078 44.4608 63.5078V67.4678L44.3008 67.4278Z" fill="white"/>
<path d="M43.7623 0.0464824C44.8423 -0.273518 45.6823 1.13648 46.3123 1.89648C49.5823 5.82648 55.2723 14.3265 56.1023 19.2765C57.9323 30.1565 45.4223 36.6565 36.8523 30.4765C27.7223 23.8965 34.8423 12.3765 39.5523 5.49648C40.0823 4.72648 43.2623 0.196482 43.7623 0.0464824ZM44.0923 1.25648C40.3023 6.57648 33.0923 15.2765 33.4423 22.0965C34.0823 34.7765 53.9923 35.2465 55.2423 22.2465C55.7423 17.0365 50.4123 9.24648 47.3623 5.13648C46.9523 4.58648 44.4723 1.16648 44.0923 1.25648Z" fill="#F6A1A7"/>
</svg>
