<svg width="84" height="52" viewBox="0 0 84 52" fill="none" xmlns="http://www.w3.org/2000/svg">
<path d="M35.6157 24.0601C42.8403 28.9848 41.4616 39.4997 41.0866 47.2084C40.9763 48.7945 40.8991 50.4028 40.7888 52C41.4616 51.9556 42.1344 51.9224 42.8073 51.878C42.6639 49.1051 42.5756 46.3654 42.7631 43.6147C42.8514 43.6147 42.9286 43.6147 43.0168 43.6036C43.2154 46.3433 43.4249 49.094 43.6235 51.8336C44.0316 51.8114 44.4507 51.7893 44.8588 51.7671C44.8588 51.7338 44.8588 51.7116 44.8478 51.6783C44.1088 44.5464 43.5352 36.8377 46.8111 30.1494C48.0796 27.6094 49.5686 24.4483 52.0504 23.2171C55.977 21.6865 60.5655 23.5942 64.6797 23.2393C74.9265 23.1728 77.9707 11.9702 82.7136 4.92697C83.3203 3.962 84.7321 2.47571 83.5299 1.58838C82.7247 1.06707 80.9488 1.05598 79.4488 0.84524C76.7575 0.490307 74 -0.130826 71.2866 0.0244569C63.1575 0.678865 54.7196 5.27081 51.7415 13.3899C50.2525 16.6509 51.2341 20.422 49.4142 23.5277C47.9472 26.0233 46.392 28.5079 44.8919 30.9702C44.3845 31.8132 43.4139 32.9889 42.7742 31.8243L42.6859 31.6801C40.7998 27.1879 37.6342 23.084 34.8326 19.091C31.4243 13.523 26.1079 8.63159 19.3576 8.46521C12.9492 8.12137 6.86063 10.9387 1.33462 13.8669C0.794157 14.2107 0.0220599 14.5989 0 15.2644C0.0661797 15.9632 2.33835 16.0186 4.11417 16.4512C8.40483 17.5715 11.6035 21.0099 15.7067 22.5849C21.9276 25.2469 29.2845 22.1634 35.6268 24.0601H35.6157ZM51.8187 15.5528C52.5357 11.8038 54.7527 8.93106 57.6095 6.61291C63.3671 1.93222 69.9079 0.37939 77.1766 2.0986C78.3899 2.38698 79.6363 2.54226 81.0481 2.78628C80.4415 3.78453 79.8348 4.63859 79.3716 5.5592C78.0038 8.33211 76.7133 11.1383 75.3346 13.9112C74 16.6065 72.3124 19.0356 69.61 20.4886C68.5512 21.0543 67.3269 21.387 66.1466 21.6088C63.0141 22.1967 59.8816 21.8529 56.7491 21.4868C55.591 21.3537 54.4108 21.3426 53.01 21.265C53.9255 20.3888 54.7086 19.6123 55.5248 18.8692C60.0802 14.6655 64.9003 10.8277 70.68 8.42085C71.3197 8.15465 71.9815 7.92172 72.6212 7.65552C72.8639 7.5557 73.1617 7.47806 73.3051 7.2895C73.5477 6.97893 73.6911 6.60181 73.8786 6.24688C73.4816 6.20251 73.0073 6.00286 72.6984 6.14706C70.2167 7.31168 67.5695 8.26556 65.3415 9.8184C61.4589 12.5248 57.8521 15.6304 54.124 18.5586C54.0247 18.6363 53.9254 18.6917 53.6718 18.6363C54.0688 18.0928 54.4439 17.5382 54.874 17.0169C57.8521 13.3899 61.3817 10.3952 65.2863 7.83299C65.3415 7.79971 65.4187 7.77753 65.4518 7.73316C65.6944 7.38932 66.1908 6.86801 66.1025 6.71273C65.7165 6.08051 65.3084 6.69055 64.9554 6.8902C60.0912 9.61875 56.33 13.5785 52.8886 17.882C52.4033 18.4921 52.0393 19.2019 51.532 19.9895C50.9584 18.3701 51.532 16.9392 51.8077 15.5417L51.8187 15.5528ZM4.53331 14.8207L4.43404 14.4769C5.91206 13.7005 7.35698 12.8575 8.86808 12.1476C11.9234 10.7057 15.111 9.72966 18.5193 9.67421C22.7438 9.60766 26.3506 11.1605 29.3728 14.0776C30.5309 15.1979 31.5788 16.4401 32.6818 17.6158C32.6376 17.6824 32.5825 17.7489 32.5384 17.8155C32.3398 17.7489 32.1192 17.7157 31.9538 17.6047C27.8617 14.854 23.3504 13.5452 18.4311 13.7559C17.5487 13.7892 16.6663 14.0554 15.8059 14.2883C15.5853 14.3438 15.4419 14.6655 15.2655 14.8762C15.5081 14.9871 15.7508 15.22 15.9824 15.1979C17.3611 15.098 18.7509 14.8318 20.1297 14.8207C23.5048 14.7875 26.5822 15.9965 29.45 17.6269C31.5016 18.7805 33.3546 20.3 35.2848 21.6532C35.2297 21.7752 35.1856 21.8972 35.1414 22.0192C34.612 22.0192 34.0715 22.0969 33.5642 22.0081C30.6522 21.4868 27.7183 21.753 24.8505 22.1301C19.7547 22.8067 15.3427 21.4314 11.4381 18.2259C9.39752 16.551 7.08123 15.4862 4.53331 14.8429V14.8207Z" fill="#F6A1A7"/>
</svg>
