<svg width="45" height="77" viewBox="0 0 45 77" fill="none" xmlns="http://www.w3.org/2000/svg">
<path d="M22.1876 29.7725C22.4476 29.5167 20.9658 25.0152 20.5238 24.4397C18.5481 24.3118 16.5983 24.1711 14.6616 23.7619C7.6554 22.2657 2.91097 17.7258 1.0002 10.9479C0.2073 8.12171 -0.273641 3.78644 0.168305 0.896267C0.259294 0.333578 0.597253 0.0138682 1.18218 0.00107982C2.35204 -0.024497 4.53578 0.410308 5.74463 0.666076C14.4016 2.53318 21.3947 7.76363 21.9667 17.048C22.0837 18.9279 21.8107 20.6288 21.7197 22.4447C21.6547 23.8003 22.6166 25.3988 23.0325 26.78C23.2925 27.6624 23.4225 28.7366 23.6825 29.5423C23.7215 29.6829 23.8124 29.798 23.9294 29.8876C24.0854 29.7853 24.2154 29.7469 24.3194 29.5806C24.4104 29.4272 25.5022 26.3708 25.5282 26.1917C25.6062 25.5651 25.2293 24.4397 25.1773 23.7363C24.4624 13.8893 30.4676 8.0194 39.8005 6.02441C40.8014 5.80701 43.2581 5.29548 44.168 5.41057C44.8699 5.50009 44.8959 6.38249 44.9479 6.98354C45.2079 10.2957 44.4799 14.8996 43.1021 17.9304C40.3074 24.056 33.4573 26.1661 27.088 26.5498C26.7241 26.716 25.8142 29.2226 25.8922 29.7725H30.7146C30.9746 29.7725 31.8065 30.1561 32.0145 30.3735C33.6133 31.9849 32.0015 34.0566 30.0517 34.1845L30.0257 49.7991L41.5943 68.8794C43.3101 72.6519 41.1264 76.4373 37.0188 77H11.295C6.29056 76.2583 4.61377 72.3834 6.92749 68.0225C10.0731 62.0887 14.4016 56.2956 17.7682 50.4513L17.9762 49.9525L18.0281 34.3251C17.4692 33.9159 16.7413 33.9543 16.1824 33.545C14.8435 32.5731 15.2725 30.4375 16.8323 29.9643C16.9233 29.9387 17.6772 29.798 17.7292 29.798H22.2006L22.1876 29.7725ZM20.5238 20.9868C20.6148 18.0455 20.4718 15.0658 19.419 12.2907C16.7933 5.33384 8.61728 2.03443 1.58513 1.53569C1.14319 8.14729 2.729 15.5006 8.4613 19.5545C11.8149 21.9332 15.7274 22.7644 19.8089 22.969C19.9389 22.8539 18.5611 20.7183 18.3791 20.4497C17.8982 19.6952 16.4813 17.5084 15.8704 17.0608C15.1035 16.4981 13.3487 15.961 12.3998 15.6797C10.918 15.2321 8.85125 15.0402 7.56441 14.5798C6.8625 14.3241 6.66752 13.48 7.30444 13.1987C7.70739 13.0197 10.2681 13.6335 10.879 13.787C11.9579 14.0555 13.0497 14.388 14.0896 14.7845C14.1416 14.5799 14.0116 14.5543 13.9076 14.4264C11.9449 11.971 9.16322 9.87372 6.69352 7.92988C6.39455 7.63575 6.30356 6.86845 6.7845 6.71499C7.43443 6.52316 7.83738 6.93239 8.30532 7.27768C13.3097 11.063 17.1053 15.7947 20.5108 20.9868H20.5238ZM27.79 25.0791C32.9763 24.721 39.2806 22.6365 41.6203 17.6619C42.8031 15.1425 43.4271 11.6257 43.5051 8.86344C43.5181 8.27517 43.5701 7.52066 43.3881 6.97075C43.1151 6.77893 39.5925 7.54623 38.9946 7.69969C31.3645 9.63074 25.6582 15.0914 26.5811 23.3911C26.6071 23.5701 26.5811 23.6852 26.7631 23.7875C29.1548 20.2579 31.6635 16.8306 34.8611 13.9404C35.2771 13.5696 37.5518 11.6002 37.8767 11.5106C39.0336 11.2037 39.1636 12.2012 38.3837 12.9429C37.3698 13.9149 36.005 14.7845 34.9911 15.8075L32.0794 18.9151L37.0188 17.6874C37.8767 17.8537 37.9547 18.7489 37.1488 19.0942C35.2901 19.887 32.2094 20.0789 30.4936 21.217C29.4408 21.9076 28.4659 23.9921 27.79 25.0663V25.0791ZM22.6426 31.3199C22.3306 31.0641 22.0057 31.2943 21.6677 31.2943C20.9268 31.2943 17.4042 31.1664 17.0403 31.3966C16.7933 31.55 16.7933 32.0744 16.9493 32.2918C17.4692 32.9951 19.224 32.2918 19.445 34.0566V50.0804L19.12 51.0523L12.9068 61.0529C15.9874 60.3495 19.237 60.3751 22.2266 61.4365C23.2665 61.8074 24.1894 62.434 25.2163 62.8305C28.8428 64.2883 32.6644 64.493 36.135 62.5108L28.6609 50.4129C28.3359 46.0265 28.6219 41.6017 28.6349 37.2025C28.6349 36.1155 28.4789 34.9262 28.6349 33.8136C28.8428 32.3813 30.5326 33.0335 31.1306 32.1639C31.6765 31.371 30.2337 31.192 29.7527 31.1536C28.8428 31.0897 26.6721 31.0385 25.8272 31.1536C24.8523 31.3071 24.7613 33.6601 24.6833 34.4914C24.0204 42.5992 24.9303 51.2698 24.5664 59.4543C24.4754 60.2216 23.4225 60.2472 23.1885 59.5183L23.1365 34.8367L22.6296 31.2943L22.6426 31.3199ZM36.9409 63.8791C35.888 64.1732 34.8611 64.7359 33.7692 65.0045C30.8576 65.7206 27.725 65.3754 24.9693 64.2372C21.1478 62.6642 19.497 61.59 14.9995 62.1271C14.1286 62.2294 12.1529 62.5747 11.5939 63.2269C10.58 65.1835 8.92924 67.0762 7.96736 69.02C6.42055 72.1276 7.82438 75.0306 11.308 75.5805H36.6809C38.0457 75.427 39.4755 74.7109 40.1645 73.5088C42.1142 70.1326 38.3057 66.7437 36.9539 63.8791H36.9409Z" fill="#F6A1A7"/>
</svg>
