<svg width="66" height="62" viewBox="0 0 66 62" fill="none" xmlns="http://www.w3.org/2000/svg">
<g clip-path="url(#clip0_3_11737)">
<path d="M25.4504 0.581102C26.5804 1.7111 26.6404 2.5011 26.8304 3.9911C27.0004 5.3411 27.1104 6.6011 27.0504 7.9711C27.2104 7.9411 27.1604 7.6811 27.2204 7.5511C27.2404 7.5011 27.4904 7.1911 27.5204 7.1411C27.7704 6.6711 28.0104 6.1911 28.1704 5.6711L28.3204 5.7511C28.3404 5.5411 28.4204 5.3211 28.4904 5.1211C28.7404 4.3911 29.0804 3.3811 29.3804 2.6111C29.5304 2.2311 29.8504 1.5511 30.3404 1.6711C30.9404 1.8211 30.7204 2.3811 30.7704 2.8111C30.9404 4.2011 30.9204 6.4111 30.1104 7.6311C30.0404 7.7411 29.8704 7.7111 29.8204 7.7711C29.7804 7.8311 29.6104 8.3011 29.7704 8.3511C29.8304 8.3711 29.8104 8.2211 29.8804 8.1711C30.1904 7.9611 30.7104 7.8011 31.0404 7.7011C32.9304 7.1411 35.3004 6.8411 37.3904 6.7511C37.6004 6.7511 38.4204 6.6011 38.5504 6.6511C38.6104 6.6711 38.5504 6.8111 38.6204 6.7811C38.8504 6.4811 39.1904 6.7811 39.2204 6.7811C39.3404 6.8011 39.7904 6.7811 40.0604 6.8111C45.0804 7.2711 48.2804 9.8111 51.4104 13.5511C53.7204 16.3111 55.5604 20.7611 56.8304 24.2611C56.8904 24.4311 56.9304 24.5711 56.9904 24.7611C57.6004 26.5211 58.0304 28.2011 58.5604 29.9511C58.7504 30.5611 59.0704 31.1311 59.1004 31.7611L59.2504 31.6811C59.2504 31.8211 59.2904 31.9511 59.3404 32.0711C60.1704 34.1611 60.8804 36.3311 61.7604 38.4111C63.2204 41.8711 65.1704 45.3311 65.1604 49.4111C65.1504 53.0411 63.0904 57.3511 59.8504 58.9711L59.9204 59.1111C59.7304 59.0511 59.7104 59.2311 59.6404 59.2611C58.7304 59.6411 57.7404 60.2811 56.7304 60.5711C55.7204 60.8611 54.5504 60.8511 53.6504 61.1911C46.3804 61.3911 39.1604 59.1011 32.0704 57.9311C31.2604 57.8011 30.4304 57.6911 29.6204 57.5611C28.7004 57.4211 27.4004 57.3411 26.6504 57.1211C24.4104 56.4711 22.5004 56.0911 20.2204 55.1411C15.0704 52.9911 9.15039 48.1011 8.08039 42.3011C8.03039 42.0511 8.09039 41.5711 8.02039 41.3211C8.00039 41.2611 7.88039 41.3011 7.87039 41.1611C7.86039 40.9911 7.94039 40.8711 7.94039 40.7811C7.94039 40.7511 7.81039 40.7611 7.80039 40.7011C7.50039 39.3511 7.46039 36.9211 7.54039 35.5111C7.58039 34.7911 7.86039 34.0411 7.87039 33.3111L7.26039 33.8811C6.45039 34.3711 5.76039 34.2911 4.86039 34.3511C3.87039 34.4211 2.84039 34.5211 1.83039 34.2611C0.340387 33.8711 -0.119613 33.3611 1.31039 32.3511C2.55039 31.4811 4.05039 30.8611 5.42039 30.2111C6.13039 29.8711 6.87039 29.4711 7.41039 29.0511C7.45039 29.0211 7.64039 28.8411 7.58039 28.7811C6.59039 28.5211 5.51039 28.5411 4.52039 28.2911C3.41039 28.0111 2.02039 27.3511 1.11039 26.6611C0.640387 26.3011 -0.359613 25.5211 0.140387 24.8811C0.640387 24.2411 2.05039 24.8211 2.72039 24.9111C4.27039 25.1211 6.09039 25.0011 7.58039 24.6611C7.83039 24.6011 8.08039 24.5811 8.33039 24.5511C8.36039 24.3611 8.31039 24.4311 8.23039 24.3911C7.89039 24.2311 7.44039 24.2211 7.08039 24.0611C4.30039 22.7811 2.05039 19.0911 1.31039 16.2311C1.23039 15.9111 1.25039 15.4611 1.17039 15.1611C1.11039 14.9211 0.900387 14.7911 0.890387 14.4011C0.880387 13.8811 1.25039 13.5411 1.76039 13.4811C2.61039 13.3711 2.76039 13.6511 3.47039 13.8411C4.36039 14.0911 5.31039 14.2311 6.18039 14.5411C7.46039 15.0011 8.88039 15.7811 10.1404 16.3811C10.5404 16.5711 11.0404 16.6811 11.4004 16.9611C11.4504 17.0011 11.4604 17.0511 11.4504 17.1111L11.6004 16.9611C11.7104 17.3411 12.2604 17.3411 12.5804 17.5011C13.3304 17.8611 13.9704 18.2411 14.7004 18.5811C14.9504 18.7011 15.1604 18.9411 15.4704 18.8911C15.2604 18.4411 15.0504 17.9411 14.8004 17.5111C13.5604 15.3711 11.4304 12.0511 9.59039 10.4611C8.17039 9.2311 5.40039 7.1911 3.65039 6.5811C3.02039 6.3611 1.88039 6.3011 1.66039 5.5911C1.30039 4.4011 1.83039 3.3511 2.91039 2.7911C3.56039 2.4511 4.18039 2.5411 4.83039 2.7911C6.46039 3.4311 7.92039 4.2911 9.32039 5.3611C9.66039 5.6211 10.0104 5.9311 10.2904 6.2111C10.4204 6.3411 10.6604 6.6711 10.7804 6.5411C10.8504 6.8711 11.3004 7.0911 11.5704 7.3911C11.9504 7.8011 12.5504 8.2911 13.0304 8.7711C13.5104 9.2511 14.0504 9.8511 14.5504 10.3511C14.6404 10.4411 14.7604 10.8511 14.8404 10.9811C15.1204 11.3811 15.5704 11.7511 15.7104 12.2511C16.0804 12.5811 16.3504 13.2011 16.5404 13.6811L16.3104 11.3311C16.4104 8.5411 16.5304 5.3911 17.1604 2.6311C17.2004 2.4611 17.5004 1.3811 17.5604 1.2911C17.6204 1.2011 18.0104 1.0111 18.1304 0.931102C18.4404 0.721102 18.4204 0.471102 18.9704 0.621102C19.3104 0.711102 20.9404 1.8011 21.3104 2.0711C22.5704 2.9811 23.4904 4.8911 23.8204 6.4211L24.1604 7.3711C24.2604 6.9511 24.1904 6.4811 24.2004 6.0711C24.2304 4.7511 24.3704 3.0811 24.1104 1.8911C24.0104 1.4311 23.5304 0.431102 24.1404 0.111102C24.7504 -0.208898 25.0704 0.201102 25.4504 0.581102ZM20.8604 4.0511L18.8404 2.6911L18.7504 2.8311C18.6304 3.7411 18.5104 4.6411 18.3904 5.5511C18.3304 5.9611 18.1904 6.4811 18.1404 6.8911C18.0504 7.6211 18.1204 8.4411 17.9104 9.1211C17.8404 9.3311 18.0604 9.1211 18.0604 9.1911C18.0604 9.3611 17.9604 9.5611 17.9504 9.7211C17.8304 11.1411 18.0504 13.0411 18.4204 14.4811C18.5604 15.0411 18.8304 15.6011 19.0304 16.1411C19.2304 16.2711 19.3304 15.0211 19.3504 14.9311C19.5804 13.7411 19.5504 12.9811 19.5604 11.7911C19.5604 11.1011 19.6704 10.5311 19.5104 9.8111C19.4004 9.3011 18.8404 8.7211 19.0304 8.1111C19.3204 8.0911 19.5904 8.0811 19.8304 8.2811C19.9704 8.9311 20.3104 9.6111 20.4004 10.2611C20.4204 10.4011 20.3504 10.5811 20.3604 10.7511C20.4404 11.8011 20.5604 12.9611 20.5104 14.0211C20.4904 14.3511 20.3404 14.6711 20.4404 15.0311C20.7604 14.7011 21.3004 14.3111 21.5504 13.9511C21.6404 13.8211 21.9404 13.3711 22.0004 13.2611C22.0704 13.1211 22.0704 12.8411 22.1304 12.6611C22.7104 10.8911 22.7804 8.1811 22.0904 6.5011C22.0404 6.3811 21.8104 6.0511 21.7804 5.9711C21.5504 5.4611 21.2604 4.4211 20.8704 4.0311L20.8604 4.0511ZM6.28039 4.9511C5.83039 4.6911 4.45039 4.2011 3.96039 4.2111C3.94039 4.2111 3.59039 4.2711 3.57039 4.2811C3.55039 4.2811 3.55039 4.3811 3.50039 4.4111C3.31039 4.5411 3.15039 4.4811 3.18039 4.8611C3.87039 5.0611 4.55039 5.3311 5.20039 5.6111C5.83039 5.8811 6.88039 6.4011 7.46039 6.8211C7.63039 6.9411 7.75039 7.2911 8.00039 7.2411L7.93039 7.3811C9.60039 8.3211 11.1504 9.5711 12.4604 11.0811C13.1704 11.9011 13.8104 12.8711 14.4004 13.6811C14.5104 13.8311 14.6404 14.0511 14.7304 14.2211C14.9004 14.1111 14.7704 14.0011 14.7104 13.8711C13.8904 12.3411 12.9304 10.9611 11.7504 9.7311C11.3104 9.2711 10.4404 8.2411 9.99039 7.9211C9.94039 7.8811 9.86039 7.8911 9.79039 7.9011L9.86039 7.6811H9.56039L9.63039 7.5311C9.30039 7.5111 9.18039 7.1511 8.97039 6.9611C8.19039 6.3011 7.11039 5.4311 6.26039 4.9511H6.28039ZM45.2504 10.0811C42.5304 8.4811 39.9204 8.1011 36.8204 8.2811C35.4004 8.5711 33.7704 8.6011 32.2904 9.0211C31.6204 9.2111 30.4804 9.5411 29.8804 9.8011C29.5604 9.9411 29.2104 10.2711 28.8404 10.3611L28.9104 10.5011C27.1004 11.2711 25.7204 12.6511 24.3204 13.9211C22.0404 15.9711 19.8904 18.0611 17.7404 20.2211C17.4104 20.5511 16.9304 20.8611 16.6504 21.2511C16.4304 21.5511 16.4604 21.4311 16.2104 21.7011C15.0204 22.9811 13.9704 24.9111 13.0004 26.4511C12.3904 27.4311 12.0504 28.2111 11.5104 29.1211C9.76039 32.1211 9.29039 34.6611 9.45039 38.1311C9.62039 41.9411 10.1504 44.0711 12.4204 47.0011C16.9804 52.9011 22.5404 54.6011 29.6504 55.8511C33.7804 56.5711 37.9204 57.1211 41.9004 58.0811C44.1404 58.6211 46.7204 58.9311 49.0204 59.2911C49.8304 59.4211 50.9304 59.5011 51.8604 59.4911C52.5104 59.4911 53.6904 59.4311 54.2004 59.3411C58.2904 58.6211 61.6604 56.4011 62.9504 52.2611C64.1104 48.5311 62.6104 44.9711 61.1704 41.5811C60.6204 40.2911 59.8604 38.8511 59.5304 37.5711C59.4204 37.1411 58.9704 36.4511 58.8004 35.9911C58.2404 34.4911 57.7104 32.7411 57.2104 31.2911C55.8004 27.1711 54.6804 23.0011 52.7704 19.1911C50.9804 15.6211 48.7304 12.1311 45.2604 10.0911L45.2504 10.0811ZM11.7904 19.0011C11.4604 18.8311 11.0504 18.6811 10.6904 18.4911C8.86039 17.5511 6.53039 16.2611 4.54039 15.7911C4.29039 15.7311 3.25039 15.4511 3.11039 15.6311C3.16039 15.9211 3.14039 16.3411 3.26039 16.6111C3.44039 17.0011 3.66039 17.5211 3.87039 17.9511C4.18039 18.5811 4.45039 19.0911 4.79039 19.5911C5.50039 20.6511 6.46039 21.6511 7.42039 22.1911C8.82039 22.9811 10.6504 23.1411 12.2004 22.8211L12.8404 22.6111C12.3904 22.7211 12.1204 22.4311 11.7404 22.3311C10.3104 21.9511 9.27039 21.9211 7.84039 21.2511C7.67039 21.1711 6.84039 20.7411 6.76039 20.6511C6.58039 20.4311 6.70039 20.1711 6.96039 20.1111C7.10039 20.0811 8.26039 20.6311 8.52039 20.7011C8.76039 20.7711 9.14039 20.7411 9.33039 20.8011C10.2504 21.0511 11.2504 21.6411 12.2104 21.2711C12.2604 21.5111 12.3904 21.3511 12.5804 21.3811L12.6904 21.1111C12.5804 21.1611 12.5204 21.1811 12.3904 21.1611C10.6404 20.8411 7.94039 19.4811 6.35039 18.6411C6.10039 18.5111 5.26039 18.0811 5.14039 17.9111C4.96039 17.6611 5.02039 17.3211 5.28039 17.1611C5.63039 16.9511 5.60039 17.2011 5.75039 17.3111C7.35039 18.5311 9.46039 19.0111 11.2504 19.6711C12.1604 20.0111 13.1304 20.7311 14.1004 20.5011C13.7104 20.0111 13.0804 19.8011 12.5504 19.4911C12.3204 19.3611 12.0104 19.0911 11.7804 18.9711L11.7904 19.0011ZM10.9904 25.5211C10.8204 25.5411 10.6104 25.4911 10.4504 25.5211C10.3904 25.5311 10.4004 25.6511 10.3104 25.6911C9.58039 25.9811 8.10039 26.3511 7.32039 26.3911C7.06039 26.4011 6.67039 26.3111 6.43039 26.3311C5.89039 26.3911 5.17039 26.8211 4.57039 26.4111L4.50039 26.5511C4.50039 26.5511 3.68039 26.4011 3.94039 26.6311C4.21039 26.6511 4.44039 26.7911 4.69039 26.8811C5.43039 27.1511 6.51039 27.2711 7.34039 27.3511C7.63039 27.3811 8.06039 27.2511 8.29039 27.5211C8.34039 27.2311 8.99039 27.4611 9.18039 27.5911L9.22039 27.4411C9.47039 27.6711 10.0004 27.5011 10.0404 27.1411C9.59039 27.0311 9.24039 27.2011 8.82039 27.2111C8.68039 27.2111 7.71039 27.1811 7.66039 27.1311L7.74039 26.9811C7.61039 27.0611 6.92039 26.7311 7.07039 26.6111L8.48039 26.6811L8.67039 26.3111L8.63039 26.5311L9.08039 26.4611L8.93039 26.3111C9.58039 26.0911 10.2604 26.0311 10.8604 25.6811C10.9604 25.6211 11.0504 25.6911 11.0104 25.5011L10.9904 25.5211ZM6.88039 32.4111C6.88039 32.4111 7.35039 31.9911 7.24039 31.9111L6.24039 32.6511C6.42039 32.6211 6.74039 32.5011 6.89039 32.4011L6.88039 32.4111ZM4.97039 32.3611C4.89039 32.2811 3.82039 32.7911 3.78039 33.0311C4.27039 33.2011 4.52039 32.8311 4.87039 32.6011C4.98039 32.5311 5.03039 32.4311 4.96039 32.3611H4.97039Z" fill="#F6A1A7"/>
<path d="M25.5591 2.90995C25.6291 3.31995 25.8991 3.80994 25.9691 4.20994C26.0091 4.43994 25.9691 4.90994 25.9691 5.17994C26.0691 7.01994 26.2291 9.59995 24.8891 11.0599C24.8191 11.1399 24.3691 11.5399 24.2891 11.4699C24.3191 11.2299 24.4891 11.0499 24.5691 10.8199C24.6791 10.4799 24.7191 10.0699 24.8591 9.70995C25.0591 9.21994 25.1091 8.55995 25.2291 7.94994C25.2491 7.86995 25.1791 7.72995 25.1891 7.70995C25.2091 7.65995 25.3191 7.67995 25.3291 7.66995C25.3591 7.62995 25.2191 7.55995 25.2091 7.48994C25.1591 6.85994 25.3691 5.70995 25.4091 5.02995C25.4391 4.52995 25.4891 3.91994 25.4791 3.31994C25.4791 3.15994 25.2691 2.84995 25.5491 2.90995H25.5591Z" fill="#F6A1A7"/>
<path d="M33.059 35.3381C33.059 35.3381 33.199 35.3381 33.259 35.4081C33.369 35.5281 33.929 36.3081 33.969 36.4181C34.079 36.7081 34.099 37.4481 34.219 37.6781C34.249 37.7381 34.309 37.7481 34.369 37.7381L34.229 37.8181L34.299 38.0681C34.069 38.1381 34.229 38.2081 34.189 38.3281C34.089 38.6281 33.939 38.6181 33.869 38.7181C33.859 38.7381 33.929 38.8181 33.909 38.8381C33.889 38.8581 33.489 39.1381 33.439 39.1481C31.769 39.4681 29.919 37.5881 29.639 36.0481C29.549 35.5281 29.809 34.9781 30.169 34.6081C30.209 34.5681 30.299 34.6081 30.319 34.5881C30.669 34.3381 31.019 34.2681 31.539 34.3681C32.359 34.5281 32.519 34.8081 33.069 35.3381H33.059ZM32.019 35.9981C31.599 35.6681 31.519 35.4781 30.879 35.6581C30.879 35.9881 30.919 36.2681 31.069 36.5381C31.109 36.6081 31.529 37.2481 31.559 37.2781C31.569 37.2881 31.669 37.2381 31.699 37.2581C31.779 37.3281 31.809 37.4581 31.889 37.5081C32.199 37.7381 32.559 37.8981 32.929 38.0281C33.009 38.0081 33.039 37.5681 33.029 37.5481C33.009 37.4681 32.729 36.9181 32.689 36.8081C32.499 36.3281 32.439 36.3281 32.029 35.9981H32.019Z" fill="#F6A1A7"/>
<path d="M42.1987 18.7493C43.0087 19.4393 43.7787 20.9693 42.9287 21.9093C42.7987 22.0593 42.1287 22.2693 41.9287 22.2493C40.9487 22.1893 39.9987 21.5993 39.3787 20.8693C39.3287 20.8093 39.0387 20.3493 38.9687 20.2293C38.7087 19.7993 38.6987 18.7293 39.0687 18.3393C39.9287 17.4493 41.3987 18.0593 42.1987 18.7393V18.7493ZM41.8887 20.3993C41.6087 19.7493 40.7687 18.9793 39.9987 19.2393C39.9687 19.3493 40.1087 19.2893 40.1487 19.3593C40.2087 19.4493 40.1487 19.6093 40.1987 19.7293C40.4487 20.3093 41.4087 21.1993 42.0787 21.0193C42.1087 20.8893 41.9687 20.9693 41.9387 20.9393C41.9287 20.9193 42.0087 20.5593 41.9787 20.4593C41.9687 20.4093 41.8887 20.4193 41.8787 20.3993H41.8887Z" fill="#F6A1A7"/>
<path d="M29.109 14.6508C29.509 14.8808 30.189 15.6208 30.319 16.0108C30.329 16.0408 30.439 16.7008 30.439 16.7308C30.349 17.1108 30.069 17.3608 29.939 17.7208C29.649 17.6908 29.239 17.9108 28.979 17.9208C28.179 17.9408 26.339 17.2808 25.809 16.6708C25.339 16.1208 25.109 15.5708 25.559 14.9508C25.659 14.8108 26.449 14.1508 26.579 14.1108C27.309 13.9008 28.459 14.2808 29.099 14.6508H29.109ZM28.939 16.3008C28.629 15.8208 28.189 15.6408 27.649 15.4708C27.009 15.2708 26.279 15.0208 26.779 16.0108C27.549 16.3808 28.239 16.8408 29.129 16.7708C29.209 16.4808 29.009 16.4108 28.939 16.3008Z" fill="#F6A1A7"/>
<path d="M37.3902 27.9609C37.9002 28.1709 38.0902 28.3909 38.4602 28.7909C38.9902 29.3709 39.2802 29.7909 39.4102 30.6509C39.4202 30.7509 39.3502 30.8709 39.3602 30.9709L39.5002 30.9209C39.4602 31.0409 39.4602 31.1709 39.4302 31.2809C39.3602 31.4809 39.4002 31.3409 39.3602 31.5909C39.3402 31.7109 39.1602 31.6409 39.1102 31.7009C39.0802 31.7309 39.0802 31.9909 38.9802 32.0609C38.9502 32.0809 38.3702 32.1909 38.3202 32.1909C37.6902 32.1909 36.7302 31.7709 36.2202 31.4009C35.5602 30.9209 35.1302 30.2209 34.9102 29.4409L35.0602 29.4009C34.8902 29.2409 34.9202 28.7509 35.0002 28.5609C35.0502 28.4509 35.1702 28.4609 35.2002 28.4209C35.2402 28.3709 35.0902 28.2809 35.2802 28.1009C35.4002 27.9909 35.4902 28.0509 35.6002 28.0009C35.6502 27.9809 35.6402 27.8609 35.7002 27.8509C36.3002 27.7609 36.8102 27.7109 37.4102 27.9609H37.3902ZM38.2302 30.9709C38.3102 30.3409 37.9102 29.7909 37.4502 29.4109C37.0402 29.0609 36.6002 28.7809 36.1802 29.2609C36.0802 29.4109 36.2402 29.6009 36.3102 29.7309C36.4502 29.9809 36.9802 30.5909 37.2002 30.7009C37.3102 30.7509 38.1702 31.0209 38.2202 30.9809L38.2302 30.9709Z" fill="#F6A1A7"/>
<path d="M33.9915 19.9016C33.9915 19.9016 34.0215 20.0016 34.0715 20.0116C34.6815 20.2116 35.9915 20.6416 36.3715 21.1516C36.3815 21.1716 36.3415 21.3416 36.4015 21.4616C36.4615 21.5616 36.5815 21.5816 36.6115 21.6416C36.7515 21.9016 36.8615 22.6016 36.7915 22.8916C36.7815 22.9416 36.5815 23.3716 36.5615 23.3816C36.4715 23.4416 36.3015 23.4116 36.2215 23.4516C36.1415 23.4916 36.1515 23.5916 36.0715 23.6216C35.8315 23.7216 34.8515 23.5516 34.5415 23.4716C33.8715 23.3116 32.4115 22.5316 32.0715 21.9816C31.9915 21.8516 32.0715 21.7216 32.0515 21.6816C32.0515 21.6716 31.9415 21.6616 31.9215 21.6116C31.6715 21.0416 31.6015 20.3916 32.1615 19.9816C32.1815 19.9616 32.2415 20.0216 32.2715 20.0116C32.2915 20.0016 32.2815 19.9116 32.4015 19.8816C32.6715 19.8216 33.7215 19.8316 33.9815 19.9216L33.9915 19.9016ZM35.5715 22.4816C35.4215 21.7716 34.1115 20.9916 33.4515 21.0616C33.3415 21.0716 33.2615 21.0716 33.1915 21.1816C33.7515 21.8516 34.6315 22.7116 35.5715 22.4816Z" fill="#F6A1A7"/>
<path d="M30.0495 41.4106C30.8495 41.9806 31.2595 43.0306 31.2695 44.0206C31.2895 45.3806 29.9795 45.7206 28.8995 45.2006C27.9395 44.7406 26.7695 42.7806 27.1895 41.7206C27.2195 41.6406 27.6795 41.0306 27.7195 41.0206C27.7695 41.0106 27.8595 41.0906 27.9495 41.0706C28.0395 41.0506 28.0895 40.9306 28.1595 40.9006C28.8195 40.6506 29.5295 41.0306 30.0595 41.4106H30.0495ZM30.0795 44.2806C30.1995 43.6506 29.5695 42.0906 28.9095 41.9906C28.7995 41.9706 28.4995 42.0906 28.4395 42.1606C28.0195 42.6406 28.9795 43.8406 29.4095 44.0906C29.4895 44.1406 30.0495 44.3106 30.0695 44.2806H30.0795Z" fill="#F6A1A7"/>
<path d="M38.9602 38.6797C39.7902 39.0697 40.5202 40.1097 40.6702 41.0097C40.7202 41.3197 40.7702 41.7697 40.6502 42.0597C40.6402 42.0897 40.3302 42.5497 40.3002 42.5697C40.2802 42.5797 40.2002 42.5097 40.1802 42.5297C40.0602 42.6397 39.8802 42.9097 39.6702 42.9397C39.4902 42.9597 38.9302 42.8597 38.7302 42.7897C38.5002 42.7197 37.6102 42.1897 37.4402 42.0397C37.0702 41.6997 36.4102 40.2597 36.4102 39.7697C36.4102 39.1697 36.9902 38.8597 37.2802 38.4297C37.9702 38.4097 38.3202 38.3797 38.9502 38.6797H38.9602ZM38.2002 39.6397C38.1302 39.6397 38.0602 39.7597 37.9902 39.7797C37.7302 39.8597 37.3802 39.8497 37.6502 40.3097C37.7402 40.4597 38.3702 41.2197 38.5002 41.3297C38.6002 41.4097 39.2802 41.7897 39.3602 41.7397C39.8402 41.4597 39.0302 40.1897 38.7702 39.9497C38.6902 39.8797 38.2802 39.6397 38.2102 39.6397H38.2002Z" fill="#F6A1A7"/>
<path d="M22.1717 38.0984C22.9817 38.7484 23.4417 39.2584 23.5117 40.3484C23.5417 40.8284 23.5117 41.6584 23.0217 41.8984C22.9717 41.9284 22.5217 42.0484 22.4617 42.0484C22.3917 42.0484 22.3217 41.9684 22.2417 41.9684C22.0517 41.9684 21.8917 42.0484 21.6617 41.9884C21.5717 41.9684 20.5417 41.3284 20.4417 41.2384C19.3917 40.2984 18.8017 38.0184 20.5417 37.4884C20.6517 37.4584 20.7617 37.6584 20.8217 37.3984C21.4517 37.5084 21.7017 37.7284 22.1717 38.0984ZM21.2817 38.8384C20.5917 38.4384 20.5917 39.2084 20.7717 39.6884C20.8217 39.8284 21.3417 40.4684 21.4517 40.5684C21.5717 40.6784 22.0017 40.9184 22.1517 40.8984C22.5817 40.5584 22.1817 39.6784 21.8717 39.3284C21.7917 39.2384 21.3717 38.8884 21.2917 38.8384H21.2817Z" fill="#F6A1A7"/>
<path d="M46.3391 25.4006C46.8991 25.8406 47.1491 26.3206 47.4991 26.9706C47.5791 27.1106 47.5691 27.4206 47.7891 27.4506C47.7391 27.9106 47.6991 28.6706 47.2791 28.9706C47.1391 29.0706 47.0491 29.0106 46.9991 29.0306C46.9691 29.0406 46.9591 29.1806 46.7991 29.2406C46.7691 29.2506 46.1091 29.3106 46.0591 29.3006C45.8491 29.2806 45.4391 28.9906 45.2591 28.8506C44.3491 28.1606 43.5891 27.3706 43.6391 26.1406C43.6791 25.2406 44.6191 24.4706 45.4991 24.8006C45.8391 24.9306 46.0891 25.2006 46.3491 25.4006H46.3391ZM45.9891 26.4206C45.9391 26.3706 45.5391 26.1106 45.4691 26.0806C45.0691 25.9206 44.9191 26.3406 45.0191 26.6806C45.1491 27.1206 45.8391 27.9406 46.2891 28.0106C46.3991 28.0306 46.4991 28.0406 46.6091 28.0306C46.7291 27.7506 46.4791 27.6506 46.4691 27.6006C46.3691 27.2906 46.2291 26.6706 45.9891 26.4206Z" fill="#F6A1A7"/>
<path d="M25.1202 30.6419C25.1202 30.6419 25.1502 30.7419 25.2002 30.7619C25.4402 30.9019 25.8002 31.1819 25.9202 31.4319C25.9502 31.5019 25.9002 31.6119 25.9402 31.7119C26.2602 32.3419 26.5502 32.7019 26.5402 33.4819C26.5402 33.7219 26.3402 34.5519 26.1702 34.6919C26.0902 34.7519 25.9102 34.7419 25.8002 34.7919C25.7402 34.8219 25.7402 34.9119 25.6402 34.9519C24.5002 35.3519 23.0702 33.9119 22.7602 32.9019C22.6902 32.6819 22.6202 31.8619 22.6402 31.6319C22.6802 31.1919 23.2902 30.6719 23.6702 30.5119C23.7402 30.4819 23.8202 30.5519 23.8802 30.5319C23.9002 30.5319 23.8902 30.4219 23.9302 30.4219C23.9602 30.4219 24.4902 30.4419 24.5202 30.4519C24.6202 30.4719 24.6802 30.5719 24.7802 30.6019C24.9002 30.6419 25.0202 30.6019 25.1302 30.6619L25.1202 30.6419ZM24.4602 31.6019C23.9802 31.5819 23.7302 31.9719 23.8302 32.4219C23.8702 32.6119 24.0302 32.7119 24.0802 32.7919C24.1102 32.8419 24.0602 32.9319 24.1102 33.0219C24.4002 33.4319 24.8902 33.7619 25.3702 33.8919C25.2402 33.1919 25.2602 32.3519 24.7302 31.8119C24.6502 31.7319 24.4902 31.7619 24.4602 31.6019Z" fill="#F6A1A7"/>
<path d="M46.7882 49.3819C46.7882 49.3819 46.8182 49.4919 46.8582 49.5119C47.7382 49.9919 48.1182 50.7019 48.2082 51.7019C48.0282 51.8219 47.8082 52.3219 47.6482 52.4119C47.5182 52.4919 47.4182 52.4119 47.3482 52.4319C47.3382 52.4319 47.3382 52.5419 47.2782 52.5519C46.0382 52.8319 44.4282 52.2319 43.8582 51.0819C43.5882 50.5519 43.5982 50.3419 43.8982 49.8219C44.2382 49.2319 44.8282 48.9919 45.5082 49.0519C45.6182 49.0519 46.7282 49.3419 46.7882 49.3719V49.3819ZM45.7282 51.2019C46.0182 51.4019 46.3382 51.4519 46.6782 51.4819C46.7682 51.4819 46.7882 51.5719 46.8882 51.4219C46.7982 50.8419 45.8782 50.4819 45.3682 50.4219C45.1582 50.3919 45.2782 50.6919 45.3182 50.7719C45.3582 50.8619 45.6482 51.1519 45.7382 51.2119L45.7282 51.2019Z" fill="#F6A1A7"/>
<path d="M28.2911 24.9611C28.4011 25.0211 28.9411 25.5711 29.0111 25.6911C29.0411 25.7411 29.3111 26.3411 29.3411 26.4011C29.5211 26.9011 29.3811 27.2711 29.3311 27.7611L28.6811 28.3711C28.4211 28.4811 28.1511 28.3311 27.9211 28.3111C27.8211 28.3111 27.7111 28.4011 27.5211 28.3811C27.0111 28.3211 26.1211 27.6811 25.8011 27.2811C25.4811 26.8711 25.1911 26.1111 25.3011 25.5911C25.3511 25.3511 25.8211 24.5711 26.0711 24.4911C26.6111 24.3111 27.8111 24.7011 28.3011 24.9811L28.2911 24.9611ZM28.0811 27.2911C28.4811 26.9911 27.9811 26.5811 27.9511 26.2311C27.8411 26.0311 26.7711 25.5111 26.6811 25.6011C26.7011 25.7611 26.6711 25.8011 26.5311 25.8611C26.7111 26.0711 26.6511 26.3211 26.7911 26.5711C26.9311 26.8211 27.8411 27.4711 28.0711 27.3011L28.0811 27.2911Z" fill="#F6A1A7"/>
<path d="M39.0316 50.0411C38.8516 50.4011 38.1616 50.6411 37.7716 50.6311C36.9016 50.6111 36.1316 50.0311 35.6516 49.3511C35.1316 48.6111 34.7816 47.7711 35.5216 47.0211C35.6916 46.8511 36.3916 46.4511 36.6116 46.4611C37.3616 46.5011 38.9116 47.8511 39.1016 48.5811C39.1916 48.9211 39.2016 49.7211 39.0316 50.0511V50.0411ZM36.9516 47.8711C36.5916 47.7811 36.3316 47.8011 36.3916 48.2311C36.4716 48.8511 37.4316 49.2511 37.9016 49.5511C38.0216 49.4611 38.0016 49.4511 37.9816 49.3311C37.9516 49.1411 37.7516 48.4311 37.6716 48.3011C37.5016 48.0111 37.2716 48.0811 37.0316 47.9911C36.9716 47.9711 36.9616 47.8811 36.9516 47.8811V47.8711Z" fill="#F6A1A7"/>
<path d="M51.44 32.3082C51.49 32.3582 51.88 32.9582 51.92 33.0482C52.16 33.5182 52.32 34.0082 52.54 34.4782C52.44 34.9082 52.47 35.2782 52.23 35.6582C52.19 35.7282 52.21 35.8382 52.2 35.8482C52.2 35.8482 52.08 35.7882 52.03 35.7982C51.93 35.8182 51.89 35.9382 51.83 35.9682C51.75 35.9982 51.68 35.9382 51.62 35.9582C51.6 35.9582 51.61 36.0582 51.57 36.0682C50.09 36.2782 48.63 34.3482 48.58 33.0182C48.51 31.2782 50.45 31.3882 51.43 32.3282L51.44 32.3082ZM51.26 34.1882C51.04 33.7682 50.72 33.1282 50.31 32.8682C50.17 32.7782 49.93 32.9082 49.75 32.7982C49.92 33.5982 50.36 35.0082 51.39 34.8782C51.35 34.7082 51.45 34.4982 51.43 34.3482C51.41 34.2182 51.29 34.2182 51.27 34.1882H51.26Z" fill="#F6A1A7"/>
<path d="M42.9184 33.5181L42.8484 33.6581C43.3784 33.8881 43.7884 34.1781 44.1684 34.5981C44.2484 34.6781 44.2684 34.8081 44.3284 34.8781C44.3884 34.9481 44.4984 34.9081 44.5584 34.9781C44.5784 34.9981 44.8084 35.5281 44.8184 35.5581C44.9084 35.8781 44.8584 36.2281 44.9984 36.5381C44.7684 36.5981 45.0384 36.9081 44.6384 36.9381L44.7884 37.0881C44.6284 37.0681 44.5984 37.2681 44.5484 37.2981C44.4984 37.3281 44.3984 37.2581 44.3384 37.2781C44.0984 37.3581 44.0484 37.5481 43.7084 37.3181L43.6384 37.4681L42.6184 37.0881C42.5584 37.0681 42.5484 36.9781 42.4984 36.9481C41.4484 36.3581 40.4984 35.1281 40.8784 33.8281C40.9584 33.5681 41.1184 33.1181 41.4384 33.2281L41.3584 33.0781C41.5584 33.1381 41.8684 33.0581 42.0484 33.0881C42.3784 33.1581 42.5984 33.4881 42.9284 33.5181H42.9184ZM43.3484 35.0881C43.3484 35.0881 43.1384 35.0881 43.0284 34.9981C42.6784 34.7681 42.3684 34.1581 41.8784 34.3981C41.9184 34.9681 43.0784 36.2981 43.6284 36.2481L43.8084 36.1281C43.8284 36.0581 43.3984 35.1081 43.3484 35.0781V35.0881Z" fill="#F6A1A7"/>
<path d="M52.2108 38.8708C52.3608 38.9808 52.7108 39.2408 52.8308 39.3708C53.4208 39.9708 53.6008 40.7708 53.5208 41.6108C53.4708 42.1508 53.3708 42.1308 53.0808 42.4508C52.9608 42.5708 53.1008 42.7108 52.7408 42.7608C52.0708 42.8508 51.5708 42.5708 51.0508 42.1708C50.1508 41.4808 49.2908 39.9008 49.9908 38.8308C50.2008 38.5208 50.8008 38.3008 51.1708 38.3508C51.5608 38.4108 51.9308 38.6708 52.2108 38.8808V38.8708ZM52.3108 41.5608C52.8808 40.9408 51.7908 39.6708 51.1408 39.5008C51.1508 39.7508 50.9908 39.9008 51.0208 40.1708C51.1208 40.9408 51.5008 41.2708 52.1408 41.6408C52.1908 41.6308 52.2708 41.6108 52.3108 41.5708V41.5608Z" fill="#F6A1A7"/>
<path d="M45.8189 41.9001C45.8189 41.9001 45.8289 41.9801 45.8689 42.0001C46.5189 42.2401 47.0289 42.5301 47.4289 43.1401C47.5189 43.2901 47.9389 44.3501 47.9789 44.5301C48.0889 45.0701 47.8089 45.2501 47.6889 45.7401L47.5589 45.6801C47.4189 46.0301 46.5689 46.0101 46.2489 45.9201C46.1089 45.8801 45.0089 45.2201 44.8989 45.1201C44.5489 44.8101 44.1489 44.0101 44.1389 43.5401C44.1389 43.5201 44.3289 43.4701 44.2589 43.2201L44.1289 43.1401L44.2689 43.1101C44.0789 42.2701 45.0889 41.7701 45.8189 41.9101V41.9001ZM45.7089 44.2301C45.8789 44.4601 46.1989 44.6401 46.4289 44.8201C46.6289 44.8901 46.5589 44.4501 46.5389 44.3401C46.4589 43.9301 46.0089 42.8401 45.4989 43.2201C45.5189 43.3901 45.5889 43.4201 45.3889 43.4801C45.4889 43.7601 45.5189 43.9901 45.7089 44.2401V44.2301Z" fill="#F6A1A7"/>
<path d="M16.1517 29.0606C16.9117 29.6606 17.7217 30.8106 17.9617 31.7506C18.0117 31.9506 17.9417 32.2406 17.8617 32.4406C17.7617 32.7206 17.5817 32.8006 17.4917 32.9706C17.4417 33.0606 17.4617 33.2506 17.4517 33.2606C17.4317 33.2806 16.9417 33.3006 16.8517 33.3006C15.6417 33.2306 14.4617 31.3606 14.3317 30.2506C14.3117 30.1106 14.3717 29.9706 14.3717 29.8306C14.3717 29.7706 14.2717 29.6906 14.2617 29.6506C14.2617 29.6106 14.3617 29.6206 14.4017 29.5606C14.4817 29.4206 14.5517 29.1506 14.6617 29.0406C14.6917 29.0106 14.7917 29.0206 14.8317 28.9906C15.0217 28.8006 15.0317 28.6406 15.3417 28.6406C15.7317 28.6406 15.9017 28.8606 16.1617 29.0606H16.1517ZM15.8517 30.2606C15.7517 30.1606 15.6917 30.0306 15.5217 29.9906C15.4417 30.5206 15.8617 31.1806 16.1917 31.5906C16.3217 31.7506 16.5717 32.0406 16.7817 32.0806C16.9917 31.9206 16.3117 31.0206 16.2017 30.8406C16.0417 30.5906 16.1117 30.5406 15.8517 30.2706V30.2606Z" fill="#F6A1A7"/>
<path d="M14.3717 39.0019C14.4217 39.0519 14.4917 39.0919 14.5517 39.1519C15.0317 39.6419 15.7517 41.1819 15.9417 41.8919C15.9617 41.9819 15.9617 42.5019 15.9317 42.5919C15.8017 42.9019 15.4817 43.0019 15.3817 43.2619C15.1817 43.0619 14.9217 43.2319 14.6617 43.1319C13.3817 42.6119 12.3617 40.6519 12.2617 39.3619C12.2617 39.3219 12.3717 39.3419 12.3917 39.2919C12.4117 39.2319 12.3517 39.1219 12.4217 39.0119C12.4417 38.9819 12.8817 38.6019 12.9117 38.5919C13.3817 38.4019 14.0517 38.6919 14.3717 39.0019ZM13.8517 39.9719C13.7417 39.8719 13.6717 39.6719 13.4517 39.7019C13.6317 40.6019 14.0217 41.3119 14.6817 41.9319C14.8617 41.8219 14.7617 41.5619 14.6917 41.4019C14.5117 40.9319 14.2117 40.2919 13.8517 39.9719Z" fill="#F6A1A7"/>
<path d="M21.2082 46.65C21.2082 46.65 21.2082 46.8 21.2682 46.86C21.3382 46.92 21.5382 46.94 21.6482 47.03C21.7582 47.12 22.3082 47.72 22.3782 47.83C22.6782 48.33 22.6482 48.74 22.6182 49.3C22.2782 49.64 22.0282 50.17 21.4182 49.91L21.3382 50.06C20.7682 50.01 20.1982 49.88 19.7382 49.5C19.1982 49.06 18.3982 47.67 18.6982 46.97C18.9382 46.4 19.6382 46.28 20.2182 46.35C20.3482 46.37 21.1682 46.61 21.2182 46.66L21.2082 46.65ZM21.1282 48.22C20.8282 47.89 20.3182 47.57 19.8882 47.45C19.6882 47.81 20.1982 48.24 20.4482 48.49C20.5282 48.57 20.6582 48.55 20.7082 48.62C20.7582 48.68 20.7482 48.82 20.7882 48.86C20.7882 48.86 20.8982 48.82 20.9782 48.86C21.1482 48.93 21.2682 49.11 21.5182 49.02C21.6682 48.72 21.4782 48.82 21.3782 48.67C21.2882 48.54 21.2482 48.36 21.1282 48.23V48.22Z" fill="#F6A1A7"/>
<path d="M38.4212 14.0505C38.0512 14.4705 36.8213 14.2305 36.3613 14.0405C35.7113 13.7605 34.7713 13.1805 34.4813 12.5005C34.4013 12.3105 34.5012 12.0405 34.2812 12.0705L34.4313 12.0005V11.8505L34.2812 11.8105C34.4712 11.2505 34.7612 10.8505 35.4212 10.8805C35.4812 10.8805 36.6113 11.1005 36.6813 11.1305C37.3913 11.3605 38.2713 12.0505 38.5312 12.7605C38.6413 13.0705 38.6412 13.8005 38.4212 14.0505ZM36.8613 12.3905C36.5813 12.1805 35.4613 11.7905 35.8713 12.4105C36.1313 12.8105 36.8713 13.0005 37.3313 13.0305C37.2813 12.9405 37.2713 12.8105 37.2113 12.7405C37.1913 12.7205 36.8813 12.4005 36.8613 12.3905Z" fill="#F6A1A7"/>
<path d="M54.139 27.5695C54.649 28.1295 55.109 28.7195 55.159 29.4795C55.159 29.5295 55.279 29.5195 55.299 29.5795C55.379 29.8495 55.429 30.0995 55.299 30.3695C55.259 30.4395 54.719 30.9795 54.679 30.9895C54.269 31.1295 53.259 30.5695 52.929 30.2995C52.609 30.0395 52.219 29.5495 52.039 29.1795C51.939 28.9895 51.689 28.3095 51.679 28.1295C51.599 27.1495 52.199 26.3795 53.219 26.8095C53.699 27.0095 53.849 27.2295 54.149 27.5595L54.139 27.5695ZM52.989 27.7595H52.849C52.679 27.8995 53.039 28.9195 53.159 29.1095C53.389 29.4695 53.879 29.7295 54.219 29.9795C54.549 29.6795 54.029 29.4495 53.869 29.1395C53.699 28.8095 53.619 28.1295 53.279 27.9395C53.169 27.8795 52.969 27.9595 52.979 27.7595H52.989Z" fill="#F6A1A7"/>
<path d="M51.4091 55.1309C51.6291 55.3309 51.9091 55.8109 51.9391 56.1109C51.9391 56.1809 51.8691 56.9009 51.8491 56.9409C51.8091 57.0209 51.6891 57.0309 51.6691 57.0609C51.6591 57.0909 51.7191 57.1509 51.6991 57.1709C51.6591 57.2209 51.5391 57.4109 51.5291 57.4209C51.4691 57.4709 50.8091 57.6109 50.7191 57.6109C50.6291 57.6109 50.5291 57.5009 50.4191 57.4909C49.8091 57.4409 49.4591 57.5009 48.8991 57.1409C48.7791 57.0609 48.5591 56.7709 48.4991 56.7009C48.4091 56.5909 48.1991 56.4909 48.1491 56.4509C48.0691 56.3609 48.3491 56.4109 48.2991 56.3009C47.9491 56.2309 47.8991 55.6209 47.9591 55.3309C48.0391 54.9509 48.4591 54.4209 48.8591 54.3709C49.6791 54.2809 50.7791 54.5909 51.3991 55.1309H51.4091ZM49.8591 55.5109C49.8591 55.5109 49.3291 55.5209 49.3091 55.5509C48.9191 56.2209 50.7791 56.6309 50.9091 56.4509C50.8091 56.0409 50.4491 55.7709 50.0891 55.6009C50.0191 55.5709 49.9491 55.6309 49.8891 55.6009C49.8791 55.6009 49.8691 55.5109 49.8591 55.5009V55.5109Z" fill="#F6A1A7"/>
<path d="M21.5893 25.1786H21.2993C21.2893 25.5786 20.8293 25.5686 20.5793 25.6386C20.5393 25.6486 20.5493 25.7486 20.5093 25.7586C19.9093 25.8486 18.9893 25.6886 18.4793 25.3486C17.7393 24.8486 17.5993 23.6386 18.2393 22.9986C18.2693 22.9686 18.8593 22.5986 18.8893 22.5786C19.0593 22.5186 19.5893 22.4086 19.7593 22.4186C19.7993 22.4186 20.4393 22.5686 20.4793 22.5886C20.5193 22.6086 20.8993 22.8386 20.9493 22.8686C21.5193 23.2686 21.8693 23.9686 21.7293 24.6886C21.6893 24.8786 21.4693 24.9786 21.5893 25.1786ZM20.1793 23.4686C19.5793 23.4586 18.6493 23.5386 19.0793 24.3486C19.3893 24.3886 19.5493 24.6986 19.8593 24.7186C19.9193 24.7186 20.4193 24.4586 20.4593 24.4186C20.6993 24.1786 20.4893 23.5686 20.1093 23.6186L20.1893 23.4686H20.1793Z" fill="#F6A1A7"/>
<path d="M46.0581 12.6105C46.5181 12.9005 47.7481 14.0605 47.8581 14.5705C47.9081 14.8305 47.8581 15.2705 47.7281 15.5005C47.6181 15.7005 47.0481 16.0305 46.8181 15.9805C46.4181 15.9005 45.0481 14.9805 44.6781 14.6905C44.6581 14.6705 44.4381 14.3805 44.3981 14.3105C44.0081 13.7805 43.8281 13.2905 43.9381 12.6105C44.0181 12.1305 44.3681 11.8805 44.8481 11.9905C44.9781 12.0205 45.9081 12.5005 46.0681 12.6005L46.0581 12.6105ZM46.7581 14.8105C46.4781 13.9605 45.8581 13.3405 44.9781 13.1805C44.9781 13.1905 45.0081 13.4405 45.0181 13.4805C45.2181 13.9905 45.3781 14.0105 45.7081 14.3405C45.7681 14.4005 45.8281 14.6105 46.0281 14.7105L46.7581 14.8105Z" fill="#F6A1A7"/>
<path d="M55.4185 49.7814L55.1985 49.7014C55.1885 50.1114 55.0085 49.9614 54.8585 50.0214C54.8185 50.0414 54.8285 50.1414 54.7685 50.1514C54.4685 50.2114 53.9385 50.1314 53.6385 50.0314C53.4785 49.9814 52.5285 49.4314 52.3985 49.3114C51.7585 48.7514 51.5085 47.5214 52.2785 46.9614C53.0385 46.4014 54.0685 46.9414 54.6385 47.5514C54.7785 47.7014 55.3485 48.4714 55.4185 48.6314C55.5785 48.9714 55.4485 49.4314 55.4185 49.7814ZM53.2485 47.7914L53.1485 47.7714C52.5685 48.1314 53.3785 48.8114 53.7785 49.0014C54.0085 49.1114 54.5285 49.3514 54.3885 48.9014C54.2685 48.5214 53.4685 48.1314 53.2485 47.7814V47.7914Z" fill="#F6A1A7"/>
<path d="M57.6586 36.8509C57.9186 37.0609 58.3986 38.1009 58.5486 38.4509C58.6086 38.5809 58.7286 38.6709 58.7786 38.8109C58.9286 39.2009 58.9886 39.7409 58.7786 40.1109C58.6686 40.3109 58.3986 40.3709 58.3686 40.4009C58.2786 40.5109 58.4886 40.7009 57.9586 40.5909C56.5686 40.3009 55.4586 38.4809 55.9986 37.1009C56.1286 36.7709 56.2886 36.8709 56.4386 36.6109C56.6786 36.7009 56.8686 36.4809 57.1186 36.5309C57.1886 36.5409 57.5886 36.7909 57.6686 36.8509H57.6586ZM57.1486 37.8009H56.8686C56.7186 38.6009 57.3486 38.9309 57.8386 39.4209C57.9086 38.7709 57.3486 38.3709 57.1586 37.8009H57.1486Z" fill="#F6A1A7"/>
<path d="M31.2784 52.0191C31.2784 52.0191 31.2484 52.1091 31.2784 52.1491C31.3184 52.1991 31.4184 52.1991 31.4384 52.2591C31.5184 52.4491 31.3884 52.9991 31.2584 53.1791C31.2284 53.2291 30.7484 53.5691 30.6984 53.5891C30.3384 53.7191 29.6084 53.6091 29.2284 53.5091C29.0984 53.4791 28.3884 53.2491 28.2884 53.1991C28.1184 53.1191 27.6784 52.7791 27.5784 52.6391C27.4484 52.4491 27.3184 51.8591 27.4484 51.6491C27.4684 51.6091 27.5784 51.5991 27.6184 51.5591C27.8784 51.2791 27.8084 51.4291 27.9984 51.3091C28.0484 51.2791 28.2584 51.0691 28.2884 51.0591C29.2084 50.7591 30.6984 51.2791 31.2784 52.0191ZM29.5384 52.2091C29.4884 52.1491 29.5184 51.9691 29.4084 51.9491L28.7684 52.0791C28.6784 52.3891 28.9184 52.4191 29.1884 52.4991C29.2684 52.5191 30.3284 52.6791 30.1784 52.4591C30.0584 52.3691 29.5784 52.2791 29.5284 52.2191L29.5384 52.2091Z" fill="#F6A1A7"/>
<path d="M49.9601 18.2507C49.9601 18.2507 50.6201 18.9007 50.6501 18.9407C50.7201 19.0607 50.6701 19.2007 50.7201 19.2807C50.8601 19.4907 51.0201 19.7307 51.0801 19.9707C51.1001 20.0407 51.0401 20.3807 51.1001 20.4507L51.2501 20.3707C51.4601 21.0907 50.9901 22.5407 50.0401 21.9307C49.7801 21.7607 49.4301 21.2607 49.2401 21.0207C49.0501 20.7807 48.4801 19.7307 48.4401 19.3507C48.4201 19.2207 48.5201 18.6807 48.5601 18.5407C48.6901 18.1307 49.6101 18.0807 49.9601 18.2407V18.2507ZM50.2801 20.9007C50.1701 20.6407 49.8801 19.1807 49.5001 19.2707C49.2101 19.3307 49.5201 19.5407 49.5501 19.6007C49.6501 19.8307 49.6501 20.0707 49.6901 20.3107L49.8401 20.2407C49.9001 20.4807 49.9701 20.8907 50.2901 20.9107L50.2801 20.9007Z" fill="#F6A1A7"/>
<path d="M61.2097 51.0006C61.3097 51.1906 61.4497 51.2006 61.5197 51.5806C61.6997 52.6706 61.2297 54.0906 59.8697 53.4206C59.8197 53.4006 59.3797 52.9006 59.3597 52.8506C59.1597 52.5306 58.9297 51.6506 58.9597 51.2706C58.9697 51.0606 59.0497 50.8306 59.1597 50.6506C59.2797 50.4406 59.7897 49.9806 60.0297 50.0006C60.3197 50.0206 61.0097 50.5206 61.1897 50.7706C61.2497 50.8606 61.1897 50.9606 61.2197 51.0006H61.2097ZM60.3397 51.4106C60.2697 51.3506 60.0097 51.2906 59.9897 51.4306C60.0597 51.7606 60.1197 52.1006 60.4297 52.2806C60.4297 52.0106 60.5797 51.6306 60.3397 51.4106Z" fill="#F6A1A7"/>
<path d="M39.7782 54.5606C39.7782 54.5606 39.8882 54.5306 39.9482 54.5806C40.4482 54.9906 40.3782 55.8406 39.8682 56.2106C39.1382 56.7306 38.1682 56.3606 37.4482 55.9706C37.3382 55.9106 37.3282 55.8006 37.2582 55.7706C37.1882 55.7406 37.0582 55.7906 37.0182 55.7706C37.0182 55.7706 37.0782 55.6706 37.0482 55.6206C36.9782 55.4706 36.7582 55.5106 36.6782 55.1306C36.4982 54.3306 36.9882 54.1406 37.6482 54.0306C38.3082 53.9206 39.0482 54.0506 39.6582 54.3706C39.7382 54.4106 39.7482 54.5306 39.7882 54.5606H39.7782ZM39.0982 55.4806C39.0382 54.8506 38.5282 54.9906 38.0582 54.9606C37.9982 55.6206 38.6782 55.2806 39.0982 55.4806Z" fill="#F6A1A7"/>
<path d="M61.0681 44.8894C61.5181 45.6594 61.6981 46.6394 61.8881 47.5594C61.6881 48.3194 61.1181 48.3194 60.5081 47.9294C60.1081 47.6694 59.4381 46.0594 59.3881 45.5594C59.3181 44.8794 59.4081 44.7094 59.8981 44.3594C60.0281 44.2694 59.9181 44.0894 60.2381 44.2594L60.3181 44.1094C60.3681 44.2994 60.7081 44.3594 60.7281 44.3794C60.7481 44.3994 61.0181 44.8194 61.0581 44.8994L61.0681 44.8894ZM60.8081 46.7094C60.7681 46.3294 60.6681 45.9394 60.5381 45.5894C60.5081 45.4994 60.4781 45.2994 60.3681 45.2994L60.4781 46.1894L60.8181 46.7094H60.8081Z" fill="#F6A1A7"/>
<path d="M57.6605 54.1002C58.1005 54.3102 58.5605 54.9402 58.6805 55.4202C58.7405 55.6702 58.6105 56.0502 58.4105 56.2002C58.3805 56.2202 57.7505 56.4802 57.7105 56.4902C57.0505 56.6402 56.0205 56.0502 55.6805 55.4902C55.5005 55.2002 55.5105 54.9502 55.5405 54.6202C55.5405 54.5702 55.8005 53.9902 55.8205 53.9602C56.0405 53.6402 57.3105 53.9302 57.6605 54.1002ZM57.0705 54.9802C57.0005 54.9602 56.7205 54.9802 56.7205 55.0702C56.8905 55.4402 57.2005 55.3402 57.5405 55.4802C57.5805 55.1602 57.3105 55.1602 57.1205 55.0802C57.0905 55.0702 57.0905 54.9902 57.0705 54.9802Z" fill="#F6A1A7"/>
</g>
<defs>
<clipPath id="clip0_3_11737">
<rect width="65.15" height="61.21" fill="white"/>
</clipPath>
</defs>
</svg>
