<svg width="82" height="70" viewBox="0 0 82 70" fill="none" xmlns="http://www.w3.org/2000/svg">
<g clip-path="url(#clip0_3_11716)">
<path d="M61.4092 19.5085C62.5392 18.7785 63.8592 19.5785 64.7992 20.2685C68.4392 22.9485 70.9292 26.4985 73.9492 29.7085C74.8492 30.6585 76.0192 31.5285 76.8492 32.5085C77.2992 33.0385 77.6492 33.6985 78.0992 34.2585C78.9292 35.2785 80.1892 36.3085 80.8992 37.3585C81.1092 37.6785 81.3392 38.0585 81.2992 38.4485C81.2292 39.0385 79.9092 40.6985 79.4492 41.2085C78.4592 42.3285 77.2092 43.2685 76.3192 44.4685C76.8892 45.6485 76.7092 46.7385 76.7892 47.9585C77.0792 52.1185 77.2492 56.2985 77.4892 60.4485C77.5992 62.4285 77.3192 63.3685 75.4592 64.2185C72.2392 65.6785 68.6092 66.8585 65.2992 68.1485C63.9092 68.6885 62.5892 69.6285 60.9692 69.3685C59.2792 69.0985 56.4092 67.6985 54.6492 67.0885C52.4992 66.3385 49.6792 65.6585 47.6692 64.7685C47.1892 64.5585 46.7692 64.2085 46.4592 63.7885C45.7992 62.9085 45.5592 59.7785 45.4092 58.5385C45.3592 58.1285 45.2192 55.5885 45.0992 55.4985C43.5092 56.5885 42.4792 58.0685 40.6292 58.7685C38.9092 59.4285 38.1492 59.1185 36.4492 58.9885C33.6892 58.7785 30.9092 58.6785 28.1692 58.3785C26.3492 58.1785 24.5792 58.0585 22.7492 57.8985C18.6292 57.5285 19.7792 54.6985 19.6092 51.6385C19.5892 51.2285 19.4292 50.8285 19.5092 50.3885C18.8592 50.2885 18.2492 50.5585 17.6292 50.6585C15.7892 50.9485 13.9392 51.1885 12.1092 51.5285C10.8992 51.7485 8.45916 52.5585 7.38916 52.4585C6.45916 52.3685 4.76916 50.7885 4.00916 50.1285C3.12916 49.3685 0.639161 47.2885 0.289161 46.3485C0.189161 46.0785 0.129161 45.8185 0.109161 45.5385C-0.120839 42.8785 0.269161 39.7785 0.219161 37.0385C0.189161 35.4885 -0.100839 33.5585 0.00916146 32.0385C0.149161 30.1885 1.72916 29.1885 3.47916 29.0085C4.61916 28.8885 5.73916 28.8385 6.87916 28.7085C9.03916 28.4685 11.2192 28.3285 13.3592 28.0985C14.6192 27.9585 16.2292 27.4685 17.4592 27.5985C18.6892 27.7285 19.5292 28.9485 20.4192 29.6385C20.9892 30.0885 21.7392 30.5985 22.3592 30.9985C22.4692 31.0685 23.0592 31.4485 23.1092 31.3985C23.1092 30.9885 23.1292 30.5685 23.1092 30.1485C23.0392 28.3985 22.8392 26.3985 23.0092 24.6485C23.1292 23.4485 23.9492 22.8585 24.8192 22.1585C25.8492 21.3285 27.0692 20.3385 28.3692 20.1085C30.3592 19.7685 32.3992 19.9485 34.4092 19.8985C34.4892 18.5885 35.0492 17.3585 35.3592 16.0985C36.5292 11.4585 37.6092 6.88849 39.2292 2.37849C39.4092 1.87849 39.6992 1.02849 39.9492 0.598493C40.2092 0.138493 40.5392 0.0484925 41.0492 -0.00150747C43.1692 -0.191507 45.6792 1.16849 47.7192 1.82849C50.9392 2.87849 53.9792 3.78849 57.1692 4.96849C59.9992 6.01849 61.3992 5.82849 62.7592 8.86849C64.4692 12.6885 62.2892 15.8385 61.3892 19.4885L61.4092 19.5085ZM61.9092 11.0185C62.1392 10.7785 61.1892 8.90849 60.9892 8.58849C60.0392 7.07849 58.0592 6.87849 56.4792 6.29849C52.9592 4.99849 49.4092 3.90849 45.8292 2.74849C44.8792 2.43849 43.9192 1.93849 42.9792 1.69849C42.0992 1.46849 41.3092 1.16849 41.7892 2.38849C42.3692 3.86849 42.7792 4.75849 44.2392 5.43849C47.2592 6.83849 49.7692 7.11849 52.7992 8.06849C53.7592 8.36849 54.6692 8.83849 55.6192 9.14849C57.6892 9.81849 59.7992 10.4685 61.8992 11.0185H61.9092ZM40.7092 3.01849C40.5392 2.85849 40.5392 3.06849 40.4992 3.15849C40.1392 3.93849 39.9992 4.96849 39.7392 5.79849C38.5592 9.54849 37.6592 12.9485 36.6892 16.7385C36.3692 17.9785 35.6592 19.2285 35.9692 20.5185C36.0292 20.7985 36.6592 22.3085 36.8692 22.3085C37.5492 20.5285 37.9292 18.6485 38.4892 16.8385C39.6192 13.2185 41.0092 9.66849 41.7992 5.93849C41.8392 5.41849 41.3792 4.79849 41.1692 4.31849C41.0792 4.09849 40.7992 3.09849 40.7192 3.01849H40.7092ZM61.9992 12.5185C61.5692 12.4685 61.1192 12.3985 60.6992 12.2685C57.2292 11.1985 53.6992 9.72849 50.2092 8.86849C49.2292 8.62849 48.1992 8.54849 47.2292 8.24849C45.7892 7.79849 44.4292 6.90849 43.0092 6.41849C42.7192 7.93849 42.2892 9.43849 41.8592 10.9185C40.6392 15.0885 38.8992 19.1485 38.2192 23.4485C38.3092 23.7085 39.6992 23.9285 40.0292 24.0385C42.4092 24.8185 44.7992 25.4385 47.1792 26.1785C48.3492 26.5385 49.5792 27.1285 50.7792 27.4785C51.6192 27.7185 52.4592 27.9085 53.3292 27.9885C54.9392 26.4785 56.3192 24.7785 57.7492 23.1085C58.3092 22.4485 59.4092 21.5185 59.7192 20.7785C60.0092 20.0785 60.1192 19.0685 60.3492 18.3085C60.5692 17.5885 62.2292 12.7585 61.9892 12.5185H61.9992ZM58.9492 34.7485C60.0092 33.6785 60.8092 32.6185 61.8092 31.5585C63.3692 29.9085 65.2092 28.3085 66.8092 26.6685C67.2392 26.2285 67.6192 25.6685 68.0992 25.2485C68.1292 25.0985 66.3192 23.3485 66.0492 23.1185C65.4092 22.5585 64.2692 21.6485 63.5792 21.1985C61.7292 19.9985 61.4692 21.1185 60.3592 22.3185C58.0492 24.8185 55.8692 27.4185 53.5592 29.9185C52.3092 31.2785 50.5592 32.4885 49.5892 34.0385C49.3992 34.3385 49.0692 34.6985 49.3292 35.0485C50.7392 36.7785 51.8892 38.7085 53.6592 40.1085C54.1192 39.7485 54.3292 39.1885 54.7092 38.7585C55.8592 37.4685 57.6592 36.0585 58.9492 34.7485ZM34.7992 21.4385C32.6692 21.2185 30.3392 21.0585 28.2392 21.5785C27.5392 21.7585 25.9692 22.9885 25.3792 23.5185C25.2892 23.5985 25.1592 23.6885 25.1292 23.8185C25.9192 23.5385 26.6292 23.8585 27.3792 23.9185C29.5192 24.0885 31.6292 24.2785 33.7792 24.4185C34.9892 24.4985 36.2092 24.6585 37.4292 24.7185C37.0292 24.1985 36.2792 24.0685 35.8492 23.5585C35.5392 23.1985 34.9692 21.5285 34.8092 21.4485L34.7992 21.4385ZM43.0092 33.2085C42.7692 31.7585 43.1292 30.2985 42.8992 28.8585L42.9592 26.7085C42.7992 26.4385 41.5192 26.3385 41.1592 26.3085C37.7792 26.0185 34.3392 26.0385 30.9692 25.7085C29.2392 25.5385 26.7892 24.9085 25.0792 25.1185C24.4292 25.1985 24.3692 25.3085 24.3092 25.9485C24.1292 28.1185 24.4092 31.1585 24.6092 33.3485C24.6292 33.5985 24.5992 33.8485 24.6092 34.0985C24.6892 34.2085 26.6192 32.6985 26.8492 32.5985C29.0392 31.5685 31.1092 32.0985 33.3492 32.2985C34.0492 32.3585 34.8292 32.3285 35.5492 32.3985C36.4592 32.4885 42.7392 33.4685 42.9992 33.1985L43.0092 33.2085ZM69.4692 26.4485C69.3692 26.3585 69.2492 26.2985 69.1392 26.2285C68.8892 26.1885 68.1192 27.2485 67.9092 27.4685C64.2392 31.2285 60.5992 35.0185 56.8092 38.6585C56.5492 38.9085 56.1692 39.0885 55.8992 39.3485C55.4492 39.8085 55.1592 40.4985 54.7192 40.9785C54.6092 41.3985 55.8292 42.2885 56.2592 42.3185C56.6592 42.3485 57.1392 42.1285 57.5492 42.1185C58.8792 42.0885 60.5992 42.4885 61.9592 42.6085C64.6092 42.8285 67.2992 42.9085 69.9592 43.1085C71.5892 43.2285 73.2292 43.4985 74.8592 43.6085C75.2392 43.5585 75.8992 42.9485 76.2092 42.6585C76.8992 41.9985 77.8292 41.0285 78.4592 40.3085C78.6292 40.1085 79.7692 38.7385 79.7892 38.6385C79.8192 38.5185 79.7892 38.4185 79.7592 38.3085C79.6192 37.7085 77.8492 36.0185 77.3492 35.4185C76.9392 34.9285 76.5992 34.3485 76.1992 33.8685C75.1092 32.5785 73.7792 31.5585 72.6492 30.3185C71.6092 29.1785 70.5592 27.4285 69.4692 26.4585V26.4485ZM52.2092 29.2085L44.3092 26.8085C44.4592 28.9785 43.9992 31.1685 44.3492 33.3085C44.5392 33.5685 47.6592 33.5785 48.1992 33.6585C49.2892 31.9185 50.9292 30.7585 52.1992 29.2085H52.2092ZM22.2192 32.4085C21.2892 31.9485 20.4092 31.3185 19.5892 30.6885C18.9492 30.1985 18.0192 29.0985 17.2792 29.0085C16.8492 28.9585 16.2392 29.0685 15.7892 29.1285C12.3992 29.5185 8.97916 30.0085 5.57916 30.3085C4.36916 30.4185 3.17916 30.1385 2.02916 30.8085C3.45916 31.7685 4.74916 32.9485 6.19916 33.8885C6.37916 34.0085 6.68916 34.2685 6.85916 34.3285C7.53916 34.5885 9.45916 33.9585 10.2992 33.8185C13.1792 33.3385 16.0892 33.0885 18.9792 32.9985C19.9992 32.9685 21.1492 32.6585 22.1792 32.5985L22.2292 32.3985L22.2192 32.4085ZM1.32916 32.0085C1.36916 33.5585 1.38916 35.1085 1.41916 36.6585C1.48916 39.6785 1.46916 42.6985 1.44916 45.7285C1.53916 46.1585 2.10916 46.6385 2.42916 46.9485C3.63916 48.1385 5.00916 49.1685 6.27916 50.2985C6.48916 50.1585 6.35916 50.1285 6.35916 50.0185C6.21916 46.2285 6.29916 42.4385 6.12916 38.6585C6.08916 37.8185 6.27916 36.4185 6.10916 35.6785C6.01916 35.2885 4.64916 34.4685 4.23916 34.1485C3.28916 33.3985 2.41916 32.5485 1.32916 32.0085ZM47.1092 34.9085C46.7592 34.8885 46.4092 34.9285 46.0592 34.9085C40.9592 34.5385 35.8592 33.6085 30.7592 33.3085C27.7792 33.1385 25.1392 35.2585 22.9192 37.0685C22.7992 37.1685 21.9592 37.7685 22.1092 37.9085C24.4992 37.9285 26.8792 38.2085 29.2592 38.4085C29.7492 38.4485 30.2692 38.3685 30.7592 38.4085C33.4292 38.6385 36.1592 39.2385 38.8492 39.2985C40.9292 38.1585 43.1092 37.1785 45.2092 36.0585C45.8392 35.7185 46.5392 35.3185 47.1092 34.9085ZM22.3992 33.9385C19.0392 34.2185 15.6192 34.4385 12.2892 34.9185C11.7092 34.9985 7.61916 35.6785 7.47916 35.8985C7.42916 36.8085 7.38916 37.7485 7.42916 38.6585C7.54916 41.3585 7.60916 44.0585 7.63916 46.7485C7.63916 47.4285 7.48916 50.7885 7.93916 51.0585L19.4892 48.9085C19.6192 46.8485 19.4092 44.8085 19.4292 42.7485C19.4292 42.5085 19.5292 42.2885 19.5392 42.0585C19.5592 41.0285 19.3992 39.5385 19.5592 38.5785C19.7992 37.1685 22.5492 35.8985 23.5292 34.9385C23.1992 34.2185 23.2892 33.8585 22.4192 33.9285L22.3992 33.9385ZM48.0092 36.2085C47.8692 36.1785 47.7592 36.2385 47.6392 36.2885C46.0092 36.8785 43.2492 38.4885 41.6092 39.3585C41.1792 39.5885 39.9892 40.1285 39.7192 40.3585C39.4592 40.5785 39.4092 40.9285 39.4092 41.2585C39.4192 45.5885 39.8392 49.9385 40.1192 54.2585C40.1892 55.2985 40.1792 56.3685 40.2192 57.4085C40.6392 57.8185 42.8192 55.6085 43.2192 55.2585C43.6092 54.9085 44.7292 54.1785 44.8792 53.7185C45.0392 53.1985 44.8392 52.7285 44.8292 52.2585C44.8092 51.8285 44.8592 51.3785 44.8292 50.9585C44.7292 49.7185 44.0592 47.4585 44.5692 46.3985C45.0492 45.4185 47.1692 45.3385 48.1092 44.8885L48.0192 36.2085H48.0092ZM54.5092 43.0085C54.7592 42.6685 51.8692 40.3485 51.5592 40.0085L49.4092 37.3085V44.4085C51.1692 44.1785 52.8392 43.5685 54.5092 43.0085ZM38.1192 40.6085L30.3692 39.7085C27.2092 39.7185 24.0892 39.1585 20.9192 39.2085C20.9992 39.6685 20.8392 40.1185 20.8192 40.5585C20.6392 44.0485 20.8492 47.6685 20.9292 51.1585C20.9492 52.1885 20.7092 55.4585 21.2692 56.1185C21.8992 56.8685 24.6692 56.6285 25.6692 56.7085C29.6892 57.0385 33.7392 57.6085 37.7692 57.9085C38.1492 57.9385 38.5392 57.8885 38.9192 57.9085L38.1192 40.6185V40.6085ZM73.2992 44.8985C73.0392 44.5385 72.3692 44.7385 71.9492 44.6985C68.4592 44.3685 64.9492 44.1885 61.4492 43.8985C59.5692 43.7485 57.8192 43.2085 55.9492 43.7985C54.8792 44.1385 53.7892 44.6985 52.6792 45.0285C50.8992 45.5585 48.9992 45.7685 47.3092 46.5485C48.9592 47.3885 50.9292 47.4485 52.7292 47.8285C54.9292 48.2985 57.4692 49.0885 59.6792 49.3685C61.0592 49.5485 62.4192 48.5985 63.6792 48.1185C65.2692 47.5185 66.9692 46.8385 68.5492 46.2885C70.1292 45.7385 71.7492 45.4385 73.2992 44.8885V44.8985ZM75.2892 45.6085C75.1592 45.5685 75.0292 45.6085 74.8992 45.6485C73.8692 45.9585 72.7592 46.4885 71.6792 46.8285C69.2592 47.5885 66.8492 48.3185 64.4792 49.2285C63.3892 49.6485 62.3492 50.1885 61.2492 50.5985L62.4992 67.8985L75.0892 62.9485C76.7792 62.2685 76.0492 60.4085 75.9892 59.0585C75.8092 54.9685 75.8192 50.8485 75.4892 46.7585C75.4792 46.5885 75.3292 45.6485 75.2792 45.6185L75.2892 45.6085ZM59.7892 50.7185L45.7092 47.6985C46.2192 51.2185 46.3092 54.7985 46.7192 58.3285C46.8592 59.5185 46.9992 61.0685 47.2292 62.2185C47.4192 63.1585 47.7192 63.3285 48.5792 63.6685C50.6792 64.4985 53.0992 65.1285 55.2592 65.8885C57.2292 66.5885 59.1592 67.4985 61.2092 67.9885L59.7892 50.7085V50.7185Z" fill="#F6A1A7"/>
<path d="M43.9882 15.7318C44.7382 15.5818 45.3882 16.4618 44.7682 17.0218C43.9482 17.7518 43.1782 16.2818 43.9882 15.7318Z" fill="#F6A1A7"/>
<path d="M47.7901 12.9405C47.9701 12.9005 48.1501 12.8905 48.3201 12.9705C48.6201 13.1205 48.5501 13.7505 48.4701 14.0205C47.5001 14.9905 46.6901 13.1805 47.7901 12.9405Z" fill="#F6A1A7"/>
<path d="M45.4584 10.7618C46.2184 10.7618 46.3684 11.8818 45.6584 12.0118C44.4084 12.2418 44.6784 10.7518 45.4584 10.7618Z" fill="#F6A1A7"/>
<path d="M31.3416 47.2786C30.7716 46.6686 31.7716 45.7286 32.3616 46.4086C32.9816 47.1286 31.9216 47.8986 31.3416 47.2786Z" fill="#F6A1A7"/>
<path d="M34.4911 44.0202C35.5111 43.8102 35.3811 45.3102 34.4711 45.3102C33.7311 45.3102 33.7611 44.1702 34.4911 44.0202Z" fill="#F6A1A7"/>
<path d="M34.9388 49.7809C34.5688 49.4109 35.3088 48.1009 35.9588 49.0109C36.4688 49.7109 35.4588 50.3009 34.9388 49.7809Z" fill="#F6A1A7"/>
<path d="M68.2789 61.2188C69.3489 61.0688 69.1589 62.3988 68.5489 62.4988C67.5489 62.6688 67.3589 61.3488 68.2789 61.2188Z" fill="#F6A1A7"/>
<path d="M66.7782 57.2213C67.6482 57.1513 67.7782 58.5513 66.9482 58.6013C66.1682 58.6513 65.9182 57.3013 66.7782 57.2213Z" fill="#F6A1A7"/>
<path d="M65.6816 61.1295C66.0616 61.5995 65.6716 62.2595 65.0716 62.1995C63.8316 62.0695 64.9316 60.2095 65.6816 61.1295Z" fill="#F6A1A7"/>
<path d="M67.0819 36.6297C67.9719 36.3697 68.3219 37.7697 67.5419 37.9997C66.6719 38.2497 66.2419 36.8797 67.0819 36.6297Z" fill="#F6A1A7"/>
<path d="M70.3288 35.2417C70.9288 34.6417 71.9088 35.5317 71.4088 36.1717C70.9188 36.8117 69.6688 35.8917 70.3288 35.2417Z" fill="#F6A1A7"/>
<path d="M67.5314 33.2812C67.1714 32.9112 67.6114 31.9012 68.2714 32.1812C69.4214 32.6612 68.1714 33.9512 67.5314 33.2812Z" fill="#F6A1A7"/>
<path d="M10.7008 45.9188C11.6908 45.6488 11.8708 47.7288 10.6508 47.2288C10.0008 46.9588 10.1508 46.0688 10.7008 45.9188Z" fill="#F6A1A7"/>
<path d="M13.3987 44.3294C14.4087 44.0294 14.6287 45.2194 13.8287 45.4694C12.9787 45.7294 12.7287 44.5294 13.3987 44.3294Z" fill="#F6A1A7"/>
<path d="M31.9804 29.539C33.3104 29.389 32.6404 31.479 31.7204 30.759C31.3404 30.459 31.4404 29.599 31.9804 29.539Z" fill="#F6A1A7"/>
<path d="M28.8414 28.9909C28.7914 28.7409 28.7814 28.1009 29.0214 27.9609C30.5614 27.5609 30.2614 29.8809 28.8414 28.9909Z" fill="#F6A1A7"/>
</g>
<defs>
<clipPath id="clip0_3_11716">
<rect width="81.3" height="69.42" fill="white"/>
</clipPath>
</defs>
</svg>
