<svg width="63" height="69" viewBox="0 0 63 69" fill="none" xmlns="http://www.w3.org/2000/svg">
<path d="M60.2612 0.13C60.2612 0.13 60.2612 0.02 60.3112 0C60.8812 0.01 61.9712 0.89 62.2312 1.37C62.5112 1.89 62.5612 2.6 62.3312 3.14C62.2712 3.28 62.2912 3.2 62.2112 3.44C62.1012 3.8 62.1312 4.03 61.6712 4.02L61.7512 4.18C61.6412 4.32 60.4012 4.23 60.3112 3.94L60.0212 4.01L60.1012 3.85C59.9512 3.68 59.5312 3.76 59.4912 3.75C59.4412 3.74 59.4612 3.62 59.4012 3.6C59.2512 3.56 58.9012 3.8 58.9612 3.51H58.8012V3.67L58.6812 3.5L58.6312 3.66C58.4412 3.6 57.9212 3.58 57.7312 3.62C57.3912 3.7 56.7412 4.06 56.4212 4.12C56.3112 4.14 56.1912 4.07 56.0812 4.08L56.1612 4.24C55.6712 4.46 55.1012 4.61 54.6312 4.85C53.5312 5.42 51.8212 6.66 50.8612 7.45C49.0112 8.97 46.8412 11.88 45.8212 14.1C45.5012 14.78 45.3412 15.52 45.0512 16.22L47.2612 17.14C47.9612 17.59 48.8412 18.18 49.4212 18.85C49.5512 19 49.5412 19.18 49.6412 19.3C49.7412 19.42 50.1212 19.7 50.1712 19.78C50.2512 19.9 50.1412 20.11 50.1712 20.13C50.2012 20.15 50.3612 20.08 50.4212 20.19C50.5512 20.42 50.7712 21.02 50.8612 21.3C51.0912 21.96 51.2812 23.01 51.4912 23.88L51.3212 23.96C51.3912 24.23 51.4612 25.51 51.4012 25.76C51.2912 26.26 50.8112 27.53 50.6212 28.05C50.4712 28.45 50.3912 28.93 50.0912 29.24C49.9912 29.34 49.7512 29.24 49.8412 29.4C49.9612 29.6 51.1012 29.6 51.2812 29.91C52.7112 30.37 54.1312 31.94 54.3212 33.39C54.3312 33.49 54.2312 33.54 54.2312 33.64C54.2512 34.18 54.2112 34.88 54.0712 35.4C54.0312 35.55 53.2112 36.94 53.0912 37.06C52.9812 37.17 52.8212 37.2 52.7112 37.3C52.8012 37.5 53.3012 37.4 53.4912 37.42C53.8012 37.46 54.1612 37.52 54.4712 37.59C55.0112 37.71 55.7012 38.07 56.1312 38.4C56.3912 38.6 56.3712 38.58 56.6012 38.73C56.8312 38.88 57.2512 39.55 57.3612 39.81C57.4612 40.04 57.6512 40.35 57.7012 40.51C57.7712 40.73 57.5212 41.22 57.8212 41.25L57.6612 41.3C57.7512 41.49 57.7112 41.88 57.6312 42.06C57.5812 42.18 57.4412 42.18 57.4212 42.21C57.4112 42.23 57.4612 42.45 57.3912 42.63C57.2912 42.88 56.6512 43.76 56.3312 43.68L56.4012 43.83L55.8412 44.25C56.4312 44.25 57.0412 44.35 57.6112 44.5C59.0612 44.89 60.8212 46.26 60.7212 47.92C61.1312 48.09 60.6412 48.07 60.7612 48.27L60.6212 48.29V48.45L60.7812 48.37C60.8612 48.58 60.6412 48.72 60.6412 48.74C60.3012 49.94 60.2912 50.08 59.3212 50.9C59.2612 50.95 59.1612 50.9 59.2212 51.09C59.3812 51.04 59.5812 51.06 59.7412 51.09C61.0012 51.39 62.7212 52.82 62.5212 54.26C62.7212 54.26 62.6712 54.95 62.6612 55.16C62.5912 56.12 62.0612 57.1 61.7712 58L61.6112 57.92C61.5312 58.3 61.3312 58.6 61.0812 58.87C60.9612 58.99 60.2412 59.82 60.1812 59.86C60.0612 59.94 59.8512 59.91 59.7312 59.99C59.6612 60.04 59.5912 60.24 59.4612 60.34C58.8712 60.81 58.1012 61.1 57.3812 61.45C56.7212 61.77 55.6912 62.17 54.8312 62.46C54.4812 62.58 54.5812 62.58 54.3912 62.66C54.2512 62.72 53.9812 62.46 54.0312 62.76L53.8712 62.6V62.75C53.8712 62.75 53.7012 62.7 53.6212 62.72C53.3512 62.8 52.2012 63.11 52.0212 63.11C51.8112 63.11 51.6412 62.86 51.4012 62.94L51.6512 63.1C51.2912 63.14 51.4112 63.44 51.3612 63.51C50.6612 64.62 48.1212 66.27 46.8512 66.75C45.7012 67.18 44.1612 67.68 42.9212 67.83C42.7112 67.85 41.5512 68.13 41.4812 68.11C41.4212 68.1 41.4812 67.9 41.2312 67.96C41.2012 67.96 41.2012 68.12 41.1412 68.13C40.4712 68.24 39.4612 68.07 38.7612 68.28L38.6912 68.12C38.4212 68.26 38.0112 68.29 37.7112 68.28C36.7812 68.23 35.7012 68.1 34.7312 67.96C34.5012 67.93 33.9112 68.03 33.9512 67.79L33.8312 67.96L32.6412 67.67C31.6212 67.6 30.7912 67.34 29.9512 67.13L29.7112 67.21C29.1912 66.93 28.3712 66.81 27.8312 66.7C27.7212 66.68 27.3212 66.51 27.2412 66.52C27.0312 66.53 26.8412 66.71 26.6112 66.76C24.2412 67.26 22.4512 67.34 20.1312 67.27C19.4812 67.25 18.8312 67.27 18.1812 67.27L17.9812 67.05L17.9312 67.22C17.5512 67.17 17.1512 66.94 16.7812 67.12C16.6412 66.79 15.7312 67.1 15.6712 66.72L15.5512 66.88C15.4312 66.74 15.2412 66.81 15.1312 66.78C13.4412 66.34 11.7512 65.84 10.0812 65.1C9.7312 64.94 9.0712 64.51 8.7312 64.38C8.6312 64.34 8.4812 64.41 8.3612 64.35C8.1212 64.23 8.2712 64 7.9412 64.15C7.6112 63.66 7.0012 63.52 6.5112 63.17C6.2012 62.95 6.3412 62.97 5.9512 62.79C5.6312 62.64 4.1012 61.12 3.7712 60.78C2.7512 59.73 2.0712 58.73 1.3612 57.43C0.741203 56.31 0.221203 54.45 0.0612034 53.01C-0.0787966 51.71 0.0312034 50.84 0.291203 49.57C0.331203 49.35 0.471203 48.69 0.681203 48.68C0.711203 48.63 0.541203 48.55 0.541203 48.48C0.541203 48.41 1.1012 47.27 1.2012 47.1C1.3912 46.74 1.7412 46.16 1.9712 45.82C2.4312 45.16 2.9712 44.72 3.5012 44.23C3.6212 44.12 4.0212 43.77 4.0512 43.68C3.9712 43.24 3.8412 42.74 3.8112 42.29C3.6812 40.51 4.2212 38.28 5.2312 36.79C6.3912 35.06 8.3312 33.71 10.2612 32.84C10.8012 32.6 11.2812 32.66 11.3512 31.92C11.3712 31.76 11.2612 31.56 11.3112 31.36C11.3312 31.26 11.3812 31.28 11.4312 30.93C11.8712 28.05 14.2012 25.49 16.6612 24.12C16.7512 24.07 16.8912 24.08 16.9912 23.98L17.0712 24.14C17.0912 23.78 17.3012 23.98 17.3812 23.95C17.3912 23.95 17.4012 23.84 17.4612 23.82C17.9012 23.63 18.3812 23.67 18.6712 23.32L18.7512 23.48C19.0212 23.2 20.1212 23.25 20.2412 22.99C20.2812 22.9 20.1212 22.75 20.1212 22.62C20.1212 22.49 20.2312 22.34 20.2412 22.21C20.3612 20.8 21.4712 18.66 22.1712 17.38C22.2712 17.2 22.6012 17.06 22.5012 16.65L22.6612 16.73C22.6612 16.62 22.6912 16.53 22.7412 16.44C24.0112 14.18 26.7512 11.76 28.9512 10.46C29.1812 10.32 29.1512 10.31 29.3312 10.19C29.7412 9.91 30.4912 9.29 30.8912 9.96C31.2612 10.58 30.8412 11.12 30.7012 11.71C30.6612 11.86 30.8712 12.09 30.5712 12.05L30.7312 12.17L30.4812 12.58C30.7112 12.67 30.5812 13.31 30.6012 13.6C30.6112 13.81 30.6712 14.02 30.7012 14.24C30.7312 14.48 30.5012 14.55 30.8912 14.72L30.7312 14.84H30.8812C30.8312 15.02 30.9012 15.37 30.9812 15.52C31.0712 15.68 31.3312 15.6 31.1412 16C31.4512 15.89 31.6112 16.61 31.8312 16.87C32.0412 17.11 32.0912 17 32.1112 17.01C32.2112 17.1 32.2312 17.38 32.2512 17.41C32.3112 17.48 32.4012 17.41 32.4312 17.43C32.5712 17.53 32.7212 17.78 33.0112 17.72C33.1612 17.47 33.5212 17.13 33.7612 16.94C35.3812 15.64 37.8612 14.58 39.9812 14.78C40.2112 14.8 40.4912 14.82 40.6412 15.01L40.7212 14.85L41.1312 15.1L41.2112 14.94C41.4812 15.16 42.0212 15.17 42.3412 15.27C42.4212 15.3 42.4112 15.41 42.5012 15.45C42.6212 15.5 43.2512 15.79 43.3012 15.75C43.4112 15.46 43.5812 15.1 43.7212 14.83C43.7412 14.78 43.8412 14.61 43.8412 14.6C44.5712 13.52 45.4112 11.9 46.2612 10.63C46.3212 10.55 46.4812 10.54 46.4212 10.32L46.5812 10.4C46.8612 9.61 47.8812 9.04 48.0712 8.18L48.2212 8.25C48.4212 7.92 48.6812 7.41 49.0612 7.31C49.3312 6.64 50.0012 6.22 50.3912 5.64L50.5412 5.71C50.5012 5.38 50.7812 5.34 50.9312 5.19C52.7412 3.31 57.1912 0.15 59.7512 0.03C59.9612 0.03 60.1112 0.2 60.2512 0.13H60.2612ZM55.9912 2.71C55.8112 2.7 55.3512 2.97 55.2512 3.08C55.0812 3.27 55.2812 3.45 54.7512 3.37C54.8012 3.44 54.7812 3.67 54.7512 3.7C54.5712 3.86 54.6212 3.49 54.5012 3.54C54.5512 3.74 53.2912 4.2 53.5112 4.45C54.2212 4.08 54.8712 3.58 55.6512 3.38L55.2412 3.26L55.9812 2.72L55.9912 2.71ZM27.0712 18.18C27.0712 18.18 26.9912 17.95 27.0012 17.82C27.0312 16.92 27.2912 15.18 27.5612 14.34C27.7612 13.71 28.2412 13.15 28.3312 12.51C27.9312 12.84 27.5412 13.18 27.1312 13.5C26.7212 13.82 26.3712 14.03 25.9712 14.43C25.0312 15.38 23.4912 17.31 23.0312 18.44C22.8812 18.82 22.7212 19.13 22.5712 19.47C21.1312 22.64 21.2812 24.93 22.8612 28.07C23.4012 29.14 24.1012 29.88 24.8212 30.8C24.9112 30.92 25.0112 31.06 25.0312 31.2L25.1912 31.04C25.1812 31.45 25.4912 31.37 25.5112 31.38C25.5812 31.45 25.5412 31.7 25.7512 31.71L25.6912 31.86C26.0912 31.85 26.1912 32.19 26.4512 32.38C29.9812 35 34.2712 36.48 38.5112 37.35C40.4912 37.76 42.8512 38.02 45.0012 38.12C45.2612 38.13 45.4912 37.97 45.7412 38.2L45.8112 38.04C46.1612 38.16 46.4912 38.26 46.8012 38.04L46.8812 38.21C47.6812 37.93 48.5412 38.05 49.3512 37.8C51.3812 37.18 52.8612 36.21 53.1012 33.89C52.8412 33.82 53.0412 33.61 52.9712 33.35C52.8412 32.85 52.4712 32.26 52.1112 31.91C51.3012 31.13 50.3912 30.87 49.4012 30.68C48.7812 30.56 48.7712 30.93 48.3712 31.26C47.6012 31.9 46.6912 32.48 45.7512 32.89C43.4612 33.87 40.1012 33.98 37.6712 33.24C37.2312 33.11 36.6812 32.77 36.2912 32.66C36.1912 32.63 36.0712 32.71 36.0412 32.69L36.1212 32.53C35.5212 32.51 35.1412 32.07 34.6812 31.79C34.2412 31.51 33.9412 31.37 33.5212 31.02C33.2912 30.83 33.1012 30.38 32.8312 30.56L32.9112 30.31C32.6012 30.39 32.4612 29.87 32.3112 29.68C31.6712 28.89 30.9912 28.03 30.7112 27.22C30.5112 26.62 30.3012 25.84 30.2312 25.14C30.2212 25.02 30.2912 24.64 30.2812 24.62C30.2812 24.62 30.1812 24.68 30.1212 24.65C29.1512 24.16 27.6412 21.54 27.3412 20.52C27.1512 19.88 26.8712 18.63 27.0512 18.18H27.0712ZM30.5112 17.16C29.7412 16.08 29.2512 14.68 29.2712 13.33C29.0312 13.47 29.2412 13.74 29.2112 13.81C28.9112 14.61 28.6112 14.91 28.5512 15.82C28.5412 16.02 28.3912 16.19 28.3712 16.34C28.3012 16.87 28.1812 17.81 28.1712 18.32C28.1712 18.36 28.3012 18.34 28.3112 18.39C28.3312 18.48 28.2512 18.89 28.2712 19.04C28.4212 20.06 28.8912 21.17 29.4512 22.04C29.5412 22.18 30.0712 22.92 30.1712 22.97C30.3312 23.05 30.2812 22.84 30.2912 22.76C30.4012 21.67 31.0512 20.43 31.6012 19.54C31.7412 19.31 31.8312 19.02 32.0212 18.81C31.6912 18.53 31.2812 18.19 31.0112 17.86C30.8612 17.68 30.6412 17.35 30.5012 17.16H30.5112ZM37.3112 18.33C37.3112 18.33 37.3012 18.23 37.3012 18.19H37.2212C37.2612 18.43 37.0412 18.31 36.9112 18.38C36.8712 18.4 36.7012 18.64 36.6312 18.71C36.5412 18.8 36.3212 18.71 36.3912 19.01L36.2412 18.95C36.0812 19.15 35.7712 19.51 35.5612 19.63C35.4512 19.69 35.2912 19.65 35.2412 19.68C35.2212 19.69 35.2912 19.91 35.0412 20.14C34.9412 20.24 34.7112 20.3 34.6712 20.35C34.6612 20.37 34.7312 20.44 34.7112 20.48C34.7012 20.5 34.5912 20.5 34.5812 20.55C34.5612 20.61 34.4512 21.31 34.4512 21.36C34.4512 21.53 34.5812 21.74 34.5812 21.85C34.5812 21.91 34.3512 21.86 34.4112 22.02C34.4612 22.14 34.8312 22.11 34.9712 22.25C35.0712 22.35 34.9612 22.55 35.1112 22.64L35.1912 22.47H35.4012L35.3212 22.72C35.8312 22.64 36.3412 22.19 36.6412 21.77C36.7312 21.64 36.7212 21.39 36.9312 21.23C37.0112 21.16 37.1212 21.24 37.1312 21.23C37.2212 21.12 37.1312 20.68 37.1712 20.6C37.1812 20.57 37.4112 20.44 37.4412 20.39C37.6012 20.11 38.1312 19.04 38.3112 18.87C38.3712 18.81 38.6012 18.9 38.6212 18.52C38.2912 18.54 38.0312 18.43 37.7412 18.38C37.6612 18.37 37.3312 18.35 37.3112 18.33ZM19.9312 24.69C19.1012 24.61 18.2812 24.91 17.5412 25.23L17.7412 25.27L17.6512 25.43L17.2912 25.27V25.52L16.8412 25.44L16.8012 25.69C16.4012 25.51 16.6412 25.72 16.5412 25.84C16.5012 25.88 16.0812 25.97 15.9612 26.03C14.7912 26.65 13.4512 28.74 13.0912 29.93C11.8912 33.83 13.0812 36.82 15.8412 39.67L17.2012 40.61L17.1312 40.76L17.4612 40.68L17.3812 40.84C17.6712 40.95 18.0012 41.08 18.2712 41.23C19.0112 41.61 20.5012 42.39 21.2912 42.49C21.7212 42.54 22.2812 42.49 22.7212 42.61C22.8712 42.65 23.6512 42.92 23.6912 43C23.8112 43.21 23.5312 43.61 23.3112 43.7C23.1212 43.78 22.2512 43.94 22.0012 43.96C21.3412 44.02 20.7112 43.9 20.0812 43.72L20.7412 43.64C20.2812 43.61 19.7912 43.26 19.3412 43.39V43.14L18.9312 43.22L19.0112 42.97C18.9212 42.97 18.8212 42.99 18.7412 42.97C18.6312 42.94 18.7412 42.77 18.6012 42.8L18.5512 43.13C18.8612 43.32 19.2912 44.12 19.5212 44.26C19.8312 44.45 19.8912 44.48 20.2012 44.77C21.5412 46.04 23.4212 46.98 25.0712 47.72C25.4312 47.88 25.8112 48.15 26.2512 48.15L26.1712 48.31C26.7012 48.23 27.0912 48.6 27.5612 48.78C28.7212 49.21 29.7012 49.53 30.7612 49.87C31.2412 50.02 31.8112 50.07 32.2212 50.21C34.4512 50.95 36.4012 51.47 38.5812 51.99C39.2512 52.15 39.9112 52.48 40.5812 52.43L40.5012 52.59C40.7412 52.5 40.9012 52.54 41.1412 52.63C42.1712 53.02 45.7712 53.4 47.0412 53.39C47.3612 53.39 47.4812 53.15 47.7112 53.43C48.4412 53 49.3712 53.27 50.1012 53.07C50.1412 53.06 50.1312 52.93 50.1912 52.92C50.3012 52.91 50.9712 53.05 51.0512 53.01L50.9712 52.85H51.3012L51.2212 53.01C51.4312 53.09 51.3512 52.87 51.4412 52.84C51.5912 52.8 51.9812 53.02 52.0412 52.76L51.7112 52.68C51.9112 52.7 52.1812 52.58 52.2212 52.82L52.3712 52.76C52.6412 54.05 52.0212 54.04 51.0112 54.4H50.9312L50.8512 54.24L50.8112 54.49L50.6912 54.33C50.3712 54.56 49.9112 54.47 49.5412 54.5C49.4012 54.51 49.3012 54.62 49.2012 54.63C48.9812 54.63 48.8612 54.36 48.6212 54.74L48.5412 54.57L48.4612 54.73C47.9312 54.55 47.2612 54.81 46.7212 54.82C46.4512 54.82 46.1112 54.61 45.8112 54.82C44.9512 54.52 43.7012 54.56 42.6812 54.38C42.1212 54.28 41.4312 53.92 40.8912 54.03C40.8212 54.04 40.2512 54.34 40.2112 54.42L39.9312 54.34L40.0112 54.5C39.6612 54.47 39.3412 54.72 39.0412 54.81C38.9212 54.85 38.8012 54.77 38.6912 54.8C38.2012 54.95 37.5712 55.31 37.0612 55.39C36.8612 55.42 36.7312 55.32 36.5512 55.32L36.6312 55.48C36.1312 55.28 35.5812 55.77 35.1012 55.57C35.0412 55.69 35.1012 55.77 34.9012 55.73L34.8612 55.57H34.7412C34.7612 55.88 34.4812 55.67 34.3012 55.68C33.9512 55.71 33.1512 55.95 32.9712 55.65L32.5612 55.82L32.6012 55.65C32.3312 55.57 32.3612 55.8 32.3012 55.81C32.2612 55.81 31.6012 55.81 31.5712 55.8C31.5212 55.8 31.5412 55.66 31.4812 55.65C31.1812 55.6 30.6012 55.87 30.3012 55.57L30.2612 55.73C29.9512 55.65 29.7212 55.39 29.4012 55.55C29.4012 55.23 29.3012 55.55 29.1112 55.56C28.9412 55.56 28.7312 55.4 28.5712 55.36C28.1912 55.28 27.3612 55.21 27.1912 55.13C27.1812 55.13 27.1912 55 27.1212 54.98C26.9312 54.93 26.7412 55.08 26.6512 55.07C26.5812 55.07 26.5912 54.91 26.4812 54.85C26.1212 54.64 25.0412 54.59 24.7512 54.25L24.5612 54.31L24.5412 54.16H24.3812L24.3412 54.32C24.0112 53.77 23.3112 53.92 22.9012 53.7C22.7612 53.63 22.7612 53.44 22.7312 53.42C22.6712 53.38 22.4912 53.51 22.3812 53.5C22.3612 53.5 22.2812 53.21 22.0012 53.33C22.0312 53.58 22.3712 53.79 22.4312 53.93C22.4712 54.01 22.4212 54.12 22.4412 54.18C22.6412 54.71 24.8212 56.57 25.3512 56.95C25.4712 57.03 25.6412 57.07 25.7412 57.2L26.1912 57.36L26.1112 57.52C26.4912 57.42 26.6812 57.78 26.8712 57.9C27.4412 58.24 28.2812 58.58 28.9712 58.9C30.2512 59.5 31.8112 59.91 32.9212 60.3C33.1512 60.38 33.2312 60.54 33.5212 60.4L33.4412 60.56C33.9812 60.51 34.5512 60.79 35.1112 60.92C35.4512 61 35.9712 61.14 36.2812 61.2C36.8812 61.31 37.5612 61.28 38.1412 61.42C38.2812 61.45 38.3912 61.56 38.5112 61.63L38.6312 61.47C38.8312 61.65 38.9112 61.62 39.1612 61.55L39.1212 61.72L39.4112 61.57L39.6612 61.78C40.0312 61.45 39.9012 61.78 40.0712 61.85C40.1812 61.9 40.4912 61.9 40.4912 61.71C41.0612 61.95 41.7612 61.96 42.3812 61.88L42.4312 62.12C42.6212 62.13 42.6712 61.95 42.8812 61.95C43.0912 61.95 43.2312 62.18 43.4512 62.13C43.5112 62.12 43.4912 61.97 43.5512 61.97C43.7412 61.95 45.5812 62.04 45.8012 62.08C45.9112 62.1 46.0112 62.23 46.0512 62.21C46.0612 62.21 46.0312 62.09 46.0912 62.06C46.1812 62.02 47.8312 62.04 48.0712 62.05C48.1712 62.05 48.2612 62.09 48.3512 62.12L48.4012 61.96L48.5212 62.21C48.5412 62.08 48.4312 61.98 48.6112 62C48.7912 62.02 48.9812 62 49.1712 62.02C49.7412 62.06 49.3712 62.02 49.5712 61.96C49.9612 61.87 50.5212 62.16 50.9612 61.8L51.1612 61.96L51.1212 61.8C51.3312 61.68 51.6812 61.86 51.7712 61.85C51.9112 61.85 52.4212 61.59 52.6912 61.56C53.0112 61.52 52.9512 61.54 53.1812 61.48C53.3412 61.44 53.7212 61.51 54.0012 61.41C54.1212 61.37 54.1212 61.23 54.1612 61.23C54.2512 61.23 54.3612 61.33 54.4712 61.32C54.5212 61.32 54.5212 61.19 54.5912 61.15C54.7512 61.07 54.9412 61.15 55.1112 61.11C55.3212 61.05 56.2112 60.65 56.5812 60.52C56.8412 60.43 57.1712 60.1 57.4512 59.99L57.5312 60.16C57.8212 59.67 58.3412 59.63 58.7212 59.37C58.9812 59.2 59.2212 58.84 59.4212 58.67C60.1512 58.07 60.8412 57.32 61.1512 56.45C61.1812 56.37 61.1412 56.26 61.1512 56.2C61.2012 56.04 61.3912 55.96 61.2712 55.76L61.4312 55.8C61.2312 55.36 61.4912 54.88 61.4312 54.45C61.3912 54.15 61.1512 53.89 61.2712 53.57L61.1112 53.65L60.9812 53.15C60.6512 53.04 60.4012 52.81 60.1212 52.62C60.0712 52.58 60.0512 52.46 60.0112 52.44C59.9612 52.4 58.8812 52.26 58.7012 52.21C58.4812 52.16 58.2712 51.92 57.9712 52.01C58.1912 52.45 57.5312 51.93 57.4412 51.92C57.3612 52.13 57.1112 52.25 56.9012 52.29C56.5612 52.34 56.4612 52.37 56.0712 52.46C55.6812 52.55 55.5112 52.37 55.3712 52.37C55.2812 52.37 55.1412 52.62 54.9012 52.58C54.6612 52.54 54.5712 52.26 54.4912 52.2C54.4712 52.18 54.3812 52.26 54.3612 52.25C54.1512 52.1 54.0612 51.43 54.2712 51.21C54.8012 51.21 55.3612 51.34 55.8712 51.12L55.9412 51.28L56.0612 51.03L56.1812 51.19C56.6112 50.86 57.2812 50.85 57.7212 50.69C57.8012 50.66 58.6712 50.01 58.7412 49.93C59.2512 49.37 59.6712 48.46 59.4912 47.72C59.4612 47.62 59.1912 46.88 59.1612 46.85C59.1212 46.82 59.0012 46.85 58.9612 46.81C58.9212 46.77 58.9612 46.65 58.8812 46.58C58.5512 46.26 58.0112 45.94 57.5912 45.74C57.4812 45.69 57.3412 45.83 57.3712 45.6L57.2512 45.76C56.9512 45.53 56.2612 45.38 55.8812 45.32C55.2712 45.24 54.7012 45.29 54.0912 45.27L54.0412 45.42L53.8812 45.25C53.5112 45.25 53.3912 45.54 53.3312 45.57C53.2912 45.59 53.1812 45.52 53.1012 45.55C52.9112 45.63 52.7312 45.73 52.5612 45.84C52.5012 45.55 52.2112 45.69 52.1912 45.92L52.0712 45.76C51.7812 46.02 51.6112 45.91 51.3312 45.97C50.7212 46.1 50.6812 46.06 50.1112 46.1C49.8312 46.12 49.7712 46.33 49.7512 46.33C48.8112 46.36 47.0512 46.6 46.2212 46.45C46.1312 46.44 46.0612 46.3 46.0212 46.33C45.9912 46.35 46.1012 46.53 45.6512 46.48C45.0312 46.42 44.1612 46.22 43.5112 46.12C42.7212 46.01 41.3112 45.93 40.6412 45.74C40.5712 45.72 40.5912 45.58 40.5412 45.58C40.4612 45.58 40.3412 45.68 40.2312 45.67C40.1912 45.67 39.8212 45.35 39.5612 45.37C39.4912 45.37 39.4012 45.52 39.2312 45.51C39.1412 45.51 39.2512 45.31 39.1112 45.34L39.0712 45.5C38.9012 45.46 38.8412 45.23 38.7312 45.19C38.6512 45.16 38.4112 45.23 38.2812 45.21C37.7112 45.09 37.0112 44.91 36.4612 44.74C36.3512 44.71 36.2912 44.58 36.1912 44.55C36.0212 44.49 35.8412 44.77 35.7012 44.35L35.5812 44.51C35.6012 44.26 35.0812 44.35 34.8812 44.27C34.6112 44.16 34.5812 43.9 34.1812 44.1L34.2612 43.94C34.1912 43.87 33.6512 43.85 33.5412 43.8C32.9612 43.56 32.4012 43.42 31.8612 43.05C31.8412 43.04 31.4812 43.09 31.3812 43.03L31.4612 42.87C31.1512 43.03 31.2512 42.82 31.1612 42.8C31.0212 42.76 30.7312 42.8 30.6012 42.79C30.5712 42.79 30.4712 42.5 30.1812 42.63L30.2212 42.47L29.8912 42.55L29.8412 42.31C29.5012 42.36 29.0112 42.1 28.6512 41.94C27.9312 41.62 27.3712 41.27 26.6712 40.94C26.3912 40.81 26.0312 40.53 25.9912 40.51C25.9512 40.49 25.8412 40.57 25.7612 40.53C25.5712 40.46 25.4512 40.25 25.1812 40.32L25.2612 40.16C24.9412 40.31 25.0212 40.1 24.9012 40.02C24.3512 39.67 23.7112 39.44 23.2112 39.11C21.7812 38.19 20.4212 36.86 19.4212 35.57C18.8412 34.83 18.5112 34.02 18.0512 33.19C18.0012 33.11 18.0712 32.71 17.7812 32.74L17.9412 32.58C17.5112 32.53 17.7712 32.2 17.7512 31.97C17.7412 31.83 17.5712 31.59 17.5312 31.38C17.4912 31.11 17.6212 30.43 17.3612 30.44V30.28C17.6512 30.31 17.4512 30.11 17.4412 29.91C17.3712 28.45 18.1512 26.85 19.1212 25.83C19.3012 25.64 19.8412 25.33 19.9612 25.09C20.0312 24.94 19.8012 24.83 19.9112 24.68L19.9312 24.69ZM20.5012 26.09C20.2512 26.03 20.3812 26.27 20.2212 26.43C20.0412 26.61 19.6712 26.85 19.4912 27.17C19.0212 27.96 18.9512 28.5 18.7712 29.34C18.7012 29.67 18.4412 29.81 18.7012 30.17L18.5412 30.32C18.8212 30.91 18.8312 31.66 19.0112 32.32C19.0812 32.58 19.3012 32.83 19.4312 33.08C20.4112 35.02 21.8212 36.56 23.6912 37.82C24.0412 38.06 24.4312 38.4 24.7712 38.62C24.8112 38.65 25.2512 38.76 25.3512 38.81C25.7512 39.03 25.9212 39.16 26.3312 39.33C26.6512 39.46 27.1812 39.85 27.5412 40.02C28.7412 40.61 29.9812 41.07 31.2612 41.51C32.7512 42.26 34.2912 42.67 35.8312 43.18C35.9212 43.21 36.0012 43.33 36.0812 43.35C36.2012 43.38 36.2812 43.18 36.3312 43.22C36.3312 43.22 36.3112 43.33 36.3912 43.39C36.4212 43.41 37.0512 43.59 37.1412 43.61C37.7912 43.77 38.2812 43.91 38.8412 44.1C39.6012 44.36 41.1812 44.57 42.0712 44.75C42.6512 44.87 43.4412 44.89 44.0212 44.94C44.2512 44.96 44.3112 45.2 44.5612 44.94L44.6112 45.1C45.1112 44.96 45.9812 45.29 46.4112 45.27C46.4612 45.27 46.4712 45.11 46.5012 45.1C46.7412 45.04 46.6912 45.25 46.7412 45.25C46.9012 45.27 47.2412 45.17 47.4412 45.26L47.4012 45.1L49.1712 45.18L49.0912 45.02C49.5512 45.17 49.8412 44.95 50.2212 44.88C51.9112 44.57 53.8212 44.23 55.2312 43.26C55.8912 42.8 56.4612 42.13 56.4612 41.26C56.4612 40.94 56.1712 40.13 55.9712 39.94C55.9312 39.9 55.8112 39.94 55.7412 39.87C55.5312 39.62 55.4212 39.14 54.9212 39.26V39.05C54.6912 39.12 54.5612 38.84 54.5412 38.84C54.2812 38.82 54.0812 38.83 53.7612 38.8C53.5212 38.78 53.2812 38.66 53.1512 38.65C51.9312 38.53 50.7012 39.01 49.4512 39.02C49.4012 39.02 49.4112 39.16 49.3412 39.18C49.1612 39.24 48.8112 39.26 48.6212 39.19L48.5012 39.35L48.4612 39.18L48.0512 39.35L47.9712 39.18C47.7012 39.3 47.1312 39.6 46.9812 39.27L46.3212 39.51L46.2812 39.36H46.1212L46.0412 39.52C46.0712 39.18 45.8612 39.46 45.7212 39.47C45.6412 39.48 45.0612 39.53 45.0312 39.52C44.9912 39.52 44.9112 39.23 44.6412 39.36L44.8012 39.52C44.6512 39.47 44.4812 39.52 44.3412 39.5C44.0412 39.46 43.8812 39.27 43.8512 39.27C43.7812 39.27 43.6712 39.39 43.5112 39.39C43.2712 39.39 42.7212 39.35 42.5212 39.18C42.4312 39.53 42.3212 39.23 42.1812 39.21C41.7712 39.15 41.1212 39.16 40.7212 39.11C40.6112 39.1 40.5312 39.02 40.4712 38.94L40.3112 39.11C40.1912 39.09 40.0812 38.99 39.9612 38.97C39.5412 38.9 39.4412 38.86 39.0712 38.86C38.3612 38.86 38.0912 38.53 37.7612 38.48C37.5112 38.45 36.8012 38.62 36.7312 38.2H36.6512C36.7912 38.44 36.2712 38.3 36.1712 38.26C36.1412 38.24 36.1312 38.09 36.0212 38.05C35.9812 38.04 35.3512 38.06 35.1512 38.01C34.5212 37.84 34.4612 37.72 33.7512 37.61C33.3412 37.54 32.9812 37.02 32.5312 37.21L32.6112 37.05C32.4412 37.01 32.1812 37.02 32.2012 36.8L32.0412 36.96C32.0812 36.76 31.7012 36.78 31.5212 36.69C31.4012 36.63 31.4012 36.51 31.3612 36.48C31.3112 36.44 30.8012 36.61 30.8012 36.22L30.6412 36.38C30.6812 36.1 30.2812 36.44 30.2212 35.97L29.9012 36.05L29.9412 35.88C29.7512 36 29.6412 35.95 29.7312 35.72C29.6212 35.7 29.5012 35.72 29.4012 35.68C28.6012 35.33 27.6112 34.75 26.8812 34.29C26.6712 34.16 26.5312 34.06 26.3512 33.95C26.1912 33.85 25.6312 33.48 25.5212 33.38C25.4412 33.3 25.5412 33.18 25.5212 33.18C25.4812 33.16 25.3312 33.21 25.2112 33.16C25.1612 33.14 24.5912 32.54 24.5312 32.48C23.8312 31.82 23.3812 31.26 22.8012 30.5C22.7412 30.42 22.5912 30.4 22.5712 30.37C22.5612 30.35 22.6512 30.18 22.5712 30.03C22.5212 29.94 22.3312 29.9 22.2312 29.77C21.4712 28.77 21.0412 27.47 20.5312 26.37C20.5012 26.3 20.5112 26.19 20.5112 26.11L20.5012 26.09ZM11.3612 34.08C11.1312 34.21 10.8412 34.19 10.6012 34.27C10.4312 34.32 9.1112 34.82 9.0512 34.87C8.9812 34.93 9.0712 35.02 9.0112 35.08C8.8812 35.2 8.6012 35.24 8.4612 35.33C7.4812 35.95 6.7612 36.8 6.1512 37.78C6.1212 37.83 5.9612 37.83 5.9412 37.93C5.9212 38.01 6.0412 38.14 6.0012 38.2C5.9812 38.23 5.8412 38.23 5.7712 38.35C5.7412 38.4 5.4812 39.06 5.4412 39.17C5.0812 40.26 5.1412 41.42 5.0112 42.54L5.1812 42.42C5.0412 43.09 5.4112 43.57 5.3512 44.23L5.5112 44.15C5.6012 44.28 5.5212 44.59 5.5612 44.65C6.2912 45.86 7.0312 47.22 8.1812 48.23C9.2712 49.19 11.8012 50.81 13.2212 50.74L13.2912 50.89L13.5312 50.81C13.6112 51.14 14.3312 51.21 14.4012 51.44C14.5112 51.79 13.7712 51.8 13.6212 52.05L13.3912 51.89C13.0812 52.02 13.2812 52.2 12.9112 52.04C12.8412 52.01 12.8412 51.9 12.8112 51.9C12.5112 51.9 12.2712 52.13 11.9812 51.74L11.6512 51.89L11.5212 51.64L11.4012 51.8C11.2912 51.52 10.5912 51.49 10.5512 51.46C10.5112 51.43 10.5512 51.24 10.4612 51.18C10.3712 51.11 10.0712 51.16 9.8912 51.09C9.5912 50.97 9.2412 50.51 8.9412 50.39C8.7812 50.32 8.5912 50.35 8.4712 50.28C8.3812 50.23 7.9312 49.66 7.8112 49.56C7.7212 49.48 7.6712 49.5 7.5612 49.5C7.6212 50.11 7.3012 50.62 7.4812 51.23L7.3212 51.07V51.4L7.4812 51.32C7.4812 51.65 7.5012 52.28 7.5812 52.58C7.6012 52.65 7.6912 52.75 7.7312 52.72L7.8112 52.56C7.7612 52.88 7.8112 53.61 8.2212 53.55L8.0612 53.8C8.3912 53.92 8.6612 54.53 8.5512 54.87L8.8012 54.79C9.0512 55.47 9.6012 55.92 9.9712 56.5C10.9512 57.36 12.1412 58.57 13.3812 59.38C13.5712 59.5 14.6812 60 14.7212 60.06L14.6412 60.22C14.9612 60.03 14.9012 60.33 15.0812 60.44C15.5112 60.69 16.3012 60.96 16.7812 61.19C18.5412 62.01 20.5512 62.96 22.4612 63.65C22.7712 63.76 23.4412 63.82 23.8012 64.02C23.9012 64.08 23.9112 64.24 23.9912 64.26C24.0712 64.28 24.2012 64.18 24.3012 64.18C24.3512 64.18 24.9712 64.49 25.2312 64.58C26.8612 65.13 28.4612 65.81 30.0812 66C30.2812 66.24 31.0412 66.19 31.3912 66.34C31.4612 66.37 31.4212 66.47 31.4312 66.48C31.6212 66.59 31.5612 66.2 31.8412 66.32V66.57C31.9812 66.51 32.3112 66.47 32.4512 66.49C32.8512 66.57 33.5512 66.61 34.0112 66.74C34.0812 66.76 34.0412 66.9 34.1912 66.9C34.5912 66.92 35.0312 66.79 35.4112 66.9C35.8212 67.02 36.2912 67.06 36.8212 66.97L36.9112 67.13C38.3212 67.09 39.7712 66.96 41.2012 66.89C41.3612 66.89 41.6312 66.98 41.6512 66.97C41.6812 66.95 41.6812 66.78 41.7912 66.74C41.9412 66.69 42.1112 66.8 42.2612 66.79C43.8312 66.67 46.6812 65.64 47.9412 64.85C48.2612 64.65 48.6012 64.32 48.9612 64.04C49.1912 63.85 49.6312 63.79 49.6512 63.37C49.4112 63.49 49.1312 63.35 48.9512 63.37C48.8312 63.38 48.7012 63.51 48.4612 63.54C48.2912 63.56 48.0912 63.52 47.9212 63.54L48.0812 63.38C47.8412 63.28 47.8412 63.53 47.7812 63.54C47.6812 63.56 47.4012 63.56 47.2912 63.54C47.1012 63.51 47.2512 63.31 47.0112 63.37L47.0512 63.53C46.6512 63.53 46.3612 63.45 45.9812 63.61L46.1012 63.44L45.5212 63.52L45.6012 63.36C45.4912 63.42 45.3212 63.35 45.2412 63.36C45.1812 63.37 45.1512 63.51 44.7512 63.49C44.4512 63.47 44.0312 63.32 43.8212 63.27C43.6712 63.24 43.2012 63.3 43.0912 63.43L43.0212 63.27C41.8212 63.37 40.5812 63.02 39.3912 62.89C39.1412 62.86 38.6612 62.95 38.4212 62.92C38.1912 62.89 38.3512 62.79 37.8412 62.75C37.2212 62.69 36.6312 62.49 35.9712 62.53L36.0512 62.37C35.8112 62.35 35.5212 62.41 35.3512 62.21L35.2312 62.37L35.1912 62.12L35.0712 62.28C35.1112 62.02 34.8512 62.2 34.6912 62.17C34.2812 62.1 33.2912 61.83 32.9412 61.66C32.7212 61.55 32.6912 61.33 32.3212 61.55L32.2412 61.39C31.8512 61.57 31.4612 61.26 31.1912 61.07C31.1712 61.06 30.9112 61.13 30.7812 61.09C30.5912 61.03 30.5112 60.72 30.1312 60.89L30.0812 60.66C29.9612 60.55 29.7412 60.64 29.6812 60.63C28.6712 60.38 27.0912 59.47 26.2112 59C25.4012 58.57 24.4512 57.85 23.8212 57.36C23.5212 57.13 23.1712 56.65 23.1212 56.63C23.0712 56.61 22.9612 56.7 22.8912 56.66C22.7112 56.57 21.4112 55.01 21.2612 54.76C20.8012 54.02 20.7712 53.36 20.6612 52.53C20.4912 52.43 20.2412 52.48 20.0812 52.42C19.9912 52.39 19.0912 51.87 18.9812 51.77C18.9112 51.71 18.8812 51.56 18.8412 51.54C18.8212 51.52 18.3712 51.54 18.2812 51.48C18.1512 51.4 18.1512 51.26 18.1012 51.21C18.0812 51.19 17.9512 51.25 17.8412 51.18C17.6412 51.06 16.3212 50.2 16.2712 50.12C16.0812 49.81 16.1712 50.03 15.9012 49.83C15.7312 49.71 15.6812 49.41 15.3212 49.47L15.4812 49.35C15.3312 49.21 15.1812 49.33 15.1412 49.07L14.9012 49.15C14.9812 48.83 14.7612 48.94 14.6912 48.87C14.3512 48.56 14.1512 48.31 13.8712 48.09C13.7512 47.99 13.5512 47.64 13.4112 47.49C11.6812 45.63 10.6112 44.18 9.8712 41.8C9.8412 41.71 9.7212 41.75 9.7112 41.74C9.5012 41.46 9.9312 41.77 9.8712 41.54C9.7612 41.44 9.6512 41.37 9.6212 41.21C9.3012 39.45 9.7412 37.6 10.6612 36.15C10.8112 35.92 11.2312 35.58 11.3112 35.33C11.4212 34.99 11.3112 34.53 11.3512 34.17L11.3612 34.08ZM12.2412 36.74C12.2412 36.74 12.1012 36.69 12.0612 36.64C12.0112 36.56 12.1812 36.22 11.7812 36.32C11.7412 36.63 11.4112 36.81 11.5212 37.13C11.1212 37.07 11.3412 37.3 11.2612 37.57C11.1412 37.97 10.9612 38.1 10.8812 38.67C10.6612 40.14 11.0212 41.26 11.3612 42.65L11.5212 42.57C11.6612 42.95 11.8612 43.29 12.0612 43.64C12.5712 44.57 13.2512 45.51 14.0012 46.31C14.6212 46.98 15.3312 47.65 16.1512 48.27C16.6712 48.67 17.4312 49.23 18.0312 49.63C19.0512 50.31 20.3912 50.99 21.5212 51.64C21.6812 51.73 21.9912 51.62 22.0012 51.94L22.1612 51.78C22.1912 52.13 22.5412 52.03 22.7612 52.12C24.9312 52.99 26.5812 53.78 29.0012 54.22C29.1212 54.24 29.2612 54.14 29.3712 54.33L29.4512 54.16C29.5112 54.44 30.0812 54.3 30.2712 54.34C30.3212 54.34 30.3112 54.47 30.3512 54.47C30.9912 54.57 31.7112 54.47 32.1912 54.52C32.5512 54.55 32.8712 54.46 33.2312 54.64C33.4412 54.21 33.5012 54.53 33.6412 54.54C33.7212 54.54 33.8512 54.41 33.9812 54.4C34.1812 54.39 34.3012 54.61 34.5112 54.57V54.32C34.9912 54.59 35.0212 54.32 35.3112 54.25C35.4912 54.21 35.8712 54.34 36.0212 54.29C36.1412 54.25 36.2012 54.1 36.2912 54.09C36.3912 54.07 36.6112 54.18 36.8412 54.14C37.0612 54.1 37.0412 53.94 37.1212 53.91C37.3612 53.83 37.7412 53.82 38.0612 53.71C38.2812 53.63 38.5512 53.55 38.7112 53.37L37.5612 53.16L37.7212 53L37.4112 53.06L37.3512 52.91L36.9012 53L37.0612 52.84C36.9312 52.83 36.6312 52.94 36.5312 52.9C35.1612 52.47 33.8512 52.09 32.4312 51.68C31.7312 51.48 30.8012 51.26 30.1812 51.04C29.8512 50.93 29.2812 50.74 28.9812 50.6C28.8712 50.55 28.9312 50.31 28.5512 50.53L28.4912 50.38C27.4412 50.16 25.9912 49.44 24.7712 48.92C24.3412 48.73 23.8112 48.71 23.5212 48.31L23.4412 48.47C22.9112 47.99 22.2612 47.64 21.5912 47.35C20.9012 46.85 20.3212 46.46 19.7612 45.85C19.7412 45.83 19.4212 45.85 19.3012 45.72C18.7812 45.19 17.6612 43.98 17.2812 43.34C17.0412 42.94 16.8612 42.36 16.6412 41.95C16.5812 41.83 16.3512 41.86 16.4812 41.64L16.2312 41.68C16.1412 41.32 15.9112 41.32 15.7512 41.17C15.1012 40.58 14.3712 40.02 13.8412 39.37C13.7812 39.29 13.8412 39.17 13.8412 39.17C13.7912 39.14 13.6512 39.2 13.5912 39.11C13.1712 38.5 12.7112 37.82 12.3512 37.07C12.2912 36.95 12.3112 36.81 12.2612 36.71L12.2412 36.74ZM4.5312 45.03C4.4112 45 4.4212 45.03 4.3712 45.08C4.2412 45.19 4.1012 45.36 3.9512 45.48C2.1712 46.94 1.6512 49.11 1.1612 51.25L1.3212 51.32C1.0412 52.32 1.3612 53.14 1.3412 54.13C1.3412 54.16 1.4712 54.16 1.5112 54.28C1.5912 54.49 1.5112 54.68 1.5512 54.89C1.6912 55.59 2.8212 57.54 3.2512 58.21V58.35C4.2012 59.32 5.2212 60.66 6.1512 61.33C6.4512 61.55 6.7112 61.88 7.0912 62.01L7.0212 62.16C7.6312 62.34 8.0012 62.82 8.4812 63.06C8.5912 63.11 8.7112 63.13 8.8312 63.15L8.7512 63.31C9.1112 63.16 9.3112 63.53 9.6012 63.66C10.8812 64.24 12.2312 64.8 13.7112 65.23C13.8212 65.26 13.9612 65.19 14.0512 65.23C14.2512 65.29 14.3012 65.6 14.6412 65.37L14.7712 65.54L14.8112 65.38C15.2112 65.69 15.7612 65.64 16.2112 65.73C16.2512 65.73 16.2312 65.86 16.2912 65.86C16.4512 65.87 16.7112 65.71 16.8712 65.96L16.9512 65.8C17.0512 65.92 17.2512 65.96 17.3912 65.99C18.1812 66.15 18.9812 66.07 19.6612 66.19C19.7812 66.21 20.2412 66.14 20.3912 66.12L20.4812 66.29C20.5612 66.29 20.4812 66.16 20.5612 66.14C20.8812 66.04 21.8712 66.22 22.2812 66.18C22.8812 66.12 23.7512 65.95 24.3112 65.76C24.4312 65.72 24.6012 65.84 24.6412 65.64C24.5312 65.64 24.4112 65.64 24.3112 65.6C23.8012 65.4 23.2712 65.2 22.7712 65C22.6212 64.94 22.3812 65.08 22.4212 64.82L22.3312 64.98L21.5912 64.82L21.7512 64.66L20.5212 64.41L20.7712 64.16L20.2812 64.08L20.4412 64.24C19.7912 64.07 19.2612 63.57 18.5512 63.5L18.6312 63.34C18.4612 63.25 18.0312 63.2 17.9112 63.15C17.8912 63.15 17.8212 62.97 17.6412 62.9C17.4212 62.82 17.1412 62.79 16.9012 62.77L16.9812 62.61C16.9112 62.55 16.4812 62.52 16.4112 62.48C15.1912 61.85 13.8712 61.15 12.7012 60.33C12.6512 60.29 12.6312 60.19 12.6012 60.17C12.3812 60.03 11.9012 60.07 11.9612 59.65L11.8012 59.81C11.7712 59.68 11.5912 59.49 11.4912 59.4C11.0612 59.05 10.6612 58.73 10.2412 58.36C7.6012 56.05 5.8512 53.1 6.2912 49.47C6.3412 49.08 6.4712 48.71 6.5312 48.33C6.5012 48.24 6.3612 48.23 6.3212 48.17C5.7512 47.33 5.0912 46.61 4.6912 45.65C4.6112 45.46 4.5512 45.28 4.5612 45.07L4.5312 45.03Z" fill="#F6A1A7"/>
</svg>
