<svg width="82" height="68" viewBox="0 0 82 68" fill="none" xmlns="http://www.w3.org/2000/svg">
<path d="M49.7792 10.6643C51.0704 8.57647 52.2928 6.40623 54.0235 4.62059C54.9301 3.68656 56.441 2.24432 57.4575 1.48885C58.7486 0.527354 58.5975 1.95587 59.4217 2.69759C59.5178 2.98604 57.7459 4.42829 57.4437 4.74421C54.9026 7.354 53.4466 10.4033 51.9357 13.6587L52.5538 15.9525L52.856 18.5761C53.0208 18.164 53.2543 17.7794 53.4878 17.4085C57.1141 11.5296 61.7155 5.33485 67.3197 1.1592C67.7592 0.829539 69.2427 -0.324259 69.696 0.0878116L70.4377 2.20311C69.9982 2.88989 69.2015 3.17834 68.5696 3.64536C63.7621 7.31279 60.4244 11.0077 57.224 16.1036C56.5097 17.2437 56.0015 18.5211 55.1087 19.5513C55.2185 19.7985 55.2323 19.6612 55.3422 19.6474C55.9328 19.5925 56.496 19.4414 57.1003 19.4277C58.886 19.359 60.809 19.7985 62.4435 20.4579C62.8693 20.3892 63.0754 19.9908 63.405 19.7711C68.185 16.4333 72.5118 12.5186 76.9484 8.75504C77.9374 8.32923 78.789 8.15067 79.8741 8.19187C80.4236 8.21935 81.0417 8.10946 81.2065 8.7413C81.4675 9.74401 80.0252 9.86763 79.2972 10.266C76.8111 11.6395 75.0117 14.1257 72.9925 16.0624C70.5476 18.4112 67.7043 20.0733 64.9846 22.0649C65.6989 22.8616 66.4818 23.672 67.0175 24.606C67.7043 25.801 68.0752 27.518 69.1053 28.4246C69.5998 28.8641 70.2454 29.1938 70.7674 29.6882C71.4404 30.3338 72.8002 32.092 72.6629 33.0535C72.5118 34.0974 71.4541 33.1222 71.0421 32.9436C69.2427 32.1607 66.5093 33.4793 64.8061 34.0013C62.4023 34.743 59.9986 35.3886 57.4712 35.1688C60.4931 37.5863 61.2073 41.3911 61.482 45.031C61.8666 50.388 60.3008 53.1626 57.9245 57.7228C56.6471 60.1678 55.301 64.1374 52.0319 64.4808C50.1775 64.6731 50.0265 62.3105 49.3809 61.1293C48.749 59.9617 47.3617 59.7282 46.3727 58.9041C44.903 57.6679 44.1064 55.7861 43.3234 54.0829C41.9361 51.0473 40.6862 47.8881 40.0543 44.6052C37.8978 46.8991 35.5902 48.5062 32.5958 49.5363C31.5794 49.8797 28.9284 50.3193 28.2554 50.8412C27.2527 51.6242 25.8241 54.8108 25.2747 56.0883C23.8462 59.4123 23.1319 66.1428 19.0799 67.2142C17.4728 67.64 15.5224 67.0494 15.2614 65.195C15.1515 64.3572 16.1267 61.9397 16.6487 61.2529C17.0333 60.7447 18.1047 59.7694 18.7228 60.4287C19.3134 61.0606 18.1322 62.2281 17.8437 62.8462C17.6239 63.2995 17.3217 64.6868 17.83 64.989C18.1184 65.1676 18.5992 65.1401 18.8739 64.9203C19.3546 64.5357 20.2474 62.3792 20.5084 61.6924C21.2227 59.8931 21.6485 57.9975 22.4864 56.2394C21.1815 57.4344 19.6431 58.3547 17.9261 58.8491C16.4839 59.2612 12.8302 59.5222 11.5665 58.753C9.73964 57.6541 9.89073 55.9097 10.7836 54.2339C10.9759 53.8768 11.9923 52.3247 12.267 52.2011C12.7752 51.9813 13.256 52.462 13.2834 52.984C13.3384 54.0142 11.6077 54.8795 12.2533 56.1844C12.3632 56.3355 12.6379 56.3355 12.8027 56.363C16.0306 56.9261 19.3821 56.1569 21.7309 53.7944C22.404 53.1076 22.9534 52.311 23.6264 51.6379L22.6512 51.8439C21.9095 52.1186 21.0853 52.5994 20.4672 53.0939C20.0139 53.451 19.5744 54.2065 19.1486 54.44C17.4316 55.4015 16.9921 51.3632 16.9646 50.3605C16.9234 48.6985 17.4591 47.1189 17.9261 45.553L15.7833 46.693C14.3274 47.7782 12.9538 48.9732 11.6077 50.1956C10.0556 51.6104 7.28095 54.8795 5.2618 55.0993C3.61352 55.2779 1.15482 54.0142 0.399361 52.517C0.152118 52.0362 -0.493459 49.5775 0.687811 50.0033C2.21247 50.5528 2.99541 52.6131 5.04203 52.2423C6.69031 51.9401 6.82767 51.4593 7.954 50.4704C11.4429 47.4348 14.4922 44.3854 18.9975 42.8333C20.6458 39.9626 22.8572 37.5588 25.4258 35.471C23.2281 35.1413 21.6485 34.3447 19.8903 33.0123C17.9124 31.5151 15.591 28.7817 12.8851 28.8778C11.6764 28.919 10.2753 30.1827 9.149 30.7322C7.98147 31.3091 7.52819 30.8833 7.81664 29.647C8.11882 28.3559 8.94297 26.6527 9.86326 25.7049C14.5746 20.7875 23.2006 16.6668 30.0273 18.9607C32.1838 19.6887 33.9419 21.2545 35.5215 22.8479C35.0683 20.6776 34.8348 18.2327 35.2468 16.035C35.4391 14.9636 36.277 12.8895 36.071 11.9005C35.6726 9.93631 33.6672 10.8154 33.0629 9.79895C32.2662 8.45285 35.604 7.32653 36.538 7.06555C39.2714 6.29635 41.6614 6.57106 44.3124 7.47762C46.2491 8.13693 48.2271 9.20832 49.6968 10.6368L49.7792 10.6643ZM45.6036 28.4932C46.5788 27.257 47.348 26.2406 48.9963 25.9384C49.2572 25.8972 49.8067 25.9659 49.944 25.8835C50.2874 25.65 51.0292 24.0154 51.194 23.5484C52.128 20.9798 52.3203 16.0624 50.9879 13.6312C48.3507 8.83745 39.5049 5.82933 34.6974 8.86492C34.5188 8.97481 34.3265 9.05722 34.3128 9.30447C35.5215 9.64786 36.2358 9.71654 36.8402 10.9528C37.6918 12.6697 36.3732 15.0597 36.1259 16.8866C35.8924 18.6035 36.0984 22.5457 37.0325 23.9742C37.4858 24.661 38.7906 24.7846 39.5186 25.1005C40.0818 25.334 40.6312 25.8148 41.2356 25.9247C40.9609 25.4439 40.5763 24.9906 40.329 24.5099C40.123 24.1116 40.0543 23.466 39.8346 23.1088C39.5186 22.6144 38.0352 21.7078 39.2165 21.2683C40.4939 20.7875 40.6862 23.0539 41.0158 23.8368C41.3455 24.6198 41.8674 25.3203 42.1422 26.0758C42.3757 26.7076 42.3619 27.3944 42.6504 28.04C42.6916 28.1361 42.8015 28.4795 42.9526 28.3696C42.7328 26.0758 42.2108 23.9055 41.4966 21.7215C41.3317 21.1996 40.9472 20.6089 40.8373 20.1007C40.7411 19.6337 41.0296 17.9168 41.7438 18.3975C42.5817 18.9469 42.1147 19.9496 42.1009 20.6639C42.1009 22.0237 42.9114 23.8506 43.1861 25.2654C43.4058 26.4054 43.4058 27.6554 43.5981 28.768C43.6119 28.8641 43.5569 29.1113 43.7218 29.0976C43.9003 28.3421 43.7904 27.5043 43.9141 26.7625C44.0377 25.9796 44.4772 25.0731 44.5047 24.2901C44.5047 23.8918 44.3536 23.5072 44.3399 23.1363C44.3124 22.2572 44.5184 21.3232 44.5184 20.4304C44.5184 17.8069 43.8454 15.8015 42.1284 13.7823C41.84 13.4389 40.6999 12.7384 41.2493 12.3126C41.7438 11.928 42.8427 13.2329 43.1311 13.6037C44.697 15.6366 45.3151 17.7794 45.3426 20.3068C45.3426 20.4991 45.2464 21.1172 45.3563 21.1584C45.7959 20.032 47.348 20.4716 46.9084 21.6666C46.565 22.6006 45.4662 22.7929 45.3426 23.1638C45.8096 24.7709 44.5184 26.117 44.6146 27.724C44.7794 27.8065 44.7931 27.5592 44.8344 27.4768C45.0953 26.9274 45.3426 26.2268 45.686 25.7186C45.9332 25.3615 46.4689 24.9357 46.5925 24.7159C46.7574 24.4412 46.2903 24.0429 46.6475 23.7544C47.2656 23.2599 48.4056 24.0291 48.1584 24.661C47.9661 25.128 47.4853 25.128 47.1145 25.4027C46.3041 26.0208 45.8645 27.518 45.6173 28.4658L45.6036 28.4932ZM35.5215 24.1528C33.7771 22.1473 31.8129 20.4441 29.2169 19.7436C24.478 18.4662 20.8381 19.8672 16.5251 21.8589C14.7394 22.683 13.0774 24.0291 11.5802 25.3203C10.1517 26.5565 9.43745 27.9576 8.86055 29.7157C10.4264 29.2075 11.4154 27.9026 13.1736 27.8889C17.8849 27.8614 20.481 34.3584 25.8928 34.4545C27.1977 34.482 28.4202 33.809 29.6701 33.4518C31.5107 32.9299 33.4337 32.6002 35.343 32.9711C35.549 32.8749 35.4254 32.8749 35.3842 32.765C35.2606 32.3118 35.0683 31.8722 34.9584 31.4189C34.6699 30.2239 34.9172 29.7569 33.8183 28.919C31.4695 27.1334 26.0302 25.5401 23.0907 25.9247C22.7061 25.9796 21.5249 26.3917 21.3738 26.3505C20.948 26.2681 20.9205 25.7324 21.3326 25.4851C22.8984 24.5236 26.6483 25.0593 28.379 25.5126C30.5492 26.0758 32.7057 27.0098 34.4914 28.3971C34.6287 28.3284 34.4914 28.1086 34.4639 27.985C34.1068 26.6115 32.7607 23.3973 35.5215 24.1665V24.1528ZM53.117 7.87595C52.4165 8.7001 51.8258 9.68907 51.5511 10.733L53.117 7.87595ZM68.3224 1.87345C67.4158 2.5053 66.5505 3.23329 65.7126 3.96128C65.589 4.07116 65.2181 4.34588 65.2456 4.49697C66.0835 3.78272 67.0862 3.20582 67.9103 2.49156C68.0614 2.3542 68.3636 2.10696 68.3224 1.87345ZM42.0048 32.9299C42.3619 31.5975 42.1009 29.6882 41.579 28.4246C40.5488 25.9109 37.211 25.4714 34.8485 25.0868C34.6562 25.1692 34.7661 25.1967 34.7798 25.2928C34.8348 26.3642 35.2331 27.3669 35.4529 28.3971C35.6864 29.4959 35.8375 31.8585 36.7028 32.5453C36.8539 32.6689 37.0599 32.7238 37.2522 32.7788C37.9528 32.9711 39.3401 33.1222 40.123 33.2321C40.4801 33.287 40.8647 33.287 41.2219 33.3145L39.0379 30.0316C38.9692 29.7844 39.2851 29.4822 39.5186 29.5372C39.5873 29.5509 40.1367 30.0728 40.178 30.1278L42.0048 32.9161V32.9299ZM59.8475 9.73027L59.0233 10.6368L57.8833 12.3675C58.4602 11.7219 59.0371 11.0077 59.5453 10.3072C59.6414 10.1698 59.9024 9.90884 59.8475 9.74401V9.73027ZM33.9282 33.9051C33.0629 33.5755 32.1426 33.7677 31.2772 33.9875C25.728 35.4298 20.8106 40.3609 18.9563 45.7178C18.1322 48.0941 17.4454 51.1984 18.7503 53.506C20.3299 51.9126 21.7309 51.0198 23.9286 50.5528C28.2279 49.6325 33.1041 49.1517 36.744 46.4183C38.1451 45.3607 39.8071 43.6849 40.5488 42.0916C40.6724 41.8169 41.4554 39.7428 41.4416 39.6054C41.4004 39.3994 41.2631 39.5505 41.1532 39.5779C40.6724 39.729 40.2604 40.0175 39.7247 39.99C38.7769 39.9488 38.1725 38.6577 37.2248 38.795C36.7028 38.8637 34.7798 39.5642 34.2579 39.8252C31.7168 41.0889 28.4889 42.9295 26.5659 45.0173C26.2637 45.3469 25.5906 46.5007 25.2198 46.4595C23.9561 46.3222 25.8654 44.3442 26.1675 44.0421C27.4587 42.7509 29.052 41.7345 30.5767 40.7318L34.7936 38.4654C34.2716 37.7786 32.2525 37.8473 31.8816 37.339C31.2497 36.4874 33.0217 34.1936 33.887 33.8914L33.9282 33.9051ZM71.4267 31.9821C70.7674 30.5536 68.8856 29.7432 68.0065 28.6306C67.3472 27.779 67.0587 26.5702 66.5642 25.65C64.2017 21.3644 59.4079 19.6062 54.7653 20.6914C51.7571 21.3919 52.6637 22.2984 51.7159 24.5374C51.3451 25.4164 50.7819 26.3642 50.2462 27.1609L53.2543 26.0483C55.8916 25.3752 58.625 25.5675 61.1936 26.3779C61.6331 26.5153 63.8171 27.2021 63.5698 27.8477C63.2677 28.6031 62.0589 27.6966 61.5507 27.5043C60.9051 27.2708 59.9162 27.0098 59.2431 26.8587C56.4136 26.2131 53.4741 26.5977 50.9467 28.0537L52.2104 28.2048C53.8587 28.6306 54.7103 29.702 56.0015 30.636C56.6333 31.0893 58.2404 31.5426 57.636 32.5453C57.1415 33.3694 56.1526 33.4793 55.3834 33.9326C58.0206 34.6606 60.4381 34.2348 63.0342 33.5755C65.7813 32.8749 68.5559 31.4602 71.4129 31.9958L71.4267 31.9821ZM41.4966 34.9765C38.8044 33.5342 34.1892 33.1771 32.9392 36.7072C33.4612 36.7621 34.0793 36.927 34.5463 37.1467C34.9172 37.3253 35.6864 37.9297 35.9199 37.9983C36.1397 38.067 37.0187 37.6962 37.527 37.7374C38.3923 37.8198 39.1615 38.6577 39.7659 38.7263C40.2192 38.7675 41.0708 38.3005 41.6477 38.2319C43.6531 37.9846 44.8206 39.523 46.2903 40.4982C47.1007 41.0477 48.0622 41.3224 48.804 41.968C48.9963 41.5147 49.1886 41.0614 49.3122 40.5944C49.5732 39.6604 50.0677 36.8858 49.9578 35.9792C49.8479 35.1138 49.1748 34.8803 48.4056 34.6331C46.7986 34.0837 45.1365 34.2622 43.7218 35.2375C43.6806 35.416 45.5349 35.9517 45.7821 36.1852C46.153 36.5424 46.1805 36.927 45.6036 37.0094C45.2052 37.0643 43.0075 35.8968 42.4443 35.7594L40.4252 36.4325C39.6148 35.8418 40.8647 35.1551 41.4554 34.9902L41.4966 34.9765ZM49.3534 26.8999C46.8535 27.4081 45.3288 30.169 45.0541 32.5315C45.7409 32.2431 46.7711 30.3888 47.4167 30.3201C47.7189 30.2926 47.9661 30.691 47.8699 30.9519C47.7463 31.2816 45.9469 32.9573 46.0294 33.0672C46.7848 33.3007 47.6227 33.3282 48.3782 33.5617C48.9139 33.7265 49.4358 33.9875 49.9578 34.1936C50.3698 34.0699 50.672 33.7403 51.0566 33.548C52.7598 32.7101 55.04 33.493 56.5784 32.1332C54.8751 30.9657 53.6252 29.3586 51.4687 29.0976C50.7682 29.0152 49.3122 29.2899 49.1474 28.3147C49.1062 28.1086 49.4495 26.9411 49.3671 26.9136L49.3534 26.8999ZM72.4568 14.3867C71.3168 15.513 69.6548 16.3509 68.6109 17.5459C68.5422 17.6283 68.3636 17.7382 68.4598 17.8481L71.1245 15.8427L72.4568 14.3729V14.3867ZM42.7603 39.1796C42.6229 39.1796 41.9636 41.1988 41.84 41.4735C41.6065 42.0229 41.057 42.7509 40.9059 43.2729C40.7411 43.8498 41.3867 46.487 41.5927 47.2013C42.2932 49.66 44.3124 54.907 45.7546 56.8987C47.1419 58.8354 49.3397 59.0002 50.3149 60.8958C50.9879 62.2007 50.8781 64.3434 52.9522 63.2858C53.8862 62.805 54.6828 61.9259 55.2048 61.0331C56.9355 58.1074 59.3805 53.5197 60.2046 50.2781C61.1249 46.6656 60.5343 39.8527 58.0206 37.0094C56.5097 35.3061 53.2681 33.0535 51.0154 34.5095C51.922 35.3474 52.9796 36.0341 53.8038 36.9544C55.1499 38.4516 56.1938 40.3197 56.9355 42.174C57.1278 42.6685 57.8833 44.6876 57.6635 45.0722C56.7569 45.8689 56.4548 43.5613 56.2075 42.902C55.507 41.0339 54.5455 39.3032 53.2406 37.7923C52.6362 37.1055 51.9494 36.3775 51.0841 36.0341L50.9193 38.3692C52.7186 41.1576 54.0647 43.891 54.8065 47.1189C54.9713 47.8468 55.4246 49.9209 55.3559 50.5803C55.301 51.1572 54.7927 51.2945 54.518 50.7863C54.1334 46.7068 52.7736 42.7784 50.4935 39.3582C50.4523 39.6604 50.2874 40.3609 50.3698 40.6356C50.4935 41.0065 50.8643 41.3636 51.0566 41.7482C51.4687 42.5723 51.8808 44.4816 52.0731 45.4431C52.1692 45.9238 52.6362 47.476 52.0593 47.6545L51.8121 47.5447C51.3313 45.5392 51.0429 43.4514 50.1089 41.5834C49.9028 42.1465 49.944 42.847 49.3259 43.2042C51.1802 46.6381 52.128 50.7176 52.4851 54.5911C52.65 56.3492 52.8697 59.3848 52.7186 61.1018C52.65 61.8847 52.1417 62.544 51.7984 61.5001C51.7022 55.7586 51.6061 48.9594 48.6391 43.8498C47.6227 42.1191 47.5266 42.5723 46.1255 41.6658C45.7546 41.4185 45.4662 41.0339 45.0267 40.8554C45.2052 42.4899 46.4002 44.0695 47.3343 45.4294C47.7051 45.9788 48.8864 46.8579 47.7738 47.2837C47.348 47.2837 46.4826 45.7865 46.2217 45.4019C45.4113 44.2206 44.5596 42.9844 44.1613 41.5696C43.8454 40.4296 44.1613 39.729 42.7465 39.1521L42.7603 39.1796Z" fill="#AF7250"/>
</svg>
