<svg width="64" height="66" viewBox="0 0 64 66" fill="none" xmlns="http://www.w3.org/2000/svg">
<g clip-path="url(#clip0_3_11450)">
<path d="M44.2054 0.718834C46.3309 2.55447 45.2612 6.32235 44.5666 8.61344C43.3025 12.8368 41.2187 17.7778 38.6904 21.3939C38.093 22.2496 37.1761 23.1329 36.6482 23.9886C36.5927 24.0714 36.4954 24.0852 36.551 24.237C37.8707 24.2922 39.2044 24.8029 40.4268 25.2722C47.2756 27.8531 58.139 35.168 62.3344 41.158C67.8217 49.025 58.7086 50.0049 52.9573 48.9698C48.6092 48.1831 44.0248 46.8443 40.0518 44.9811C39.7878 45.5193 39.6489 46.1128 39.4127 46.6511C37.1622 51.8267 30.1052 57.7891 25.4375 60.9635C19.7279 64.8418 10.1703 67.2019 3.41881 65.3663C-5.08304 63.0476 4.68297 53.8142 7.87811 50.971C13.9211 45.6021 21.4366 41.296 29.4661 39.7502L25.9932 36.3412C23.3954 38.4114 20.6726 40.1781 17.533 41.3374C11.9762 43.3939 3.05762 44.084 5.12751 35.4579C6.48892 29.7715 10.1286 23.3675 14.06 19.0614C19.9641 12.5883 26.8128 5.72887 34.8979 2.0162C37.1345 0.994869 42.1217 -1.0892 44.2193 0.732635L44.2054 0.718834ZM41.177 1.42272C38.5653 1.67115 34.5367 3.6034 32.2445 4.94217C25.5347 8.84807 19.5334 14.7966 14.4907 20.621C11.2261 24.4026 6.46114 32.4905 6.12773 37.4867C5.80822 42.3035 11.9484 41.4892 15.088 40.6473C25.7153 37.8042 30.8275 28.4604 37.4262 20.6486C40.1351 16.7841 42.205 11.8569 43.4553 7.30227C44.1082 4.91457 45.0251 1.05008 41.177 1.42272ZM54.541 46.5683C54.4716 46.6511 54.2215 46.6925 54.1104 46.6925C53.0129 46.7063 50.3457 44.705 49.0954 44.222C47.734 43.6975 46.1781 43.5181 44.8028 42.9522C42.844 42.1379 41.302 40.4817 39.3016 39.6536C37.7179 39.0049 35.9675 38.9911 34.6061 37.8732C34.106 37.4729 33.6893 36.8656 33.1753 36.4654C31.7305 35.3336 29.7162 35.2094 28.1464 34.3123L27.1045 35.2646C28.3826 36.7414 29.8551 38.1078 31.3415 39.3776C34.0227 38.9773 38.3431 39.1153 39.7461 41.9171C39.9545 42.3311 40.1212 43.4491 40.274 43.6147C40.3713 43.7251 41.5799 44.2772 41.8299 44.3876C45.414 46.0024 53.7075 48.2383 57.5556 47.9899C59.292 47.8794 62.7234 47.4654 62.7234 45.2157C62.7234 42.897 58.6669 38.8669 56.9582 37.3073C52.5406 33.2634 43.0524 26.9974 37.2456 25.6862C36.8288 25.5896 35.6758 25.2998 35.3563 25.5344C35.2729 25.5896 34.3005 26.7489 34.1894 26.9008C34.1199 27.0112 34.0366 27.0112 34.1338 27.163C34.2172 27.2872 36.5788 28.3638 36.9261 28.5156C39.1071 29.4265 41.4132 29.8543 43.4553 31.0827C44.5944 31.7728 45.6085 32.6699 46.7754 33.3186C48.0118 33.9949 49.401 34.4089 50.6235 35.1266C52.4572 36.2032 53.9853 37.887 55.6663 39.1705C56.6804 39.9434 58.4308 40.8819 59.2504 41.7515C59.5282 42.0413 59.5699 42.2759 59.3893 42.6486C58.8892 42.966 57.1666 41.7929 56.6943 41.4754C54.0687 39.764 51.971 37.2107 49.1926 35.8443C48.4147 35.4579 47.5534 35.2094 46.7754 34.823C44.9 33.8845 43.358 32.2696 41.441 31.4691C40.2046 30.9447 38.7737 30.6272 37.4957 30.158C36.0509 29.6059 34.6895 28.8468 33.2031 28.3776C33.078 28.3499 32.9947 28.3914 32.8974 28.4742C32.8141 28.5432 31.5777 30.1028 31.6333 30.1856C33.0502 30.6134 34.495 31.1103 35.7731 31.8556C36.7733 32.4353 37.704 33.3462 38.7181 33.8569C40.1351 34.5883 41.7605 34.8782 43.2469 35.7063C44.9139 36.631 46.2475 38.1216 47.8729 38.9635C48.9565 39.5294 50.1651 39.7778 51.2764 40.3161C53.3324 41.3236 54.8883 42.9246 57.0971 43.8907C57.8056 44.2082 59.3059 44.5808 59.8338 44.9949C60.6257 45.6159 59.7366 45.9748 58.9864 45.8368C55.7079 45.2433 53.5964 42.8694 50.8874 41.503C49.8178 40.9648 48.637 40.7991 47.5673 40.2609C45.7197 39.3362 44.1915 37.5419 42.33 36.6034C40.9408 35.8995 39.3016 35.6097 37.8985 34.8644C37.0233 34.3951 36.3009 33.6636 35.4535 33.153C34.0088 32.2696 32.3418 31.8142 30.7581 31.1931C30.5358 31.4277 28.9521 33.1392 29.0772 33.291C30.6192 34.0639 32.6335 34.4227 33.9949 35.5131C34.8701 36.217 35.134 36.9761 36.3287 37.4315C37.6207 37.9284 38.9543 38.1354 40.274 38.7565C41.8994 39.5156 43.1913 40.7715 44.775 41.5306C46.5948 42.4139 48.5397 42.5382 50.3734 43.5181C51.0125 43.8631 51.5959 44.3324 52.235 44.6912C52.7073 44.9535 55.2078 45.7816 54.5132 46.5683H54.541ZM37.9124 41.6962C34.9118 38.8807 26.396 41.5168 22.9786 42.9522C15.8798 45.9334 6.83622 52.2684 2.55751 58.7C0.445942 61.8744 0.529294 63.434 4.50238 64.2621C11.2538 65.6699 19.714 63.3788 25.2708 59.4177C29.4661 56.4365 37.2595 49.9911 38.5792 44.9535C38.8987 43.7389 38.8709 42.5934 37.9124 41.6824V41.6962Z" fill="#AF7250"/>
<path d="M40.6621 4.62565C41.3428 4.48764 41.2178 5.26053 41.0094 5.68839C40.3426 7.08237 37.8559 10.2154 36.7446 11.4161C35.2026 13.0723 33.3411 14.0937 31.8269 15.5842C31.1878 16.2053 30.6877 17.0472 30.1043 17.7097C27.562 20.5667 23.8668 22.0021 21.3385 24.9142C20.6439 25.7147 20.0604 26.7637 19.3103 27.5366C18.6296 28.2267 17.6988 28.8063 16.9764 29.4412C14.1008 31.9669 11.9753 35.2518 9.12749 37.8465C8.66906 38.2605 7.905 38.5918 8.11338 37.6395C8.29398 36.7837 11.0307 34.1614 11.767 33.3195C12.5032 32.4776 13.17 31.4977 13.948 30.642C15.1288 29.3446 16.4485 28.3785 17.6988 27.2191C18.9768 26.0322 19.7548 24.6106 20.9356 23.396C23.3111 20.9117 26.6313 19.4901 28.8957 17.0058C29.6597 16.1639 30.2571 15.184 31.1184 14.3835C32.7854 12.8377 34.6052 11.7198 36.1889 9.95313C37.5225 8.46254 38.7728 6.36467 40.1342 5.0121C40.287 4.87408 40.4537 4.66706 40.6621 4.62565Z" fill="#AF7250"/>
<path d="M40.0505 11.1685C40.7173 11.0029 40.7451 11.5136 40.5784 12.0104C40.37 12.6453 38.3418 15.7369 37.8417 16.3304C36.2024 18.2764 33.7991 19.4496 32.0765 21.368C31.1319 22.4308 30.5067 23.5763 29.3954 24.5424C28.2146 25.5638 26.7559 26.2677 25.589 27.3028C23.8803 28.821 23.0607 30.767 21.0602 32.0644C19.8516 32.8511 18.5041 33.4032 17.3789 34.3417C15.5868 35.8461 14.2393 38.3718 11.7804 39.1447C11.3776 39.2689 10.7663 39.2275 10.8219 38.6892C10.8775 38.1372 13.2808 36.7432 13.8364 36.2601C14.8506 35.3906 15.559 34.2175 16.5731 33.3342C17.7262 32.3404 18.9764 31.8022 20.2128 31.0155C22.2549 29.7181 22.9912 27.7168 24.7833 26.1849C25.9363 25.2049 27.3533 24.5148 28.4924 23.5211C29.5343 22.6102 30.215 21.4232 31.118 20.4019C33.0906 18.1798 35.7857 16.9929 37.4805 14.5362C38.0084 13.7771 39.1892 11.3756 40.0644 11.1685H40.0505Z" fill="#AF7250"/>
<path d="M18.6576 19.9732C19.6022 19.1037 20.6163 18.2618 21.4915 17.2956C22.2833 16.4261 22.8946 15.4048 23.6725 14.5353C25.3396 12.6582 27.5762 11.7887 29.4932 10.2567C30.5629 9.40103 31.3687 8.43491 32.5356 7.63441C33.258 7.13754 35.314 5.84018 36.0641 5.60555C36.342 5.52274 36.6198 5.42613 36.856 5.67456C37.2449 6.15762 36.4531 6.75109 36.078 7.04093C35.175 7.74482 34.0081 8.28309 33.0635 8.97318C32.0216 9.73227 31.1881 10.6708 30.2017 11.4713C28.7848 12.6168 27.0622 13.3621 25.7008 14.5491C24.5477 15.5428 23.8531 16.7712 22.8668 17.8753C20.7552 20.2354 17.8379 22.0572 15.9347 24.5692C15.2124 25.5215 14.7262 26.6394 14.0316 27.6055C13.2119 28.7511 12.1284 29.7034 11.3365 30.8628C11.0031 31.3458 10.1557 33.1263 9.85009 33.3195C9.28052 33.6921 9.1555 33.0158 9.18328 32.5604C9.29442 30.7247 11.5727 28.6545 12.6146 27.2053C13.5453 25.9079 14.2538 24.4449 15.2679 23.2028C16.282 21.9606 17.4906 21.0773 18.6715 19.987L18.6576 19.9732Z" fill="#AF7250"/>
<path d="M29.6732 26.7893C29.7705 26.6927 30.5345 26.0716 30.604 26.0716C30.8957 26.044 31.118 26.4581 31.0346 26.7755C30.8818 27.3828 29.1453 29.177 28.6313 29.7291C25.8252 32.6551 21.5326 36.5058 17.7818 38.0792C17.2678 38.3 16.7538 38.3 16.8649 37.5823C16.9899 36.8646 19.1015 35.9399 19.7544 35.512C22.9773 33.4418 25.978 30.6814 28.673 27.9625C28.9925 27.645 29.3398 27.093 29.6732 26.7893Z" fill="#AF7250"/>
<path d="M34.8841 42.4844C35.4675 42.3878 35.801 42.65 35.537 43.2435C35.3286 43.7266 33.8144 44.3891 33.2865 44.7341C31.3972 45.9763 29.4385 47.0804 27.5492 48.295C26.3128 49.0817 25.3265 50.1582 24.0901 50.8897C22.298 51.9662 20.117 52.2699 18.4361 53.5258C17.033 54.5748 16.6996 55.3201 14.8659 56.0101C12.4209 56.9349 12.4903 56.8658 10.4899 58.5083C9.10071 59.64 8.05882 59.9436 6.57239 60.7579C5.97504 61.0892 4.53028 62.2071 3.94682 62.1795C3.76622 62.1795 3.65509 62.0001 3.54395 61.8759C3.34947 61.4066 4.73866 60.4957 5.12763 60.2335C6.35012 59.3778 7.7532 58.9085 8.9479 58.0804C10.0176 57.3351 10.8928 56.3 12.0875 55.6651C13.1849 55.0716 14.4769 54.906 15.5604 54.2849C16.644 53.6638 17.5053 52.5459 18.6306 51.8972C20.0336 51.0967 21.784 50.7241 23.2288 49.9236C24.6735 49.1231 25.7293 47.9361 27.0629 47.0804C28.0632 46.4455 29.1745 45.9901 30.1886 45.3552C31.2722 44.6789 33.745 42.6638 34.898 42.4706L34.8841 42.4844Z" fill="#AF7250"/>
<path d="M35.4924 45.6036C36.6177 45.6175 35.7425 47.0942 35.3535 47.5911C34.0199 49.3301 31.3804 50.2962 29.6856 51.7316C28.602 52.6563 27.8241 53.6915 26.5183 54.423C25.2819 55.1269 23.9066 55.2787 22.6007 55.8722C20.9754 56.6036 19.6557 57.9562 18.0442 58.5911C16.9051 59.0466 15.6826 59.1708 14.5295 59.7228C12.8903 60.5095 11.5845 61.8897 9.87576 62.5384C9.2923 62.7592 6.98624 63.3803 7.36132 62.152C7.48635 61.7517 8.62548 61.7241 9.09781 61.5585C10.9315 60.9098 12.2791 59.4192 13.9322 58.6049C15.4186 57.8734 17.1134 57.7216 18.586 56.8935C19.9474 56.1344 21.0032 55.1821 22.5035 54.5472C23.6704 54.0503 25.0318 53.8433 26.1154 53.2084C27.5601 52.3665 28.5187 50.9449 29.8384 49.965C31.0192 49.0955 32.4918 48.5296 33.6309 47.5911C34.3533 46.9976 34.8256 46.2385 35.4785 45.5898L35.4924 45.6036Z" fill="#AF7250"/>
<path d="M28.715 42.7882C29.0623 42.7606 30.0209 42.5949 29.9375 43.1884C29.8403 43.8095 28.4233 43.9889 27.8954 44.1959C25.5199 45.1069 24.4919 46.0868 22.4498 47.2461C20.7411 48.2122 18.6434 48.6401 16.9486 49.6338C15.7678 50.3101 14.9482 51.3314 13.8646 52.1181C12.8644 52.8496 11.5724 53.3051 10.6417 54.0504C9.66925 54.8233 8.80795 56.0102 7.84941 56.8245C7.46043 57.1558 5.6406 58.6326 5.26551 57.8873C4.89043 57.1558 6.21016 56.6865 6.64081 56.3277C7.6966 55.472 8.58568 54.1056 9.68314 53.2085C10.6834 52.3666 11.9197 51.9663 12.9616 51.2348C13.9202 50.5585 14.7259 49.62 15.74 48.9575C17.5182 47.7844 19.602 47.3427 21.4496 46.3766C23.8112 45.1345 25.8672 43.1056 28.7289 42.8296L28.715 42.7882Z" fill="#AF7250"/>
<path d="M27.0895 55.5658C27.8396 55.414 27.8535 56.0489 27.4784 56.5596C26.895 57.3187 24.3944 58.9473 23.4776 59.4303C21.6716 60.3827 19.8379 60.7277 17.9486 61.3902C16.9484 61.7352 15.8787 62.3149 14.9063 62.6047C14.1561 62.8256 12.6836 63.143 13.6421 61.9561C15.073 61.404 16.4344 60.6449 17.8652 60.1066C20.1713 59.2509 21.8939 58.9611 24.061 57.6085C24.7139 57.2083 26.5477 55.6763 27.0895 55.5658Z" fill="#AF7250"/>
</g>
<defs>
<clipPath id="clip0_3_11450">
<rect width="64" height="66" fill="white"/>
</clipPath>
</defs>
</svg>
