<svg width="77" height="66" viewBox="0 0 77 66" fill="none" xmlns="http://www.w3.org/2000/svg">
<g clip-path="url(#clip0_3_11462)">
<path d="M51.5669 7.29103C52.9201 5.67595 54.4479 4.11907 56.4413 3.31881C57.7217 2.80955 59.1331 2.46034 60.3553 3.31881C61.2865 3.97357 61.1701 5.4286 62.4214 5.47225C62.6834 5.47225 62.9016 5.37039 63.0908 5.37039C64.0656 5.41405 64.8513 5.67595 65.3169 6.57807C65.7826 7.48018 65.5498 8.13494 65.6225 9.05161C65.7535 10.5794 66.6847 11.4524 65.608 13.0529C64.7204 14.377 64.1093 15.5119 63.6 17.0688L62.6543 18.7566C63.8328 17.8982 65.055 17.0397 66.4519 16.5886C68.0378 16.0794 68.9982 16.3267 70.0749 17.5926C71.4426 17.0688 72.7085 16.836 74.018 17.6654C74.9347 18.2474 75.4585 19.1786 75.2257 20.299C75.0656 21.0847 74.2508 21.5939 74.6291 22.5106C75.1238 23.7328 76.9281 23.1654 77.0008 24.8241C77.0299 25.5807 76.7389 25.5953 76.4916 26.1482C76.1423 26.9484 76.0114 27.836 75.5749 28.6654C73.7998 32.0265 69.6966 34.4273 65.899 33.0886C66.1463 33.6561 66.7429 34.2236 67.2958 34.5C68.2416 34.9656 69.9148 34.5582 69.7111 36.1879C69.5365 37.5847 68.2852 37.5992 67.4267 38.2103C67.1357 38.4286 66.8884 38.7778 66.6119 39.0106C64.9386 40.3492 61.9122 40.6839 59.8752 40.1601C60.108 40.6693 59.9625 41.6006 60.4135 41.9643C60.8646 42.3281 62.1595 41.9643 62.858 42.0953C63.6582 42.2262 64.4585 43.041 64.5458 43.8558C64.604 44.4088 64.2693 45.1799 64.3857 45.5437C64.4439 45.7328 65.0987 46.2421 65.2733 46.664C65.608 47.4207 65.5643 47.9736 65.2151 48.7011C64.3712 50.5053 60.4717 52.7752 58.5802 53.3426C56.4413 53.9828 54.2005 53.7646 52.0326 53.3426L53.7495 54.7249C55.3355 56.4273 55.3646 59.8466 53.473 61.3162C52.4691 62.1019 52.1781 61.6508 51.2323 61.7527C49.0061 61.9855 48.3659 66.3214 44.9175 65.9431C43.4625 65.7831 43.4479 65.0847 42.6185 64.3281C41.5855 63.3823 39.7376 64.5754 38.4281 63.7315C37.3513 63.0476 37.8606 62.0728 37.395 61.418C37.1185 61.0106 36.4492 61.0397 36.231 60.3704C35.7654 58.9299 37.0458 57.3439 37.977 56.3836C37.1622 56.3254 36.4347 55.9326 35.7799 55.4669C35.5326 55.2923 34.6741 54.4339 34.5577 54.3902C34.1794 54.2738 33.8302 54.463 33.5246 54.4484C33.2773 54.4484 31.9095 54.2156 31.8513 54.2738L31.7349 56.1217L31.5894 56.2672H31.2693L31.0656 55.9035C31.0365 57.0238 30.9783 58.2606 30.4836 59.2791C30.2217 59.8029 29.9598 60.3122 29.4505 59.7156C29.1595 60.2976 28.4902 61.5635 28.0101 61.9564C27.8064 62.131 27.6463 62.0146 27.5445 62.0728C27.1516 62.2765 26.7151 62.7275 26.264 62.9894C25.3765 63.4987 23.514 64.0662 22.4955 64.1971C20.9823 64.3863 22.5392 63.2222 22.8302 62.6257C22.9466 62.3929 23.0484 62.1601 23.0484 61.8836C22.5683 61.7527 22.2336 61.1416 22.0008 60.705C21.768 60.2685 21.5207 59.8029 21.5061 59.3373C20.473 60.0503 20.3857 57.6786 20.3566 57.0384C18.6251 57.4749 17.4175 56.1363 15.6278 56.3836C15.1767 56.4418 14.7257 56.791 14.2892 56.9511C13.3434 57.3003 13.1833 57.3439 12.2958 57.8241C11.0154 58.5225 9.57488 59.1918 8.07621 59.1482C7.6106 59.1482 7.20319 58.8572 7.45054 58.377C6.85398 58.4352 4.08943 58.6971 3.91483 58.0278C3.85663 57.795 4.20584 57.6931 4.00213 57.5622C3.95848 57.5331 3.20187 57.5331 3.02726 57.4894C2.1979 57.3148 0.146312 56.4855 0.000809141 55.5252C-0.0864924 54.914 0.626471 55.2341 0.888375 55.2196C1.49949 55.2196 1.92144 54.9722 2.41615 54.6376C2.56166 54.4921 2.18335 54.5794 2.1688 54.3029C2.1688 53.7791 3.04181 53.3572 3.36192 53.1098C3.59472 52.9207 3.75478 52.586 4.07488 52.5278C3.87118 52.2659 3.79843 52.1204 3.97303 51.8003C4.08943 51.5966 5.0643 50.6945 5.31166 50.4617C5.70451 50.0979 6.19922 49.8069 6.60663 49.4577C6.70848 49.254 6.38838 48.1482 6.35927 47.7844C6.19922 45.2963 7.65425 43.6812 9.80769 42.7209C9.51668 42.5609 9.19658 42.4445 8.92012 42.2699C6.72303 40.9312 5.25345 38.6032 2.85266 37.5265C1.93599 37.1191 1.17938 37.2646 0.771973 36.0715C0.451867 35.1402 1.01933 34.8783 0.888375 34.2381C0.815624 33.8453 0.350015 33.3214 0.189963 32.9286C-0.421149 31.4299 0.0153594 29.5675 1.47039 28.7672C2.0524 28.4471 2.76536 28.4471 3.14367 27.8506C3.59472 27.1376 3.37647 26.832 4.27859 26.3082C5.52991 25.5953 6.72303 25.9445 7.71245 25.5371C8.11986 25.3625 8.48361 24.8386 8.86192 24.5913C11.4373 22.9762 14.973 25.8863 16.3844 27.9524C16.2244 25.4498 16.9955 20.168 20.3421 20.2117C20.7204 20.2117 21.3024 20.4881 21.6662 20.3863C21.8408 20.3281 22.2627 19.6879 22.4955 19.4987C22.9757 19.0913 23.6741 18.7275 24.3143 18.7857C24.096 18.2474 23.645 17.7963 23.5577 17.1998C23.4413 16.3558 23.6886 15.1191 24.5326 14.7553C24.8818 14.6098 25.1582 14.6389 25.4492 14.5225C25.7548 14.4061 26.0458 13.9841 26.4677 13.8241C26.9916 13.6204 27.3262 13.7804 27.6754 13.213C28.3156 12.1508 28.0974 11.8307 29.4796 11.2778C32.5789 10.0556 36.1582 11.5397 38.1807 13.9987C37.846 13.2857 37.395 12.631 37.0894 11.8889C35.9836 9.24076 34.9942 3.1442 39.1265 2.63494C39.4902 2.59129 40.3196 2.795 40.3923 2.75135C40.4651 2.7077 41.1199 1.77648 41.3963 1.54367C41.8765 1.13627 42.5749 0.787061 43.2151 0.772511C43.5934 0.772511 44.4082 1.07807 44.5974 1.03442C44.8738 0.961664 45.3103 0.321453 45.7032 0.132299C47.5511 -0.755267 49.2244 1.20902 50.0537 2.63494C50.8394 3.98812 51.4505 5.61775 51.4796 7.18918L51.5669 7.29103ZM49.3699 17.127C48.6278 15.0318 48.9042 12.8347 49.6754 10.7976C49.9664 10.041 50.8249 8.74606 50.9704 8.16404C51.4651 6.22886 49.268 0.801611 47.0273 0.583357C45.6304 0.452405 45.4558 1.60188 44.7865 1.79103C44.35 1.90743 43.5934 1.15082 42.5167 1.61643C41.7019 1.96563 40.9889 3.34791 40.6979 3.43521C40.2032 3.58071 39.563 3.1151 38.69 3.43521C36.3183 4.27912 36.5074 7.88759 37.104 9.83733C37.977 12.6746 41.1199 12.3691 41.8474 14.7553C42.2839 16.1812 41.5855 17.0252 41.731 18.3056C41.8328 19.2222 42.4148 20.299 43.3024 20.6627C43.477 19.295 45.1794 19.6442 45.4558 20.8082L46.7945 21.7249C47.1 21.3611 45.9214 19.8625 45.645 19.5715C45.2958 19.1786 44.2482 18.5966 44.772 17.8545C45.1794 17.2725 45.8632 17.6945 46.1106 18.2619C46.4307 19.0185 46.1106 19.1495 46.1397 19.3823C46.1688 19.6297 47.0127 20.3572 46.9836 20.7791C47.3328 20.6918 47.6384 20.6045 47.973 20.7791C48.3513 20.9974 48.2931 21.4921 48.5987 21.7249L48.2204 18.6257C47.2019 18.5238 46.8818 16.4286 47.7693 16.0503C48.686 15.672 48.977 17.9273 48.6569 18.4802L49.1807 22.0013L49.9955 18.1892C49.9373 17.8691 49.7191 17.5926 49.6754 17.2434C49.5445 15.8175 51.4214 15.963 51.1741 17.4617C51.1013 17.9127 50.7085 18.0437 50.432 18.3492L49.7482 21.7249L50.9122 19.7897C50.9267 19.6297 51.3778 19.3095 51.3778 19.2804C51.4069 18.9312 51.1013 18.7566 51.5669 18.3492C52.2508 17.7672 53.4585 18.1601 52.7455 19.1495C52.309 19.7606 51.7998 19.586 51.5088 19.8334C51.3632 19.9498 50.1701 22.0159 49.9519 22.3797C49.8646 22.5252 49.6172 22.8162 49.69 22.9762C50.4029 22.0741 51.1159 21.3757 52.0035 20.6482C52.0762 20.59 52.1053 20.459 52.1781 20.4008C52.9056 19.8479 52.6873 20.4445 53.1093 19.4114C53.7786 17.7672 55.0445 15.7302 56.3394 14.508C56.4413 14.4061 57.3143 13.7077 57.4016 13.795C57.4453 13.9696 57.2998 14.0278 57.2125 14.1297C56.7468 14.6826 56.1648 15.1773 55.6847 15.7593C54.6225 17.0543 53.8368 18.4656 53.1093 19.9643V20.1098C53.313 20.0953 53.4294 20.1098 53.5894 20.2408C53.7931 20.4008 53.7786 20.6773 53.9677 20.7791C54.3606 19.8916 55.3791 18.5529 56.2958 18.1746C56.3831 18.131 56.5868 18.0291 56.645 18.1455C55.2336 19.1349 54.3315 20.5754 53.4439 22.0159L53.6767 21.1574C53.2111 21.3902 52.8037 21.6667 52.2799 21.463C52.0326 21.3757 52.2363 21.0556 51.6688 21.4921C51.5233 21.6085 49.85 23.2818 49.9519 23.3545C50.3593 23.1799 50.9995 23.0344 51.3632 22.8016C51.6979 22.5834 51.7561 22.2341 52.2217 22.1323C52.6873 22.0304 53.2111 22.2341 53.5167 22.1905C53.6913 22.1614 53.8804 21.9431 54.055 21.8704C56.1066 21.0847 57.9691 21.5066 59.8169 20.0807C61.9704 18.4365 61.4466 15.7884 63.4109 14.1151C64.2839 13.373 65.3169 13.1257 65.5643 11.7725C65.7389 10.8413 65.1714 10.2738 65.2297 9.37172C65.0696 9.15346 64.8513 9.95373 64.8077 10.041C64.6185 10.3902 64.3421 10.8558 64.1093 11.1614C64.022 11.2778 64.0074 11.4233 63.8037 11.3797C63.7019 11.2633 64.5021 9.92463 64.6185 9.66272C64.9968 8.7315 65.3461 7.50928 64.7058 6.60717C63.9492 5.545 62.5087 6.35981 61.4757 5.82145C60.559 5.34129 60.8937 4.17727 59.7587 3.62436C57.3871 2.48944 53.9677 5.31219 52.5273 7.04367C50.3156 9.70637 49.3553 12.3545 49.4572 15.8466C49.4572 16.2249 49.6172 16.5595 49.559 16.9961C49.5445 17.127 49.5008 17.2871 49.3699 17.1416V17.127ZM44.6847 21.7249C44.2336 21.463 43.5789 21.6376 43.186 21.463C42.895 21.332 41.2654 20.2117 40.9598 19.9643C40.2759 19.3677 39.7812 18.713 39.5775 17.8109C39.4757 17.3307 39.5193 16.6468 39.3884 16.2685C39.2865 15.963 37.5259 14.0133 37.1913 13.6931C35.2416 11.8889 32.2587 10.8413 29.6833 11.9326C28.3884 12.4855 28.7667 12.9511 28.141 13.8241C27.6754 14.4643 27.1371 14.2461 26.555 14.5371C26.264 14.6826 26.0603 15.09 25.7693 15.1773C25.2892 15.3228 24.9109 15.1191 24.518 15.6429C24.0669 16.2685 24.1688 17.2725 24.5471 17.8982C24.9691 18.6111 25.6675 18.873 26.2349 19.3677C26.5696 19.6588 27.108 20.459 27.399 20.59C27.8646 20.7937 28.3447 20.4299 28.8103 20.3281C29.5524 20.1535 30.1053 20.1971 30.8037 20.5318C31.1238 20.6773 31.6913 21.2738 31.8368 21.3175C32.186 21.4193 33.2336 21.3757 33.7138 21.4484C34.6013 21.5794 35.6344 21.7976 36.4783 22.1323C40.145 23.5582 42.9386 28.7672 47.3765 26.963C47.973 26.7156 48.4241 26.4392 48.7878 25.8863L48.6423 24.504C48.4241 24.795 47.3328 25.4352 47.2019 25.6535C47.1146 25.799 47.1728 26.0318 47.1 26.2209C46.7945 27.0503 44.932 27.8069 45.1503 26.381C45.1939 26.1336 45.8196 25.2315 46.0087 25.0424C46.0961 24.955 46.1397 24.8678 46.2998 24.8969L46.1106 25.4643C46.2998 25.4643 46.518 25.4934 46.7072 25.4498C46.7799 25.4352 47.6093 24.6931 47.7984 24.5476C47.8712 24.4894 47.973 24.5476 47.9148 24.3294C47.5365 24.5185 46.9836 24.3294 46.649 24.4167C46.518 24.4458 46.5908 24.7513 46.1542 24.8095C44.772 24.9696 43.0405 24.7659 41.7019 24.4167C41.7019 24.2421 41.6582 24.213 41.8474 24.2275C42.7349 24.2712 43.7244 24.6786 44.6701 24.5185C44.0736 23.5 45.354 23.3545 46.1251 23.5873C46.3143 23.6455 46.4453 23.8056 46.6344 23.8492C46.9836 23.922 47.4492 23.8056 47.8275 23.8492L46.6781 23.3254C46.2125 23.3109 45.223 22.8307 44.8447 22.918C44.6701 22.9617 44.5246 23.1654 44.2482 23.1654C42.8804 23.209 42.3421 21.6521 43.8553 21.7394C44.4664 21.7685 44.8302 22.2341 45.3394 22.4524L47.7257 23.2672L45.2376 21.2156L44.19 21.2738C44.3209 21.4921 44.6265 21.3902 44.6701 21.754L44.6847 21.7249ZM41.6146 19.8043C41.4691 19.2804 41.149 18.6839 41.1344 18.131C41.1199 17.5344 41.3818 16.8215 41.4254 16.2249C41.6291 13.3148 39.4029 13.4458 37.7005 11.8744C37.5841 12.0053 39.3593 14.5953 39.5339 14.959C40.0286 16.0357 39.854 16.8651 40.1304 17.8982C40.3632 18.7275 40.9889 19.2804 41.6146 19.8043ZM64.2839 14.1733C62.7125 14.7553 62.5087 16.6468 61.9413 18C61.5921 18.8294 61.0828 19.5424 60.4572 20.1971C60.6318 20.2408 60.69 20.0953 60.7918 20.008C62.6833 18.422 63.2799 16.3122 64.2839 14.1733ZM48.0312 16.5595C47.8421 16.3558 47.7548 16.9815 47.7548 17.0688C47.7548 17.2434 47.9148 18.131 48.1767 18.0873C48.5987 18 48.0603 16.7924 48.0312 16.5595ZM50.3156 17.709C50.6066 17.9855 50.8976 16.4868 50.2138 16.8069L50.3156 17.709ZM74.1926 18.5093C73.5378 17.8254 72.5339 17.6363 71.6172 17.7381C71.0207 17.8109 70.5405 18.1019 69.973 18.1892C69.2164 17.6508 68.7508 16.836 67.6741 16.836C65.0114 16.836 62.3341 20.1244 59.8752 21.0992C58.0127 21.8413 56.0193 21.7394 54.1423 22.3506C53.4294 22.5834 53.8222 22.5252 53.5603 23.0053C53.2548 23.5728 52.149 23.4273 51.6397 23.2672L50.0392 23.922C50.5048 23.9074 51.2177 24.3148 51.6251 24.3148C51.8434 24.3148 51.9453 24.1402 52.1053 24.1257C54.3897 23.8056 56.645 23.2381 58.9876 23.3545C60.3262 23.4127 61.6357 23.7328 62.9453 23.9365C62.9744 24.0966 62.727 24.0238 62.6106 24.0238C61.563 24.0675 60.5008 23.791 59.4532 23.7328C57.4453 23.631 55.4082 23.7328 53.473 24.213L54.0405 24.8386C55.7574 24.5913 57.7654 24.5913 59.3077 25.508C59.3659 25.5371 59.6714 25.5953 59.4968 25.7408C59.4241 25.799 57.94 25.2461 57.6053 25.1879C56.8341 25.0569 54.4042 24.8678 53.8077 25.2606C53.6913 25.3334 53.5894 25.4934 53.473 25.5953C54.7244 26.7593 56.1503 27.6469 57.7945 28.1561C60.3699 28.9564 62.4069 28.7236 64.3712 30.9498C65.1133 31.7937 65.0987 32.3466 66.3355 32.7103C70.5259 33.918 74.9201 30.3532 75.9386 26.4101C75.8222 26.3082 74.9929 27.1958 74.891 27.3267C74.7164 27.545 73.8434 29.2037 73.5524 28.8982C73.5233 28.7818 73.5524 28.709 73.6106 28.6217C73.7561 28.2434 74.44 27.1812 74.7019 26.8466C75.022 26.4537 76.3315 25.5371 76.4043 25.2897C76.7971 23.9656 75.5167 24.082 74.8037 23.5873C74.3672 23.2818 73.9744 22.6852 73.9453 22.1468C73.8725 20.8228 75.6622 20.0516 74.1926 18.5093ZM45.7323 18.9458C45.7759 18.5675 45.645 18.0437 45.1648 18.0873C45.1212 18.4802 45.3831 18.8148 45.7323 18.9458ZM25.3328 39.0979C25.5947 38.9088 25.6675 38.5886 26.1767 38.4431C26.7005 38.2976 26.9188 38.6468 27.1225 38.6323C27.4572 38.6032 28.4029 37.5701 28.6066 37.25C29.1741 36.3043 29.4651 34.6164 29.3923 33.5397C29.3341 32.6376 28.9267 31.8373 28.9413 30.877C28.9995 28.3016 31.2257 28.1416 31.7204 25.9445C32.1714 24.0093 32.2296 20.6773 29.4214 20.881C28.4611 20.9537 27.7045 21.6958 26.8024 20.9246C26.5841 20.7355 26.3804 20.3135 26.1767 20.1244C25.391 19.3968 24.3434 19.1786 23.3976 19.7315C22.8302 20.0662 22.3791 20.9683 21.899 21.1138C21.4916 21.2302 20.8077 20.8955 20.3421 20.881C18.0868 20.8519 17.141 24.7222 17.0392 26.4683C16.85 29.6839 17.7521 33.6125 20.4876 35.5622C20.1238 36.0569 19.3963 35.3439 19.1053 35.0384C17.0828 32.8995 17.272 30.0476 15.555 27.7778C14.2601 26.0609 11.2773 23.7765 9.13838 25.2606C8.87647 25.4352 8.71642 25.6826 8.48361 25.8572C7.31959 26.7447 5.0934 26.0463 4.08943 27.3995C3.82753 27.7487 3.68203 28.3889 3.36192 28.6799C2.57621 29.3638 1.44129 29.0291 0.815624 30.5278C0.0153594 32.4339 1.36853 33.0304 1.51404 34.3836C1.58679 35.0529 1.12118 35.4021 1.44129 36.1733C1.95054 37.381 3.94393 36.9736 5.0352 37.1627C7.11589 37.5265 7.77065 39.0543 9.19658 40.2619C10.2442 41.1495 11.6119 41.8479 12.9505 42.1535C13.94 42.3863 15.3804 42.3281 16.2098 42.6191C16.4572 42.7064 16.6027 42.8228 16.7627 43.0265C16.8064 43.2447 16.6609 43.1574 16.5299 43.172C15.2931 43.3029 14.0564 43.6376 12.805 43.5503C12.2521 43.5212 11.0299 43.1283 10.6225 43.1865C9.32753 43.3902 7.43599 45.049 7.05769 46.3294C6.30107 48.9484 8.33811 50.2143 8.25081 51.8148C8.20716 52.4987 8.00346 52.7024 8.42541 53.459C8.77462 54.0847 9.50213 53.9101 10.0696 54.1138C11.2918 54.5357 11.0445 56.2527 12.3103 56.6455C13.809 57.1111 14.6966 55.9035 16.0789 55.8307C17.6357 55.758 18.6688 56.9365 20.2984 56.5873C21.8408 56.2672 23.6159 53.5027 24.7654 52.455L26.555 47.9299C24.9836 46.8677 24.9109 44.1905 26.2204 42.9101C27.0643 42.0807 27.6609 42.6191 28.3302 42.3426C28.6503 42.2117 29.145 41.0331 29.5233 40.6693C30.9929 39.2434 33.7138 39.8691 35.2125 40.9603C34.6886 39.0397 34.7759 37.1627 35.2125 35.2275C33.4664 34.2527 31.5894 34.9074 30.1926 36.1733C29.5378 36.7699 29.1304 37.6138 28.5193 38.2394C28.272 38.5013 27.3553 39.0834 27.3117 39.1416C27.1662 39.3744 27.3699 39.5926 27.3408 39.7527C27.3117 39.9273 26.4968 40.4656 26.4095 40.3783L26.7005 39.8982C26.2204 40.3201 25.5511 39.6217 25.3328 39.6217C25.2746 39.6217 24.6635 39.9418 24.5617 40C24.0378 40.3638 23.8778 40.873 23.9214 41.5133C24.6199 41.6442 24.649 40.9894 25.231 40.873C26.7296 40.5675 26.686 42.7209 25.1291 42.3572C24.7799 42.2699 24.5035 41.7752 23.9069 41.9934V42.3281L23.1357 42.4736C23.1066 42.5027 23.2812 43.2593 23.3394 43.3611C23.4413 43.5648 23.6159 43.5648 23.7032 43.6958C24.358 44.6125 23.5431 45.791 22.7429 45.0199C21.9426 44.2487 23.3249 43.5939 22.5974 42.7646L21.3315 43.7394C21.6516 45.049 19.3963 45.8638 19.731 44.2924C19.891 43.5357 20.473 43.6667 20.9386 43.4775C21.2442 43.3611 21.6225 42.8228 21.899 42.6191C22.0736 42.5027 22.3355 42.5463 22.3791 42.3717C21.4625 42.4008 20.3857 42.4299 19.4691 42.5754C18.6688 42.7064 18.2759 43.2884 17.4466 43.2447C16.5299 43.1865 16.6609 42.1389 17.5484 41.9934C18.1741 41.8916 18.4651 42.1826 18.9744 42.1826L21.9863 41.8916C21.4188 41.8916 20.8659 41.7315 20.3275 41.6006C19.6873 41.4405 18.4505 40.9021 17.9122 40.8585C17.4902 40.8148 17.2865 41.2659 16.5299 41.004C15.3659 40.5966 15.8169 39.0688 17.1992 39.8691C17.4757 40.0291 17.5921 40.291 17.8976 40.422C18.6251 40.7421 19.8037 40.8439 20.5749 41.1349C19.44 40.3201 18.436 39.3162 17.0974 38.8215C16.1953 38.123 17.3593 36.959 18.2323 38.0648C18.5087 38.414 18.4796 38.7924 18.6542 39.0543C18.7998 39.258 19.3963 39.5344 19.5709 39.7963C19.9056 39.1998 20.1966 39.2289 20.764 39.5053C20.1238 39.0252 19.44 37.7447 18.858 37.3519C18.6106 37.1773 18.3196 37.1627 18.0577 37.0027C16.8937 36.2897 17.5048 34.7474 18.436 35.5767C18.9307 36.0278 18.7998 36.5516 19.0471 36.9736C19.2363 37.3082 20.0802 37.963 20.3421 38.3558C20.473 38.0066 20.4439 37.7447 20.9095 37.7738C21.6662 37.8175 21.4916 39.1998 22.0008 39.5053C21.9717 39.0543 21.6371 38.6032 21.5498 38.1958C21.4916 37.9484 21.5789 37.672 21.4333 37.2646C21.2878 36.8572 20.9823 36.5371 20.8368 36.1442C20.1529 34.2963 21.8844 33.918 22.0008 35.6495C22.0299 36.1733 21.768 36.5516 21.8262 36.959C21.9135 37.541 22.2773 38.2831 22.3791 38.8942L23.1503 40.5675C23.0193 39.2725 22.8302 37.9921 23.0193 36.6826C22.1027 36.377 22.2627 34.3109 23.1939 34.4418C24.1688 34.9656 23.514 35.9259 23.4413 36.6971C23.3831 37.2937 23.4413 37.963 23.4849 38.5595L24.4744 36.8717L26.0167 33.3942C25.6238 35.3439 24.7072 37.3664 23.4849 38.9233L23.5722 40.1892C24.1688 39.5781 24.518 38.7051 24.9836 37.963C25.391 37.3082 25.3474 37.6283 25.4783 36.8426C25.6384 35.9114 27.4135 35.6786 27.0207 36.9445C26.8024 37.6574 25.9585 37.5701 25.682 37.8029C25.391 38.0503 25.1291 38.9088 24.7799 39.1852C24.8672 39.2871 25.2455 39.1707 25.3183 39.1125L25.3328 39.0979ZM44.8738 20.7646C44.7865 20.2408 44.1318 20.0953 43.8262 20.5318L44.8738 20.7646ZM53.182 20.5754C52.9929 20.4881 52.4254 20.7646 52.4254 20.9101C52.4254 21.172 53.3712 21.0119 53.182 20.5754ZM43.5352 27.3704C40.8434 26.6138 39.3302 24.0384 36.9148 22.8598C35.4598 22.1468 33.6701 21.8558 32.0696 21.8267C32.4043 22.3797 32.4333 23.0199 32.4916 23.6455C34.7323 25.0569 37.4386 25.2024 39.8831 26.1045C40.9889 26.5119 42.0947 27.1958 43.2296 27.4431C43.3315 27.4577 43.5643 27.545 43.5352 27.3704ZM44.3937 22.3942C44.0881 22.3651 43.6953 22.0159 43.4333 22.3506C43.4333 22.467 44.4519 22.9617 44.3937 22.3942ZM53.0947 22.6852C52.9929 22.5834 52.0471 22.4815 52.1344 22.8744C52.2363 22.9617 53.3712 22.9762 53.0947 22.6852ZM46.1106 24.1111C45.7323 23.9656 45.4558 23.922 45.063 24.0093C45.0339 24.1984 45.0484 24.1693 45.1794 24.2275C45.354 24.3003 46.4016 24.3876 46.1106 24.1111ZM40.5669 26.8902C38.8064 26.1336 36.8566 25.9445 35.0378 25.3916C34.1357 25.1151 33.3209 24.6349 32.4333 24.3148C32.2587 25.7117 32.608 27.0503 32.4043 28.4471C32.0696 30.7752 30.9492 33.3069 30.1344 35.504C30.6582 35.2712 31.0947 34.9074 31.6331 34.6601C31.9241 34.5291 32.2151 34.4564 32.5207 34.34C32.2878 32.7394 32.608 31.008 33.9175 29.9603C34.936 29.1455 35.809 29.3929 36.8275 28.9564C37.4968 28.6654 38.1225 27.9379 38.7627 27.545L40.5524 26.8902H40.5669ZM48.9915 32.6085C49.981 32.754 50.9849 33.4524 51.1595 34.5146C51.2177 34.8929 51.1595 35.2712 51.1886 35.6349C51.3632 37.3373 52.9201 39.2434 54.6953 39.4035C56.0048 39.5199 57.0669 38.6323 58.5365 38.9961C58.8275 39.0688 59.1185 39.3453 59.2931 39.3889C60.0934 39.5781 62.3487 38.1376 63.4836 38.0648C64.3712 38.0066 65.4479 38.545 66.2336 38.4286C66.7283 38.3558 67.1648 37.7738 67.645 37.541C68.2998 37.2064 69.2019 37.09 69.2746 36.1006C69.3328 35.1693 68.4453 35.4021 67.9069 35.2712C65.5352 34.7328 65.2733 32.6667 63.8765 31.1826C61.8976 29.0873 59.1476 29.3492 56.6886 28.3307C54.5934 27.4577 53.4585 25.8426 51.6833 24.9259C51.436 24.795 50.141 24.373 49.8209 24.3003C49.6754 24.2712 49.6609 24.3003 49.69 24.4312C50.1119 24.7077 50.4466 25.4498 50.7958 25.7262C51.1886 26.0318 51.8871 25.8572 52.0617 26.7593C52.3527 28.3162 50.5048 27.8215 50.2865 26.8175C50.2138 26.4828 50.4029 26.1336 50.3156 25.9299C50.1992 25.6826 49.4281 24.9696 49.2098 24.6786C49.3262 25.2315 49.268 25.799 49.3117 26.3373C49.3408 26.6283 49.5008 26.832 49.5008 27.2103C49.5008 28.0543 49.0788 29.2619 49.0206 30.1786C48.9624 30.9789 49.0498 31.8082 49.0206 32.6085H48.9915ZM53.473 24.7804L52.1344 24.5913C52.0617 24.9259 52.4982 24.7222 52.731 24.795C52.9638 24.8678 52.891 25.1442 53.3275 24.9842C53.4148 24.9405 53.6185 24.9405 53.4585 24.7804H53.473ZM46.4016 26.0318C46.0087 26.0027 45.6595 26.3082 45.6304 26.7011C45.9069 26.8611 46.4453 26.0754 46.4016 26.0318ZM51.5669 27.2685C51.6251 26.7738 51.2032 26.3082 50.7085 26.3082C50.7376 26.7593 51.0431 27.3413 51.5669 27.2685ZM48.8897 27.7487C48.9333 27.3413 49.0789 26.9775 48.846 26.5992C48.6132 26.9484 48.4241 27.2394 48.6714 27.6177C48.7296 27.705 48.6714 27.7924 48.8897 27.7341V27.7487ZM30.0471 34.4418C30.7746 32.0119 31.9677 29.5675 31.9532 26.9921L31.3275 27.8506C29.2905 29.4074 29.1159 31.0225 29.9162 33.3797L30.0326 34.4564L30.0471 34.4418ZM48.6714 28.2434C48.6714 28.2434 48.3659 28.0979 48.2204 27.8797C48.0458 27.6032 48.0458 27.2831 47.973 26.9921C47.4783 27.836 46.2416 27.7051 45.6741 28.0397C45.4122 28.1852 44.8738 28.8836 44.5828 29.1455C44.1754 29.5093 43.7244 29.8148 43.2878 30.1495C43.1569 30.0767 43.2733 29.9021 43.3315 29.8148C43.7244 29.2328 44.7138 28.5926 45.1503 27.9961C44.8302 28.0397 44.4519 27.9961 44.1463 28.0543C43.7535 28.1125 43.055 28.9127 42.7058 29.1892C42.022 29.7275 41.2363 30.3968 40.3632 30.5278L42.2257 29.1892L43.5207 27.9524C42.764 27.9524 41.9056 27.4722 41.1781 27.4722C38.981 27.4722 38.3408 29.1019 36.7111 29.6111C36.1873 29.7712 35.6053 29.7857 35.0815 29.9894C33.4519 30.6151 32.6516 32.623 33.1172 34.2527C33.9757 34.1654 34.6304 34.3982 35.4016 34.7474C35.94 32.7103 37.7442 30.7897 39.9267 32.0847C40.6688 32.5212 40.7561 33.1177 41.7455 32.623C42.8222 32.0847 44.1463 30.3969 45.4413 31.4445C45.8923 31.8082 46.0815 32.5648 46.5326 32.7394C47.1291 32.9722 47.7693 32.5794 48.4095 32.6376C48.1476 32.0556 48.7878 28.4471 48.6714 28.258V28.2434ZM47.4347 45.6019C47.522 45.5437 48.1767 43.9722 48.2058 43.754C48.3077 42.9101 47.8566 42.459 47.8275 41.7461C47.7693 40.422 49.3262 39.2871 49.9228 38.1958C50.5484 37.0463 51.1741 34.4418 49.8791 33.5979C48.5405 32.7103 47.3765 33.7289 46.3143 33.2487C45.6159 32.9431 45.2667 31.7355 44.6265 31.6773C43.6225 31.5754 42.4294 33.2633 41.4691 33.3942C40.4651 33.5252 40.2323 32.914 39.4902 32.5212C38.0788 31.7937 37.104 32.5939 36.4492 33.8162C35.4016 35.7222 35.1251 38.5741 35.7654 40.6548C36.1873 42.0225 37.2786 42.6627 38.1225 43.7394C38.6609 44.4379 39.7376 46.5476 40.1741 46.9114C40.3778 47.086 40.8871 47.0278 41.2363 47.4061C41.6437 47.8572 41.3963 48.2791 41.5127 48.4683C41.6291 48.6574 42.8368 49.836 43.055 49.9961C43.2005 50.1125 43.3315 50.258 43.5352 50.2289L42.182 47.0278C41.9492 46.7077 41.0762 47.0278 40.8871 46.0238C40.6397 44.7289 42.1384 44.4379 42.3566 45.5146C42.4876 46.1839 42.4003 46.213 42.6622 46.9259C42.9823 47.7408 43.2587 48.6283 43.5934 49.4286C43.7098 49.705 43.8699 50.1125 44.0881 50.3162C43.9863 49.8651 43.9135 49.2394 43.7098 48.832C43.5207 48.4392 43.2005 48.3519 43.2151 47.7844C43.2587 46.664 44.772 46.7368 44.6701 47.8863C44.641 48.1773 44.4082 48.2791 44.4228 48.5119L44.7574 49.3558L44.932 45.7765C43.0405 44.3069 45.4849 42.4008 45.7177 44.918C45.7614 45.4564 45.6013 45.5437 45.3394 45.9656L45.2376 48.8757L46.3725 46.8968C46.0669 46.3876 46.2998 45.9511 46.8236 45.7328C47.0273 45.6455 47.3619 45.6455 47.4201 45.6164L47.4347 45.6019ZM23.1648 36.0569C23.1503 35.6786 23.4413 35.213 23.1212 34.9074C22.8593 35.1839 22.8447 35.5913 22.9611 35.9259C23.0048 36.0569 22.932 36.086 23.1648 36.0569ZM21.5352 36.1588C21.5352 35.7659 21.5643 35.2275 21.1569 35.0093C21.1569 35.3148 21.2151 35.6495 21.3169 35.9405C21.3751 36.086 21.2587 36.2024 21.5352 36.1442V36.1588ZM26.6132 36.5371C26.1331 36.4789 25.9876 36.7699 26.0458 37.2064C26.2931 37.0318 26.686 36.9154 26.6132 36.5371ZM51.0868 37.1191H50.8976C51.3632 39.2143 50.9413 41.4987 50.3302 43.5212C51.4796 42.168 52.7019 40.7421 54.346 39.9855L53.3275 39.5199C52.4109 38.9524 51.4942 38.1376 51.1013 37.1191H51.0868ZM12.4122 42.9537C12.9796 42.9974 13.6053 42.9101 14.1873 42.9537C14.2601 42.6191 13.6344 42.7937 13.3871 42.75C11.6992 42.4736 10.1278 41.717 8.83282 40.6111C7.26139 39.2725 6.59208 37.6283 4.20584 37.5992C4.10398 37.5992 3.94393 37.541 3.95848 37.7011C6.21377 38.7633 7.56695 41.1204 9.82224 42.2117C10.5498 42.5609 11.6265 42.881 12.4267 42.9537H12.4122ZM18.1013 38.7341C18.1013 38.5304 17.4175 37.832 17.3302 38.2103C17.2865 38.4286 18.014 38.7924 18.1013 38.7341ZM47.4492 47.1587C47.6529 46.5476 48.2349 46.3294 48.5987 45.8638C49.3553 44.918 50.2283 42.0953 50.4029 40.873C50.5339 39.9418 50.4611 39.0688 50.6066 38.1667L48.4532 41.1204C48.1622 42.2117 49.0498 42.8664 48.6423 44.2778C48.4095 45.0781 47.9585 45.3254 47.682 45.8056C47.6529 45.8638 47.7693 46.2275 47.6529 46.5476C47.4347 47.1588 46.9545 47.0132 46.6781 47.2897C46.6053 47.3625 45.6741 49.0794 45.6304 49.2103C45.6159 49.254 45.6013 49.3704 45.6741 49.3558L48.1185 46.9114L47.4492 47.1442V47.1587ZM66.0008 38.836C65.3024 38.9379 64.604 38.6032 63.9492 38.545C62.7998 38.4722 61.2138 39.2725 60.0352 39.5926C59.9042 39.6217 59.7442 39.5926 59.7005 39.7818C61.4757 39.9564 63.1344 40 64.8368 39.4326C65.2151 39.3016 65.7535 39.1416 66.0008 38.836ZM26.7005 38.9379C26.5259 38.8215 25.9876 39.0979 25.8566 39.258C26.104 39.549 26.5114 39.3744 26.8169 39.3016L26.7151 38.9233L26.7005 38.9379ZM59.9188 42.2408C59.2058 41.5133 59.9916 39.6072 58.0273 39.4035C55.481 39.127 52.2072 41.9207 50.8249 43.8704C50.3593 44.5252 49.5881 46.213 49.1807 46.6349C49.0206 46.795 48.8897 46.6349 48.7442 46.7513C48.555 46.9114 48.1913 47.4934 47.9876 47.7262C47.5074 48.2355 46.9836 48.7011 46.5035 49.2103C46.6053 49.3704 46.7072 49.1667 46.7945 49.1085C47.0709 48.9193 47.8421 48.4683 47.9876 48.2937C48.1476 48.1045 48.1185 47.9008 48.3077 47.668C48.8169 47.0714 50.141 46.8532 49.9228 47.9445C49.69 49.0794 48.7296 48.4974 48.2349 48.6429C47.9585 48.7302 46.4307 49.7923 46.0961 50.0397C45.8487 50.2289 45.6013 50.4471 45.3685 50.6508L46.9254 50.1998C47.3037 49.6468 47.682 49.4722 48.3804 49.545C49.1225 49.6323 49.399 50.418 48.6569 50.7818C47.7111 51.2328 47.6093 50.6654 47.0564 50.6945C46.5471 50.7236 45.7177 51.2037 45.1794 51.3201C45.6159 51.4656 46.3871 51.8439 46.7945 51.9021C47.1 51.9312 47.522 51.8148 47.9003 51.8439C49.6318 52.004 49.4572 53.6918 47.7402 53.1535C47.0855 52.9498 47.0273 52.5569 46.6344 52.3386C46.1542 52.0767 45.3249 51.9603 44.7865 51.7421C45.1939 52.0185 45.5868 52.9061 45.8632 53.1535C46.2561 53.4881 46.9691 53.2553 46.9982 54.1865C47.0418 55.7871 44.5246 54.3902 45.4122 53.2844L44.1609 51.8439C44.1609 51.8439 43.7389 52.5278 43.7244 52.6587C43.7098 52.9352 44.0154 53.0807 44.0154 53.4154C44.0154 53.9246 43.6371 54.2738 43.1132 54.1138C42.8804 54.041 42.9532 53.7791 42.764 53.75C42.8659 54.3611 42.3421 54.9577 41.9492 55.3797C41.5127 55.8598 41.018 56.3109 40.3778 56.4855C39.8685 56.631 38.85 56.5437 38.559 56.6746C37.846 56.9947 36.7111 58.7844 36.6529 59.5556C36.5511 60.836 37.395 60.5886 37.7733 61.1852C38.0061 61.549 37.977 62.131 38.1225 62.5529C38.7482 64.3572 40.6979 63.2077 41.9929 63.455C43.4625 63.7315 43.5643 65.6376 45.3685 65.4048C47.7548 65.1138 47.6238 61.5926 49.7482 61.0834C50.7667 60.836 51.4505 61.4471 52.4545 61.3016C53.5603 61.1416 54.3169 59.381 54.4042 58.377C54.7535 54.7394 50.9704 53.7355 48.7005 51.9603C48.5841 51.873 48.4386 51.8439 48.4823 51.6548C48.7151 51.4511 50.3156 52.2804 50.6503 52.3968C51.6688 52.7606 52.9929 53.1535 54.0696 53.1826C56.063 53.2553 56.8341 51.4947 58.5511 50.9855C59.9625 50.5635 61.4175 51 62.8725 50.3453C63.8474 49.9087 65.0987 48.4828 64.8659 47.3625C64.7058 46.5767 63.891 46.2421 63.7746 45.7765C63.5709 44.9035 64.5167 43.754 63.3672 42.9392C62.2468 42.1389 60.7191 43.1574 59.8752 42.2844L59.9188 42.2408ZM17.2429 40.5529C17.2283 40.3201 16.4426 39.8836 16.3844 40.2183C16.3262 40.5238 17.0537 40.5966 17.2429 40.5529ZM22.7865 41.6006L21.0696 40.0728C21.0987 40.2619 21.0114 40.6984 21.0841 40.8294C21.1278 40.9021 22.5537 41.5133 22.7865 41.6151V41.6006ZM42.2257 49.7924C41.9929 49.545 41.3963 48.7447 41.1344 48.6283C40.7416 48.4537 40.2032 48.7738 39.854 48.2937C39.432 47.6971 40.0286 47.3043 39.9558 47.1442C39.141 46.4167 38.7045 45.3982 38.0643 44.5397C36.5802 42.5027 34.0048 40.0291 31.2548 40.3783C29.436 40.5966 29.596 42.1389 28.7085 42.7064C27.9955 43.1574 27.2971 42.4299 26.4677 43.4339C25.7548 44.3069 25.6238 45.6892 26.1767 46.664C26.8897 47.9008 28.4902 48.0609 29.3778 49.0066C30.4982 50.2289 30.4836 52.2222 31.9241 53.2408C33.4228 54.3029 35.7217 53.9392 37.4095 53.5027C37.7151 53.4299 39.9122 52.7024 39.9849 52.586C39.9849 52.5714 39.854 52.3532 39.9267 52.1058C39.9995 51.8585 40.3487 51.6839 40.4651 51.4365L35.2998 49.4286C37.0312 49.3267 38.9228 50.4035 40.436 51.2183C40.5524 51.2765 40.5524 51.4365 40.6106 51.4365C40.7124 51.4365 40.8434 51.3347 40.9889 51.3347C41.149 51.3347 41.309 51.422 41.4545 51.4074C41.7746 51.3783 42.473 51.0437 42.8513 51C42.3421 50.6363 41.3818 50.0979 40.7707 50.0106C40.3778 49.9524 40.1886 50.1561 39.8394 50.1852C38.4135 50.3307 38.7482 48.541 40.0868 48.8902C40.4651 48.9921 40.596 49.3122 40.858 49.4577C41.1344 49.6177 42.3421 50.1852 42.6185 50.2725C42.6622 50.2871 42.7786 50.3016 42.764 50.2289C42.6331 50.0252 42.3712 49.9088 42.2257 49.7632V49.7924ZM25.0855 41.7897C25.2019 41.9643 25.9148 41.8916 25.8421 41.5569C25.7984 41.3386 25.2892 41.4114 25.1291 41.4987C25.0418 41.5133 25.0564 41.7461 25.0855 41.7897ZM20.2984 44.758C20.5021 44.918 20.9532 44.0886 20.8659 43.8995C20.5603 43.9431 19.9492 44.4961 20.2984 44.758ZM23.354 43.8995C23.1503 43.6958 22.9175 44.5543 23.0775 44.6561L23.4558 44.6125L23.354 43.8995ZM45.2521 45.2381L44.9175 44.1905C44.4082 44.3942 45.0921 45.4127 45.2521 45.2381ZM41.5418 46.2712C41.9492 46.7077 42.0802 45.5291 41.6582 45.34C41.3236 45.2672 41.3672 46.082 41.5418 46.2712ZM41.0471 48.1045C41.309 47.8572 39.9995 46.9114 40.3778 48.0609L41.0471 48.1045ZM49.4572 47.6389C49.3699 47.5516 48.4386 47.9881 48.5987 48.2064C49.0643 48.4537 49.3844 48.0754 49.4572 47.6389ZM31.3857 53.5609C29.6979 52.0913 30.018 49.2103 27.559 48.4974C28.9849 50.0688 29.0868 52.8625 31.3857 53.5609ZM31.3712 54.1429C29.0286 53.5318 28.6503 51.0291 27.5008 49.2685C27.4135 49.1376 27.0789 48.4683 26.9333 48.6865C26.3659 49.545 26.9333 50.4035 26.7878 51.3638C27.0498 51.2474 27.4572 51.7712 27.6463 51.9894C28.7958 53.2844 29.9453 55.2196 29.8434 57.0093L29.5378 55.9326C29.1159 54.7976 28.4757 53.7937 27.7773 52.8043L26.8751 51.7421C26.8169 52.0913 26.9625 52.4114 26.977 52.7461C26.9916 53.1971 26.8751 54.2011 26.977 54.5503C26.9916 54.623 27.1953 54.6812 27.2826 54.8267C28.0392 56.1072 28.3593 57.8241 28.3156 59.2937C28.0537 59.3373 28.1556 59.25 28.0974 59.09C27.8646 58.3916 27.9082 57.5331 27.69 56.8056L26.977 54.7976C26.9625 57.6786 26.2204 60.8942 24.0524 62.9167L23.0484 63.586C24.1688 63.3386 25.1873 63.0767 26.1622 62.4365C26.7733 62.0291 27.7191 61.418 27.7336 60.6177C28.1265 60.5595 27.9082 61.0252 28.1119 61.0979C28.3156 60.5886 28.7085 60.1812 28.9413 59.6865C29.0577 59.4246 29.1159 58.9154 29.2614 58.7553C29.5524 58.4207 29.6979 58.799 29.8143 58.959C29.8725 59.0463 29.7998 59.1336 30.0326 59.09C30.3963 57.9259 30.5418 56.7183 30.6146 55.5106C30.6437 55.1323 30.309 54.754 30.9347 54.6958L31.3712 55.0886V54.1429ZM40.2759 49.545C40.0577 49.4868 39.4175 49.123 39.4175 49.5886C39.4175 49.7778 40.2323 49.836 40.2759 49.545ZM7.68335 51.6402C7.85795 51.3929 7.04314 50.258 7.01404 49.9233L5.10795 51.4074C4.96245 51.6984 5.64631 51.3783 5.73361 51.3638C6.37383 51.3056 7.10134 51.3201 7.68335 51.6402ZM23.2667 59.5847C23.7759 58.2315 24.7363 56.8492 25.6529 55.7143C26.2349 55.0013 26.6132 55.0886 26.7005 53.9974C26.8024 52.6588 26.555 51.2619 26.5114 49.9233C26.3513 49.9524 26.3513 50.1125 26.2931 50.2289C25.231 52.4405 24.6781 54.8995 22.6847 56.5728C22.6119 56.631 22.4955 56.8201 22.3937 56.6746C23.0775 55.8889 23.7177 55.0159 24.1979 54.0847C24.2415 53.9974 24.4016 53.8373 24.2561 53.7646C23.2812 54.9577 22.2191 56.0781 20.9823 56.9802C20.895 57.2566 20.9532 58.3916 21.1132 58.6389C21.2151 58.799 21.7826 58.377 22.0154 58.5516C22.2918 58.8863 21.9281 59.1627 21.9717 59.3955C22.0736 59.9921 22.7283 60.6177 22.8884 61.2143C23.1648 61.2434 23.0921 60.9524 23.3831 60.8069C23.4995 60.7487 23.6159 60.7196 23.7323 60.7341C23.9651 60.8942 23.3249 62.6839 23.1648 62.9894C23.063 63.164 22.932 63.3241 22.7865 63.4696C22.772 63.5423 22.8884 63.5278 22.932 63.5132C23.0048 63.4841 23.9214 62.6402 24.0378 62.5093C25.7257 60.7196 26.2786 57.6495 26.6132 55.2923C26.0749 55.9035 25.4929 56.5146 24.9982 57.1548C24.3871 57.9405 23.8778 58.799 23.2812 59.5847H23.2667ZM48.5987 50.1125C48.3804 50.0979 48.2204 50.0106 47.9876 50.0252C47.9003 50.0252 47.4783 50.0834 47.5511 50.258L47.813 50.4908C48.0458 50.549 48.4823 50.3453 48.5987 50.127V50.1125ZM61.4611 51.2619C60.9519 51.3056 60.3553 51.2619 59.8315 51.2619C59.7442 51.2619 59.1476 51.3638 59.0167 51.4074C57.7799 51.6984 57.0669 52.6879 55.9611 53.1826C55.9611 53.3426 56.3831 53.2844 56.4849 53.2844C58.1291 53.1971 60.4135 52.2368 61.6939 51.2183C61.6212 51.0582 61.4757 51.2619 61.4611 51.2619ZM43.6225 51.4511L41.9056 51.7421C41.9929 52.2077 41.5127 52.6442 41.1199 52.8334C40.596 53.0807 40.727 52.9352 40.2323 53.3426C39.1119 54.2593 37.8751 55.2632 36.3474 55.2341C37.7005 56.1508 39.8685 56.5146 41.1781 55.3797C41.4691 55.1323 42.5021 53.881 42.604 53.5609C42.6476 53.4154 42.5021 53.2408 42.604 52.9789C42.6913 52.7752 43.0841 52.6297 43.2151 52.4405C43.2587 52.3823 43.6516 51.4802 43.608 51.4511H43.6225ZM7.5815 51.7421H5.34076L4.62779 52.455L4.81695 52.6442L3.10002 53.9828C3.74023 54.1865 2.54711 55.1759 2.27065 55.3506C2.03785 55.4961 1.74684 55.5979 1.47039 55.6561C1.52859 55.8307 2.0233 55.8598 2.18335 55.8598C3.97303 55.8307 6.14102 55.0013 7.4942 53.8373C6.33017 53.7209 5.25345 53.75 4.10398 53.8373C4.00213 53.8373 3.75478 53.9101 3.76933 53.75C5.13705 53.4299 6.47568 53.3863 7.8725 53.5609C7.727 52.9207 7.29049 52.4259 7.5815 51.7421ZM41.4254 51.8439C41.0471 51.8003 40.436 51.9894 40.3778 52.4114C40.4942 52.5132 41.3527 52.0331 41.4254 51.8439ZM48.5987 52.5132L47.3619 52.3241C47.3183 52.5714 47.4056 52.4987 47.5511 52.5714C47.8275 52.717 48.6132 53.0371 48.6132 52.5278L48.5987 52.5132ZM39.2283 53.459L35.3143 54.5066C36.7402 55.0886 38.1371 54.3466 39.2283 53.459ZM46.4889 54.4193C46.5762 53.9828 46.1251 53.6773 45.7323 53.6482C45.7032 54.1138 46.0669 54.3757 46.4889 54.4193ZM8.35266 54.041L6.98494 54.914C5.38441 55.8016 3.75478 56.2672 1.90689 56.1363C1.57224 56.1072 1.23758 55.918 0.902926 55.9908C2.09605 56.9074 3.52197 57.2275 5.0061 57.2421L5.16615 57.4894L4.72965 57.955C5.1516 57.8677 5.63176 58.0569 6.01007 58.0569C6.78123 58.0569 8.57092 57.1548 8.07621 58.6244C9.63309 58.6826 10.9717 58.0132 12.2812 57.2857C11.9902 56.9947 11.5246 56.8638 11.2336 56.5728C10.9717 56.3109 10.8553 55.9908 10.6807 55.6852C10.6516 55.627 10.6807 55.496 10.5207 55.5688C10.4042 55.627 9.85134 56.5873 9.66218 56.8056C9.57488 56.9074 8.84737 57.6786 8.76007 57.5622C8.73097 57.4021 8.83282 57.3148 8.92012 57.1839C9.21113 56.7037 9.82224 55.7725 10.1569 55.3651C10.2442 55.2487 10.346 55.1759 10.4916 55.1759V55.0304C10.0696 54.4339 9.44393 54.3902 8.76007 54.3611C8.55637 54.6958 8.36721 55.045 8.13441 55.3651C7.9598 55.6125 6.43203 57.5185 6.18467 57.2857L8.25081 54.4339L8.38176 54.041H8.35266ZM50.3156 61.4908C49.8355 61.5344 49.3844 61.7381 49.0352 62.0728L47.6384 64.3572C48.5841 63.4259 49.1371 62.2328 50.3156 61.4908Z" fill="#AF7250"/>
<path d="M31.3853 53.5596C29.0864 52.8612 28.9845 50.0675 27.5586 48.4961C30.0176 49.2091 29.6975 52.09 31.3853 53.5596Z" fill="#AF7250"/>
<path d="M7.68194 51.6388C7.09993 51.3187 6.37241 51.3041 5.7322 51.3623C5.63035 51.3623 4.96104 51.697 5.10654 51.406L7.01263 49.9219C7.04173 50.2711 7.85654 51.3915 7.68194 51.6388Z" fill="#AF7250"/>
<path d="M22.7849 41.6009C22.5521 41.4991 21.1261 40.9025 21.0825 40.8152C21.0097 40.6843 21.097 40.2477 21.0679 40.0586L22.7849 41.5864V41.6009Z" fill="#AF7250"/>
<path d="M48.0304 16.5568C48.0595 16.7896 48.5978 17.9973 48.1759 18.0846C47.914 18.1428 47.7685 17.2552 47.7539 17.0661C47.7539 16.9788 47.8412 16.3386 48.0304 16.5568Z" fill="#AF7250"/>
<path d="M51.5655 27.2689C51.0417 27.3562 50.7361 26.7597 50.707 26.3086C51.2163 26.3086 51.6237 26.7742 51.5655 27.2689Z" fill="#AF7250"/>
<path d="M41.5409 46.2717C41.3663 46.0826 41.3372 45.2678 41.6573 45.3405C42.0792 45.5297 41.9483 46.7082 41.5409 46.2717Z" fill="#AF7250"/>
<path d="M48.5975 52.5123C48.5975 53.0216 47.8118 52.7014 47.5353 52.5559C47.4044 52.4832 47.3025 52.5559 47.3462 52.3086L48.583 52.4977L48.5975 52.5123Z" fill="#AF7250"/>
<path d="M41.047 48.1045L40.3777 48.0608C39.9994 46.9113 41.309 47.8426 41.047 48.1045Z" fill="#AF7250"/>
<path d="M46.4888 54.4196C46.0523 54.3905 45.7031 54.1286 45.7322 53.6484C46.125 53.6775 46.5906 53.9831 46.4888 54.4196Z" fill="#AF7250"/>
<path d="M44.8738 20.7637L43.8262 20.5309C44.1317 20.0944 44.801 20.2399 44.8738 20.7637Z" fill="#AF7250"/>
<path d="M48.597 50.1097C48.4661 50.3425 48.0296 50.5462 47.8113 50.4734L47.5494 50.2406C47.4767 50.066 47.8986 50.0078 47.9859 50.0078C48.2042 50.0078 48.3788 50.0806 48.597 50.0951V50.1097Z" fill="#AF7250"/>
<path d="M50.3147 17.7094L50.2129 16.8073C50.8968 16.5017 50.6058 17.9859 50.3147 17.7094Z" fill="#AF7250"/>
<path d="M26.7003 38.9351L26.8021 39.3135C26.4966 39.3862 26.1037 39.5463 25.8418 39.2698C25.9873 39.1097 26.5111 38.8333 26.6857 38.9497L26.7003 38.9351Z" fill="#AF7250"/>
<path d="M48.8893 27.7482C48.6711 27.7919 48.7293 27.7191 48.6711 27.6318C48.4092 27.2535 48.5983 26.9625 48.8457 26.6133C49.0785 26.9916 48.933 27.3553 48.8893 27.7628V27.7482Z" fill="#AF7250"/>
<path d="M49.457 47.6364C49.3842 48.0874 49.0641 48.4512 48.5985 48.2038C48.4385 47.9856 49.3697 47.5491 49.457 47.6364Z" fill="#AF7250"/>
<path d="M23.1645 36.0557C22.9317 36.0848 23.019 36.0557 22.9608 35.9248C22.8298 35.5901 22.8444 35.1827 23.1208 34.9062C23.4555 35.2118 23.1499 35.6774 23.1645 36.0557Z" fill="#AF7250"/>
<path d="M45.2506 45.2351C45.0905 45.4097 44.4067 44.3912 44.9159 44.1875L45.2506 45.2351Z" fill="#AF7250"/>
<path d="M45.7324 18.9431C45.3832 18.8121 45.1213 18.4774 45.1649 18.0846C45.6451 18.0409 45.776 18.5648 45.7324 18.9431Z" fill="#AF7250"/>
<path d="M53.4719 24.779C53.6174 24.9391 53.4282 24.9391 53.3409 24.9827C52.9044 25.1573 52.9771 24.8663 52.7443 24.7935C52.5115 24.7208 52.0605 24.9245 52.1478 24.5898L53.4864 24.779H53.4719Z" fill="#AF7250"/>
<path d="M20.2985 44.7569C19.9493 44.495 20.5749 43.9421 20.8659 43.8984C20.9387 44.0876 20.5022 44.917 20.2985 44.7569Z" fill="#AF7250"/>
<path d="M25.0851 41.7867C25.0851 41.7867 25.0415 41.5248 25.1288 41.4957C25.2888 41.4084 25.7835 41.3356 25.8417 41.5539C25.9145 41.8886 25.187 41.9613 25.0851 41.7867Z" fill="#AF7250"/>
<path d="M41.4246 51.8424C41.3518 52.0461 40.4934 52.5263 40.377 52.4099C40.4352 51.9734 41.0463 51.7988 41.4246 51.8424Z" fill="#AF7250"/>
<path d="M46.109 24.1115C46.4 24.4025 45.3524 24.3006 45.1778 24.2279C45.0469 24.1697 45.0323 24.1988 45.0614 24.0096C45.4688 23.9223 45.7307 23.966 46.109 24.1115Z" fill="#AF7250"/>
<path d="M44.392 22.3948C44.4502 22.9622 43.4462 22.4675 43.4316 22.3511C43.6935 22.0165 44.0719 22.3657 44.392 22.3948Z" fill="#AF7250"/>
<path d="M23.3531 43.8979L23.455 44.6109L23.0767 44.6545C22.9166 44.5672 23.1494 43.6942 23.3531 43.8979Z" fill="#AF7250"/>
<path d="M21.5345 36.1584C21.2726 36.202 21.3744 36.1002 21.3162 35.9547C21.2144 35.6636 21.1416 35.329 21.1562 35.0234C21.5781 35.2417 21.549 35.7801 21.5345 36.1729V36.1584Z" fill="#AF7250"/>
<path d="M53.093 22.6823C53.3694 22.9733 52.2345 22.9587 52.1326 22.8714C52.0453 22.4786 52.9911 22.5804 53.093 22.6823Z" fill="#AF7250"/>
<path d="M17.2426 40.5502C17.0535 40.5938 16.326 40.5211 16.3842 40.2155C16.4424 39.8809 17.2281 40.3174 17.2426 40.5502Z" fill="#AF7250"/>
<path d="M46.4001 26.0293C46.4001 26.0293 45.9199 26.8586 45.6289 26.6986C45.658 26.3057 46.0072 26.0002 46.4001 26.0293Z" fill="#AF7250"/>
<path d="M53.1806 20.5753C53.3552 21.0118 52.4094 21.1718 52.424 20.9099C52.424 20.7644 53.006 20.488 53.1806 20.5753Z" fill="#AF7250"/>
<path d="M26.6128 36.5347C26.671 36.913 26.2781 37.0294 26.0453 37.2041C25.9871 36.7675 26.1326 36.4765 26.6128 36.5347Z" fill="#AF7250"/>
<path d="M40.2745 49.5417C40.2308 49.8473 39.416 49.7745 39.416 49.5854C39.416 49.1198 40.0562 49.469 40.2745 49.5417Z" fill="#AF7250"/>
<path d="M18.1011 38.7319C18.0284 38.7901 17.2863 38.4409 17.33 38.2081C17.4027 37.8298 18.1011 38.5282 18.1011 38.7319Z" fill="#AF7250"/>
<path d="M15.0457 38.2661C12.2957 36.1709 9.37107 34.3085 6.41737 32.5188L3.28906 30.8164C5.3552 31.5876 7.31949 32.6934 9.21102 33.8283C10.8115 34.8032 13.6925 36.5492 14.8565 37.9315C14.9438 38.0333 15.0893 38.0915 15.0457 38.2661Z" fill="#AF7250"/>
<path d="M26.0297 30.7002C26.0006 27.4409 25.8406 24.2398 24.793 21.1406C24.9385 21.1697 25.0112 21.4607 25.0549 21.5917C25.5641 22.9012 25.9279 24.4872 26.117 25.884C26.2771 27.0917 26.4226 28.6922 26.3207 29.8853C26.3062 30.1327 26.2771 30.5692 26.0297 30.7002Z" fill="#AF7250"/>
<path d="M14.6518 32.8109L12.7021 30.6139C11.7854 29.8136 10.8251 29.0861 9.74837 28.5041L7.76953 27.6602C10.0248 27.9221 12.2656 29.5371 13.6915 31.2541C14.0407 31.676 14.5063 32.3017 14.6518 32.8255V32.8109Z" fill="#AF7250"/>
<path d="M18.478 46.8661C17.8814 47.3899 17.1248 47.7246 16.4846 48.1611C14.7968 49.3106 13.3417 50.7074 11.8867 52.1188C11.9158 51.9005 12.1341 51.6677 12.265 51.4931C13.7928 49.6016 16.1645 47.6227 18.478 46.8516V46.8661Z" fill="#AF7250"/>
<path d="M23.6434 47.0554C22.9159 49.0634 21.6791 51.275 20.0058 52.6427C19.8458 52.7737 19.6421 52.9628 19.4238 52.9774C20.5733 51.8134 21.5773 50.5475 22.4066 49.1216C22.7267 48.5541 23.0177 47.7393 23.3233 47.2737C23.4106 47.1427 23.4397 47.0118 23.6289 47.0554H23.6434Z" fill="#AF7250"/>
<path d="M21.3453 30.9936C21.0834 30.8481 20.9961 30.4116 20.9088 30.1351C20.4141 28.3746 20.4141 26.0902 21.098 24.4023C21.098 25.0862 20.8943 25.7846 20.8652 26.4539C20.7779 27.9963 21.0398 29.4949 21.3453 30.9936Z" fill="#AF7250"/>
<path d="M15.8007 46.0966L12.6724 47.3188C12.1049 47.6535 11.5375 48.0318 11.0573 48.4828C10.9554 48.5701 10.5917 49.2103 10.4316 49.0503C11.4647 47.2024 13.7491 46.2421 15.7861 46.082L15.8007 46.0966Z" fill="#AF7250"/>
<path d="M27.8487 28.2708C27.8487 28.2708 27.7178 28.4163 27.6596 28.4163C27.7323 26.9758 27.5723 25.5645 27.2812 24.1676C27.3831 24.0367 27.4413 24.3131 27.4704 24.3713C27.6741 24.9242 27.7032 25.5208 27.8633 26.0883C27.7614 26.6848 27.9942 27.747 27.8633 28.2854L27.8487 28.2708Z" fill="#AF7250"/>
<path d="M47.1583 9.96625C47.0419 10.1263 46.9837 9.96625 46.9692 9.82075C46.911 9.35514 47.0128 8.77313 46.9692 8.29297C46.8237 6.43053 46.3435 4.55355 45.7324 2.79297C46.0525 3.04032 46.2271 3.54958 46.3726 3.91334C47.1001 5.76122 47.4057 8.00196 47.1583 9.96625Z" fill="#AF7250"/>
<path d="M46.8816 18.4655L46.3287 17.2433C45.8485 15.6573 45.2665 14.0131 45.252 12.3398L46.8816 18.451V18.4655Z" fill="#AF7250"/>
<path d="M57.5902 6.32812C56.1206 7.87045 54.9421 9.63104 53.909 11.4935C53.6907 11.3771 53.9526 10.926 54.0399 10.766C54.6365 9.47098 56.1788 7.4485 57.2556 6.53183C57.3574 6.44453 57.4156 6.29902 57.5902 6.34268V6.32812Z" fill="#AF7250"/>
<path d="M60.5436 44.7578C60.5727 44.9033 60.369 44.8888 60.2817 44.9179C57.9973 45.5872 55.742 46.0964 53.6904 47.4205L50.7949 49.2538C51.0714 48.6864 51.697 48.2935 52.1917 47.9298C54.5925 46.2128 57.5899 45.0343 60.5436 44.7578Z" fill="#AF7250"/>
<path d="M42.7637 62.3491C43.884 60.5739 44.9171 58.6242 44.9753 56.4853L45.1499 55.7578C45.4846 57.6202 44.6698 59.9919 43.6076 61.5197C43.5203 61.6507 42.9237 62.4946 42.7637 62.3491Z" fill="#AF7250"/>
<path d="M56.7321 42.7489L54.2149 44.2913C53.3709 44.6987 52.7744 45.7172 52.1487 46.241C52.0178 46.3428 51.9305 46.401 51.7559 46.3719C52.8617 44.6987 54.7532 43.1854 56.7321 42.7344V42.7489Z" fill="#AF7250"/>
<path d="M51.1739 58.057C50.9702 58.1006 50.9557 57.9551 50.8684 57.8387C50.5337 57.344 50.2427 56.6456 49.9081 56.1218C49.6753 55.758 49.3406 55.4234 49.166 55.0014C49.3406 54.8268 50.2282 56.049 50.3155 56.1945C50.6792 56.7765 50.9411 57.4168 51.1739 58.057Z" fill="#AF7250"/>
<path d="M38.748 61.2984L41.047 59.2031C40.9742 59.6542 40.3486 60.1925 39.9994 60.4981C39.6502 60.8037 39.1991 61.1965 38.748 61.3129V61.2984Z" fill="#AF7250"/>
<path d="M73.1735 24.4013C73.2317 24.6632 73.1153 24.5613 72.9844 24.6341C71.0638 25.769 68.1828 25.8854 66.0003 25.8272C65.8402 25.7108 66.0003 25.6526 66.1458 25.638C66.8296 25.5507 67.6735 25.6089 68.3429 25.5362C70.0016 25.3616 71.6021 24.9251 73.1735 24.3867V24.4013Z" fill="#AF7250"/>
<path d="M69.5359 28.125C69.5213 28.2705 69.1867 28.3287 69.0557 28.3578C67.9062 28.6925 66.7859 28.6343 65.6073 28.5033C65.6073 28.2705 65.5782 28.3287 65.7528 28.3142C66.2329 28.256 66.6986 28.416 67.1933 28.416C67.9208 28.416 68.7938 28.1978 69.5359 28.125Z" fill="#AF7250"/>
<path d="M42.9519 45.0492C42.7918 45.0201 42.8209 44.9182 42.7918 44.8164C42.6172 43.8269 42.6754 42.5174 42.559 41.4698C42.3262 39.4037 41.9043 37.3812 41.3223 35.4023C41.6569 35.6933 41.8461 36.2754 41.9916 36.6973C42.9082 39.2436 43.141 42.3865 42.9519 45.0637V45.0492Z" fill="#AF7250"/>
<path d="M45.6293 41.0303C45.4692 41.0303 45.4256 41.0885 45.4401 40.8993C45.5274 40.2446 45.6875 39.5316 45.7311 38.8914C45.7748 38.0184 45.6729 37.1308 45.6729 36.2578C46.1967 37.8001 46.0803 39.488 45.6293 41.0448V41.0303Z" fill="#AF7250"/>
<path d="M59.3067 36.9158C58.8848 36.7848 58.4337 36.4501 58.0699 36.1882C55.9601 34.6459 53.9086 32.1433 53.0938 29.6406L55.7273 33.4673C56.7895 34.7478 58.0554 35.8245 59.3213 36.9012L59.3067 36.9158Z" fill="#AF7250"/>
<path d="M52.4244 32.0412L53.2392 33.8454L55.1016 36.3335C53.9085 35.5333 52.89 34.1219 52.4244 32.7542C52.3952 32.6814 52.1042 31.6775 52.4244 32.0267V32.0412Z" fill="#AF7250"/>
<path d="M39.2274 19.9931C37.5832 18.3781 35.8517 16.9521 33.6401 16.1664L31.3848 15.599C33.9893 15.4535 36.8848 17.0685 38.558 18.9892C38.7909 19.2656 39.1255 19.6439 39.2274 19.9931Z" fill="#AF7250"/>
<path d="M30.5258 19.6131C30.5549 19.7877 30.3221 19.7004 30.2202 19.6858C28.9398 19.4821 26.83 18.58 25.7824 17.8234C25.5641 17.6634 25.1567 17.4015 25.084 17.125L27.7903 18.58L30.5258 19.6131Z" fill="#AF7250"/>
<path d="M38.4568 48.3931C37.9766 48.1894 37.6856 47.7238 37.3073 47.3891C36.1869 46.3997 34.921 45.5558 33.5679 44.901L30.8906 43.9844C33.466 44.0135 36.4925 45.8468 38.1076 47.8111C38.1803 47.8984 38.515 48.3058 38.4422 48.3931H38.4568Z" fill="#AF7250"/>
</g>
<defs>
<clipPath id="clip0_3_11462">
<rect width="77" height="66" fill="white"/>
</clipPath>
</defs>
</svg>
