<svg width="79" height="63" viewBox="0 0 79 63" fill="none" xmlns="http://www.w3.org/2000/svg">
<path d="M45.1068 27.1414C46.1807 24.7889 48.2885 23.112 50.3402 21.6516C51.6266 20.7416 53.1122 20.0873 54.2331 18.9438L54.7211 19.261L59.3284 13.0555L59.9775 13.1524L60.1152 14.1059C60.9763 12.4692 61.5597 10.4769 62.469 8.90871C62.822 8.29407 63.0964 8.83352 63.2548 8.76648C63.3635 8.72287 63.3215 7.76236 63.3907 7.50941C63.6921 6.31114 64.2153 5.30474 65.1183 4.45381C65.413 4.1782 66.441 3.58753 66.501 3.50607C66.6973 3.21605 66.2894 1.65277 66.9611 1.1616L67.9077 1.35399C67.8037 0.947034 67.6196 0.532191 67.8948 0.136592C70.2235 0.491044 72.4104 2.43967 73.5541 4.43906L73.9648 3.51605C74.3337 3.41068 75.4118 5.27374 75.6153 5.63382C78.4248 10.6404 80.2662 18.8388 77.0069 23.9609C76.2744 25.1191 75.1865 25.966 74.3019 26.9982C75.1002 26.6754 75.8475 26.0877 76.5229 25.5568C76.823 25.3242 78.8992 23.1531 78.6206 24.4622C78.0152 25.7581 77.193 26.9357 76.5297 28.1905C75.6876 29.8031 75.1931 31.1075 74.1265 32.6814C73.0599 34.2554 71.86 35.3297 70.8869 36.8444C67.7834 41.7033 63.3483 47.045 57.0637 47.1558C56.9427 47.38 57.3278 47.4038 57.4787 47.4163C57.8449 47.4642 58.3604 47.4417 58.752 47.4472C59.5384 47.4491 61.5526 47.0854 62.0773 47.241C62.7524 47.4397 61.4188 48.2199 61.235 48.3293C56.2549 51.2984 50.0617 49.6944 44.6871 48.9054C44.5661 49.1297 44.9544 49.1443 45.1167 49.2122C47.1015 50.0098 49.9511 50.5596 52.0899 50.6616C52.8633 50.7 54.2739 50.461 54.9073 50.573C55.5992 50.6954 55.4981 51.009 55.045 51.3516C52.5759 53.2291 46.852 55.6975 43.7723 56.1452C39.394 56.7791 35.6451 55.2623 31.8306 53.2597L33.2165 55.1601C34.7565 56.8892 36.2832 57.9558 38.4455 58.837C38.6813 58.931 41.1031 59.4316 39.8495 59.8702C39.5547 59.9711 36.5473 59.8072 36.021 59.7435C31.9576 59.2868 28.1661 57.9192 25.0923 55.1725C25.9973 57.0563 27.6454 58.4229 29.4923 59.3463C29.6407 59.8615 27.7599 59.4708 27.5327 59.4107C26.4026 59.1223 25.2823 58.6318 24.3409 57.9582C23.4725 57.3414 22.8675 56.4789 22.0808 55.778C21.9878 55.8067 22.598 57.4418 22.6662 57.5997C22.9541 58.2467 23.5629 58.8947 23.7491 59.3617C24.5297 61.3041 22.3552 59.1748 21.9742 58.7311C21.7929 58.5126 20.8518 56.9346 20.7182 56.9899C20.9772 58.2433 21.1678 60.4181 20.8567 61.6437C20.8172 61.7839 20.7535 62.0799 20.5636 62.0021C20.3738 61.9244 19.5164 58.7111 19.2944 58.1697C18.7385 56.7902 17.9229 55.4418 17.1489 54.1802C16.7361 55.2258 16.6847 56.7698 15.5068 57.2867C16.0559 56.0325 16.2733 54.3419 15.4983 53.1416C15.2461 52.7436 15.0037 52.3183 14.4595 52.3923C11.9814 53.0125 9.49299 53.6908 6.98937 54.1787C5.46686 54.4704 4.00661 54.9075 2.45951 54.4812C1.95914 54.3446 -0.0305076 53.648 0.135311 52.9772C0.535809 52.1122 1.63653 52.1332 2.38985 51.7327L13.5439 49.518C13.8391 47.7831 12.4096 46.2679 10.8565 45.6545C10.348 45.4533 9.3939 45.69 9.53154 44.8652C11.383 44.8138 12.8433 45.98 13.8017 47.4511C13.9963 47.0783 13.6985 46.1091 13.509 45.6512C12.6309 43.4584 11.2255 43.0413 9.82571 41.5882C9.65906 41.4159 9.47566 41.32 9.64378 41.0508C11.9304 41.8734 13.9783 43.4848 15.1473 45.6166C15.3041 43.6885 14.4175 41.986 13.8094 40.2283C14.953 40.4495 15.2569 41.7806 15.9122 42.589L16.7734 44.5086C17.1402 41.4937 18.0411 39.3367 19.9507 36.9933C20.3005 36.5626 22.3816 34.2903 22.6952 34.1654C22.9965 34.0463 23.2313 34.2016 23.498 34.2964C22.8731 35.4722 22.3396 36.5366 21.9382 37.8124C21.8798 37.9767 21.6555 38.2876 21.9076 38.336C23.1551 35.9321 25.1244 34.2369 27.4725 32.9332C28.1204 32.5672 30.8482 31.2442 31.435 31.1957C31.6481 31.1789 31.8201 31.2195 32.0035 31.3155C32.1378 31.579 29.7878 33.7043 29.4375 34.1657C28.254 35.7187 27.5006 37.5478 27.1438 39.4561C27.113 39.6302 26.9439 40.1354 27.1403 40.1949C28.6871 36.8901 30.8588 33.8381 33.8443 31.7022C36.8298 29.5662 41.1627 28.8854 43.805 26.0828C44.1538 25.7133 45.6345 23.5567 45.9472 23.6678C46.0435 23.8048 46.0663 23.9157 46.0388 24.0806C45.9114 24.8473 44.8507 26.4337 44.5411 27.3926C44.4109 27.7883 44.2629 28.4964 44.1722 28.9267C44.1252 29.1464 43.9416 29.78 44.1087 29.9217C44.4881 29.0286 44.7003 27.9939 45.1041 27.1198L45.1068 27.1414ZM21.1038 38.4411C21.3226 37.5629 21.8069 36.666 22.0505 35.7761L20.4955 37.413C19.2276 38.8538 18.3449 40.4931 17.8593 42.3556C17.4466 43.9255 17.6971 45.6693 16.9247 47.173C16.7657 47.096 16.6045 47.1415 16.5309 46.9406C16.428 46.6471 16.4162 45.5431 16.2987 45.0286C16.1324 44.3014 15.9185 43.6499 15.5413 42.9917L15.7229 45.8622L15.3428 47.6902C15.035 47.6529 15.082 47.4331 15.0116 47.2231C14.6499 46.2004 14.5938 45.163 13.5545 44.4443C14.5623 46.0974 14.3274 47.3707 14.3556 49.128C14.3589 49.2936 14.2102 49.3333 14.5115 49.3889C20.1704 48.0074 25.8233 46.6135 31.3749 44.8341C46.5533 39.9788 63.034 32.9446 69.5608 17.225C70.2915 15.4597 70.6943 13.5678 71.4033 11.8051C70.4336 18.2956 67.6393 24.1791 63.4443 29.1949C57.75 36.0113 49.2137 40.7697 41.0837 44.1513C32.9536 47.5328 24.1293 49.866 15.479 52.1172L16.2838 53.5542L16.3733 52.661C16.8736 52.4481 18.5735 55.2721 18.8333 55.7653C19.4075 56.8018 19.7828 57.9321 20.3197 58.9862L19.9888 56.3608L18.9105 53.7987C19.295 53.5036 19.5093 53.9498 19.7425 54.1971C20.6748 55.2169 21.2714 56.7445 22.0226 57.8952C22.1173 57.9494 22.1664 57.7819 22.1583 57.7173C22.1257 57.2843 21.4438 56.2301 21.4101 55.6837L20.0921 53.0673C22.6667 54.537 23.7669 57.6207 26.8292 58.5338C26.3675 57.7634 25.6869 57.1721 25.1414 56.4336C24.7767 55.9443 24.3713 55.307 24.0596 54.7851C23.9189 54.5398 23.1222 53.1673 23.1054 53.0688C23.0577 52.7949 23.181 52.7976 23.3892 52.7071C24.744 53.7332 25.9063 55.0094 27.3021 55.9781C30.1549 57.9474 33.5883 58.8074 37.0133 59.0785L34.984 57.8231C32.6072 56.1463 31.5082 53.3507 29.3256 51.5064C29.5565 51.3521 29.7805 51.4214 30.0196 51.5063C31.7393 52.1172 33.561 53.4324 35.2818 54.1568C41.9844 56.9799 47.6112 54.96 53.3915 51.3707C50.0779 51.2522 44.8813 50.5162 42.2816 48.3592C42.1539 48.2522 41.9029 48.1425 42.189 48.0077C42.5497 47.8378 49.1127 48.9256 50.1594 49.0405C53.4687 49.4041 56.9543 49.7379 59.9714 48.0962L55.9665 47.8247L52.5915 46.6257C52.6762 46.183 52.7856 46.4583 53.029 46.4728C58.6355 46.8714 62.1012 46.0366 66.0185 41.9191C67.36 40.5045 68.5748 38.9215 69.682 37.3208C67.5436 38.2674 65.1818 38.9392 62.8171 39.0653C62.4374 39.0846 61.8381 39.139 61.5081 38.9601C65.364 38.747 69.3531 37.2554 71.9451 34.3321C74.1062 31.8931 75.2535 29.0424 76.8558 26.2815C76.8838 26.0859 76.6059 26.2852 76.5312 26.3204C75.5843 26.8576 74.8235 27.5124 73.7765 27.9524C72.8258 28.3547 71.7019 28.603 70.6964 28.7803C70.599 28.5298 73.2844 26.8012 73.6413 26.4963C79.5813 21.5247 78.6051 14.3018 75.8757 7.87448C75.5823 7.18439 75.0572 5.98031 74.6573 5.386C74.6183 5.32076 74.3932 4.96327 74.3045 5.09623C74.1669 6.09573 74.1019 7.18267 73.8382 8.15795C73.7956 8.30724 73.7217 8.83601 73.4831 8.72042C74.2802 5.0773 71.5915 2.35431 68.4944 0.956012C68.4014 0.984635 69.2967 2.89581 68.2569 2.38254C67.9204 2.22189 67.6536 1.6029 67.2123 1.97034L67.1384 3.92776C66.5722 4.38444 65.9578 4.59787 65.4333 5.14131C63.4609 7.19517 63.7766 9.80493 63.9598 12.4087C63.5105 11.4577 63.376 10.3204 63.3632 9.27777C62.6158 9.51588 62.5107 10.5989 62.1972 11.2481C60.9135 13.9578 59.6041 15.8361 59.7843 18.9732C59.8485 20.0753 60.2226 21.0921 60.3209 22.1857L59.4654 19.5794L59.2093 14.411C57.5147 17.3447 54.7401 19.5864 53.329 22.7133C52.482 24.6017 52.1192 26.4976 51.7175 28.5031L51.6792 27.328C51.9078 24.9938 52.3223 22.6024 53.4656 20.5212C50.9737 22.113 47.9177 23.8642 46.3311 26.4354C44.957 28.671 44.5127 31.35 43.7758 33.8325C43.0642 32.7163 43.4147 31.3505 43.3467 30.1135L43.9951 26.6848C42.0774 29.1384 38.5873 29.7794 35.9563 31.2088C31.5943 33.5752 28.4561 38.1236 26.8312 42.7266C26.2957 42.6597 26.3567 42.1675 26.3203 41.7743C26.0119 38.5607 27.7468 34.7265 30.0064 32.4766C25.6285 34.159 21.951 37.4264 21.2534 42.2766C20.8391 42.5097 20.8292 40.4094 20.841 40.2595C20.8641 39.8154 20.9704 38.8459 21.0697 38.4495L21.1038 38.4411ZM5.27191 53.7947C17.4751 51.0173 29.7972 48.1383 41.3722 43.339C51.4778 39.1484 61.7575 32.9228 67.0271 23.016L64.6695 26.3C52.4557 41.9934 23.5418 48.167 4.79149 51.9692C4.62437 52.0024 3.58207 51.9918 4.12955 52.2583C4.88801 52.6305 5.35702 52.7971 5.2811 53.7979L5.27191 53.7947ZM0.988916 53.1982L3.39835 54.0541C3.83058 54.2077 4.47585 54.1697 4.553 53.6318C4.73214 52.3695 1.54351 52.1618 0.988916 53.1982Z" fill="#AF7250" stroke="#AF7250" stroke-width="0.25" stroke-miterlimit="10"/>
</svg>
