<svg width="78" height="66" viewBox="0 0 78 66" fill="none" xmlns="http://www.w3.org/2000/svg">
<path d="M56.6348 55.7069C56.7362 55.9926 56.856 56.2876 56.9482 56.5918C57.1879 57.3568 56.9943 58.0389 56.349 58.4722C53.9248 60.0853 51.3991 61.4771 48.3297 60.9609C47.3249 60.795 46.3479 60.4724 45.38 60.1406C44.5873 59.8733 43.8406 59.4677 43.0571 59.1727C41.1675 58.4537 39.8678 57.0987 38.9092 55.3658C38.4575 54.5454 38.0059 53.7251 37.4989 52.7941C37.3975 53.0522 37.3237 53.2181 37.2777 53.384C36.8076 54.8035 36.3467 56.2231 35.8674 57.6426C35.471 58.7948 34.6875 59.6613 33.7473 60.3987C32.4384 61.431 31.1295 62.4542 29.8113 63.4682C28.6407 64.3807 27.3871 65.0812 25.8662 65.2564C25.1287 65.3393 24.4282 65.2748 23.7461 64.9983C23.2944 64.8139 22.8612 64.5927 22.4095 64.4084C21.285 63.9567 20.7872 63.0626 20.6213 61.9196C20.5936 61.726 20.5568 61.5232 20.5199 61.2375C20.2434 61.3942 20.0222 61.5324 19.7917 61.6615C18.6395 62.2975 17.7546 62.1869 16.8236 61.2651C13.8279 58.3062 13.0259 54.739 13.92 50.7017C14.3533 48.7659 14.8879 46.8671 15.6991 45.0143C15.57 44.9775 15.4686 44.9498 15.358 44.913C13.6343 44.4152 11.9014 43.9451 10.1869 43.4197C8.9425 43.0325 8.33413 42.1384 8.33413 40.8387C8.33413 40.5161 8.15899 40.4332 7.91012 40.3133C6.25093 39.5022 4.5641 38.7463 2.96944 37.8246C1.04294 36.7092 0.250221 34.8657 0.130391 32.718C0.0658675 31.5934 0.582058 30.7454 1.596 30.22C1.71583 30.1554 1.83566 30.1001 1.95549 30.0356C1.98315 30.0172 2.00158 29.9895 2.13985 29.8605C2.03845 29.8144 1.92784 29.7775 1.83566 29.713C0.729541 28.994 0.554405 27.934 0.784847 26.7449C1.14434 24.8461 1.96471 23.2606 3.61468 22.0992C5.01576 21.1129 6.24172 19.8962 7.60593 18.8638C9.62461 17.3429 11.9751 16.9557 14.4362 17.1216C15.2197 17.1769 15.994 17.3152 16.8421 17.4258C16.796 17.2415 16.7683 17.0755 16.7222 16.9096C15.9664 14.2826 15.5055 11.6095 15.57 8.86259C15.6161 6.89922 16.3259 5.23082 17.5795 3.76521C18.3169 2.89875 19.211 2.62222 20.3356 3.16606C20.3356 1.4147 21.5339 0.981468 22.8796 0.714155C24.5204 0.382319 26.1703 0.170312 27.8295 0.437625C28.5116 0.548237 29.1845 0.824768 29.8113 1.12895C31.9037 2.17055 33.7473 3.58086 35.5263 5.07412C36.1254 5.58109 36.6232 6.2079 37.1117 6.72409C38.1072 5.75623 39.112 4.72385 40.1812 3.76521C42.1262 2.01385 44.3476 0.751026 46.9562 0.299359C48.0808 0.105788 49.233 0.0136112 50.3576 0.345448C51.8693 0.797114 52.45 1.68201 52.2656 3.25824C52.2287 3.60851 52.2011 3.94956 52.155 4.38279C52.4868 4.29062 52.7449 4.22609 53.0122 4.14313C53.7312 3.94035 54.3488 4.10626 54.8373 4.65932C56.2108 6.18946 57.0219 7.92238 56.9021 10.0517C56.7823 12.1625 56.7638 14.2826 56.2753 16.3566C56.2569 16.4487 56.2661 16.5501 56.2569 16.6976C57.0219 16.6147 57.7686 16.5409 58.506 16.4395C61.428 16.0432 64.0089 16.7806 66.212 18.7439C67.0139 19.4537 67.779 20.2188 68.5072 21.0023C69.051 21.5922 69.346 22.3296 69.4013 23.15C69.4842 24.2838 69.134 25.1963 68.1753 25.8508C67.9265 26.0167 67.6868 26.2011 67.3642 26.4407C67.5854 26.5421 67.7421 26.6251 67.8988 26.6988C69.3736 27.3256 69.7884 28.1183 69.5027 29.6853C69.134 31.7317 68.2306 33.5107 66.7282 34.9486C64.8938 36.6908 62.8936 38.2301 60.5523 39.2441C59.9624 39.5022 59.3171 39.6404 58.6627 39.8524C59.142 40.4977 59.6398 41.1061 60.073 41.7605C61.2621 43.5764 62.2299 45.5213 62.5065 47.6783C62.6539 48.8489 62.3682 50.0749 62.2576 51.2732C62.2299 51.6234 62.147 51.9737 62.0732 52.3148C61.5847 54.4348 60.5523 55.4027 58.3677 55.7253C57.8331 55.8083 57.28 55.7345 56.6532 55.7345L56.6348 55.7069ZM33.0652 26.8002C33.3694 27.5561 33.6735 28.3211 33.9777 29.0862C34.6506 28.7728 34.3096 28.3119 34.2911 27.9155C34.2727 27.5929 34.0976 27.51 33.8118 27.4086C33.5261 27.298 33.3048 27.0214 33.056 26.8094C32.7057 25.8416 33.0928 25.2793 34.328 24.9935C34.328 24.8368 34.3188 24.6709 34.3003 24.505C34.1436 22.4771 33.9224 20.4584 33.8395 18.4213C33.7381 16.0155 33.904 13.6189 34.54 11.2684C34.9179 9.87653 35.6922 8.70589 36.5679 7.48915C36.1808 6.9914 35.8674 6.39225 35.3788 6.02354C33.7012 4.73307 31.9959 3.47946 30.2446 2.2996C29.3044 1.66358 28.2812 1.05521 27.0829 1.13817C25.5989 1.23035 24.1056 1.36861 22.6308 1.5714C21.5246 1.7281 20.9624 2.18898 21.1928 3.51633C21.1928 3.56242 21.202 3.61773 21.1928 3.66381C21.1559 4.01409 20.9992 4.19844 20.6213 4.08783C20.4738 4.04174 20.3356 3.98643 20.1973 3.94035C19.1096 3.52555 18.6579 3.64538 17.9205 4.54871C17.7177 4.79759 17.5518 5.07412 17.3859 5.34143C16.4549 6.79783 16.2613 8.41092 16.3351 10.0885C16.4918 13.6005 17.4135 16.9557 18.5934 20.228C19.2847 22.1637 20.7872 23.5003 22.5109 24.4958C24.9444 25.8969 27.4516 27.1597 29.9312 28.4686C30.7054 28.8742 31.489 29.2521 32.0697 29.5379C31.8024 29.2337 31.3968 28.782 31.0004 28.3211C30.6041 27.8602 30.2261 27.3901 29.8113 26.9569C29.7192 26.8647 29.4979 26.8279 29.3504 26.8555C28.6683 26.9661 28.1706 26.6988 27.9586 26.072C27.7742 25.5189 27.9586 24.9106 28.4195 24.588C28.8711 24.2653 29.4979 24.2746 29.9219 24.6156C30.3367 24.9382 30.4566 25.5097 30.263 26.0812C30.2169 26.2195 30.1708 26.4407 30.2446 26.5145C31.1018 27.4178 31.9683 28.3027 32.8532 29.1784C32.9638 29.2798 33.2034 29.2521 33.4431 29.289C33.4154 29.1138 33.4154 29.0585 33.397 29.0217C32.2632 26.5882 31.1295 24.1455 29.9865 21.712C29.9312 21.5922 29.7099 21.5 29.5625 21.4908C28.9357 21.4355 28.5024 21.1037 28.3918 20.5598C28.2812 20.0252 28.5301 19.4721 28.991 19.2233C29.4795 18.9652 30.1063 19.0758 30.475 19.4721C30.8437 19.8685 30.8621 20.3939 30.5948 20.9193C30.5211 21.0668 30.4842 21.3065 30.5487 21.4447C31.2677 23.0763 31.9959 24.6986 32.7426 26.3209C32.8163 26.496 32.9638 26.6343 33.0744 26.791L33.0652 26.8002ZM34.4847 37.1885C34.4386 37.3084 34.3649 37.419 34.3464 37.548C34.1529 38.691 33.9869 39.834 33.7749 40.977C33.7196 41.2904 33.7565 41.4932 34.0238 41.7052C34.4755 42.0647 34.5584 42.6177 34.3003 43.1155C34.0607 43.5764 33.5721 43.8068 33.0283 43.7147C32.4937 43.6225 32.0881 43.1892 32.0328 42.6546C31.9867 42.1476 32.2725 41.6315 32.7794 41.4655C33.102 41.3641 33.1666 41.1798 33.2127 40.894C33.397 39.5943 33.609 38.3039 33.8118 37.0134C33.9409 36.2022 34.0607 35.4003 34.1897 34.5891C34.1436 34.5431 34.0976 34.497 34.0607 34.4509C33.8763 34.5615 33.6367 34.626 33.5353 34.7827C33.2864 35.1606 33.1205 35.5847 32.8993 35.981C32.7426 36.2575 32.7333 36.4696 32.8993 36.7645C33.1573 37.207 33.102 37.6863 32.7333 38.0734C32.3831 38.4514 31.9406 38.562 31.4429 38.3868C30.6594 38.1103 30.4381 37.631 30.6041 36.5341C30.5303 36.5894 30.475 36.617 30.4289 36.6631C27.8295 38.7924 25.2117 40.894 22.6492 43.0694C20.9992 44.4705 19.1926 45.3185 16.9895 45.0881C16.6669 45.0512 16.5194 45.1895 16.4273 45.4476C15.9756 46.7657 15.4778 48.0654 15.0815 49.402C14.639 50.8676 14.2334 52.3701 14.3533 53.9094C14.5376 56.2507 15.2382 58.3892 16.8974 60.1774C18.2524 61.6431 18.7501 61.3757 19.8101 60.6752C19.8286 60.666 19.8378 60.6568 19.8562 60.6475C20.9255 60.0023 21.1928 60.1406 21.3495 61.385C21.4325 62.0025 21.4601 62.6847 21.9763 63.0994C23.0548 63.9751 24.2623 64.5651 25.7187 64.436C27.1382 64.3162 28.2812 63.6064 29.3689 62.7492C30.5764 61.7905 31.8024 60.8411 33.0191 59.8917C33.8395 59.2557 34.6045 58.5736 35.0009 57.5873C36.0517 54.9971 36.8352 52.324 37.1855 49.5402C37.545 46.7012 37.3422 43.8714 36.8352 41.06C36.6785 40.1843 36.531 39.3178 36.3835 38.4421C35.1299 38.7371 34.411 38.2393 34.5031 37.1701C34.6322 36.9581 34.7151 36.6447 34.8995 36.5525C35.388 36.3129 35.3327 35.9534 35.259 35.5478C35.2129 35.3173 35.2221 35.0777 35.1668 34.8472C35.1299 34.6813 35.0285 34.5338 34.9548 34.3771C34.8718 34.3864 34.7981 34.4048 34.7151 34.414C34.6506 35.3358 34.5769 36.2575 34.5123 37.1793L34.4847 37.1885ZM32.2079 31.6395C32.2356 31.5842 32.2725 31.5289 32.3001 31.4644C32.1618 31.3445 32.0328 31.1602 31.8669 31.1141C29.9496 30.5426 28.0323 29.9987 26.115 29.4365C25.8109 29.3443 25.6081 29.3351 25.3868 29.6208C25.055 30.0448 24.4743 30.1186 24.0134 29.8881C23.5157 29.6485 23.2576 29.1599 23.3313 28.6069C23.3958 28.0815 23.8198 27.6298 24.3268 27.5376C24.8338 27.4362 25.4237 27.6574 25.5712 28.1644C25.7279 28.7451 26.1243 28.8465 26.5759 28.9571C26.8525 29.0217 27.129 29.1138 27.3963 29.1968C28.825 29.63 30.2446 30.0633 31.6733 30.4873C31.323 30.1554 30.9267 29.9158 30.5211 29.7038C27.9678 28.358 25.3776 27.0675 22.852 25.6664C20.0498 24.1086 17.9021 21.9701 17.2015 18.6794C17.1647 18.5227 16.9527 18.3384 16.7867 18.2923C16.3535 18.1725 15.9018 18.1079 15.4502 18.0342C12.2516 17.5456 9.37573 18.2001 6.91461 20.3847C5.94675 21.2419 4.98811 22.1268 3.93729 22.8735C2.5823 23.8413 1.9094 25.1595 1.56835 26.7172C1.34713 27.7496 1.48539 28.6161 2.4809 29.1968C2.66525 29.3074 2.83117 29.4549 2.97866 29.6208C3.32893 30.008 3.24597 30.3674 2.77587 30.5702C2.52699 30.6808 2.27811 30.7638 2.03845 30.8836C1.27338 31.2616 0.867806 31.8607 0.93233 32.7456C1.07981 34.8472 2.0108 36.4696 3.90042 37.4651C5.37525 38.2393 6.86852 38.9675 8.36178 39.6865C8.82267 39.9078 9.10841 40.2119 9.08998 40.7281C9.04389 41.8619 9.66148 42.4703 10.657 42.7837C11.8461 43.1524 13.0259 43.5395 14.2242 43.8529C15.0538 44.0649 15.9018 44.2032 16.7499 44.3046C18.9252 44.5535 20.7043 43.7054 22.2989 42.2859C23.6539 41.0784 25.0458 39.9077 26.4469 38.7555C28.4102 37.1424 30.392 35.5662 32.3738 33.9808C32.678 33.7411 32.6965 33.5107 32.4752 33.2249C31.5903 33.5844 30.7239 33.9531 29.8482 34.285C29.544 34.4048 29.3597 34.5062 29.3228 34.8841C29.2675 35.5386 28.7605 35.8981 28.0784 35.852C27.47 35.8151 27.046 35.4003 26.9815 34.8012C26.917 34.1651 27.3041 33.6305 27.9217 33.5015C28.0415 33.4738 28.1706 33.4462 28.3088 33.4185C28.2628 33.354 28.2443 33.3263 28.2259 33.3079C27.5991 32.6903 27.5622 31.8699 28.1429 31.363C28.6683 30.8929 29.332 31.0403 29.9035 31.7224C29.9772 31.8054 30.1247 31.8884 30.2261 31.8791C30.8898 31.8146 31.5535 31.7317 32.2171 31.6487L32.2079 31.6395ZM37.674 33.4185L37.5173 33.4922C37.5911 33.6766 37.6279 33.8794 37.7385 34.0269C38.181 34.6168 38.6327 35.2067 39.1212 35.7598C39.241 35.8981 39.4991 36.0087 39.6927 35.9995C40.4301 35.9718 40.9832 36.4327 40.9739 37.1148C40.9647 37.8061 40.3748 38.3315 39.665 38.267C38.9921 38.2117 38.4667 37.5665 38.7064 36.9028C38.8908 36.3958 38.6695 36.1377 38.4114 35.8151C38.0796 35.4095 37.7754 34.9855 37.462 34.5799C37.3698 34.4601 37.2592 34.3495 37.1578 34.2297C37.1117 34.2573 37.0657 34.285 37.0196 34.3126C37.2039 34.7182 37.3883 35.1146 37.5726 35.5201C38.4391 37.419 39.2963 39.3086 40.1628 41.2074C40.2642 41.4379 40.3564 41.6315 40.7066 41.5854C41.315 41.5116 41.822 41.8711 42.0063 42.4057C42.1999 42.9772 41.9787 43.6501 41.4994 43.9727C41.0753 44.2585 40.4578 44.2032 40.043 43.8621C39.6005 43.4934 39.4622 42.8482 39.6743 42.2951C39.7388 42.12 39.7664 41.8711 39.6927 41.7052C39.0382 40.2304 38.3561 38.774 37.6925 37.2991C37.333 36.5064 36.9919 35.6953 36.6416 34.8933C36.5679 35.0408 36.5771 35.1514 36.5955 35.262C36.9735 37.3452 37.3698 39.4192 37.7385 41.5024C38.31 44.7194 38.4299 47.9456 37.7478 51.1718C37.7109 51.3469 37.7662 51.5681 37.8584 51.7248C38.522 52.9323 39.2042 54.1306 39.8955 55.3197C40.6513 56.6194 41.6653 57.6426 43.0571 58.2509C44.0158 58.6657 44.9929 59.0344 45.9331 59.4585C49.5833 61.1084 52.7726 59.9101 55.8144 57.8454C56.2477 57.5504 56.3675 57.154 56.1463 56.6563C55.9988 56.3337 55.8329 56.011 55.7591 55.6792C55.6946 55.4027 55.6669 55.0616 55.7868 54.8404C55.8513 54.7206 56.2845 54.7021 56.515 54.7759C57.575 55.1169 58.5613 54.9234 59.5568 54.5178C60.414 54.1675 60.9302 53.5591 61.133 52.6927C61.3266 51.8262 61.4741 50.9505 61.6216 50.0656C61.7967 49.0333 61.9073 47.9917 61.5939 46.9685C60.8381 44.4797 59.6766 42.203 57.9068 40.2765C57.7686 40.129 57.4736 40.0184 57.2708 40.046C55.0678 40.3225 52.8832 40.2488 50.8184 39.3916C47.9517 38.2025 45.1219 36.912 42.2829 35.6584C42.0709 35.5662 41.8588 35.4648 41.6561 35.3727C42.1077 35.8704 42.5686 36.3036 43.0664 36.6908C43.2138 36.8014 43.4443 36.8659 43.6286 36.8475C44.1725 36.7922 44.7071 37.0503 44.9191 37.5296C45.1403 38.0366 44.9929 38.6357 44.5596 38.986C44.1448 39.327 43.5457 39.3455 43.1032 39.0321C42.6977 38.7463 42.4949 38.1656 42.7161 37.6863C42.8636 37.3637 42.7806 37.1978 42.5317 37.0134C40.9832 35.852 39.4438 34.6813 37.9045 33.5199C37.8399 33.4738 37.757 33.4462 37.6832 33.4093L37.674 33.4185ZM38.5036 29.7222C38.5036 29.7222 38.5405 29.7683 38.5589 29.7959C38.7525 29.7038 38.9461 29.6116 39.1304 29.5102C41.1583 28.4963 43.1862 27.4915 45.2141 26.4776C46.4769 25.8416 47.7121 25.1595 48.9933 24.5787C51.8047 23.3067 53.6114 21.1221 54.7728 18.3476C55.0217 17.7484 55.2982 17.1309 55.3996 16.4948C55.6393 14.9555 55.8236 13.4069 55.9619 11.8491C56.0541 10.8628 56.0449 9.86732 56.0264 8.88102C55.9896 7.3048 55.0401 6.17102 54.0907 5.05569C53.9524 4.88977 53.5561 4.88055 53.298 4.9082C52.8648 4.95429 52.45 5.11099 52.0167 5.17551C51.5927 5.23082 51.3254 5.01881 51.3346 4.57636C51.3346 4.08783 51.3715 3.59929 51.4268 3.11997C51.5835 1.86637 51.2701 1.34096 50.0349 1.11052C48.2006 0.769461 46.4216 1.04599 44.7255 1.80184C40.9463 3.46103 38.2547 6.32773 36.107 9.74749C35.6277 10.5126 35.3419 11.4343 35.1576 12.3284C34.5216 15.4901 34.5769 18.6794 34.8995 21.8687C35.0654 23.5371 35.2682 25.2055 35.4618 26.8739C35.5171 27.344 35.5724 27.8049 35.6369 28.2658C35.7844 28.1368 35.8213 28.0077 35.8489 27.8879C36.0701 26.6159 36.2637 25.3346 36.5034 24.0625C36.5587 23.7584 36.5402 23.5832 36.2729 23.3897C35.8305 23.067 35.7199 22.4402 35.9503 21.9333C36.1715 21.4447 36.7062 21.159 37.2316 21.2512C37.7846 21.3433 38.181 21.7766 38.2455 22.3573C38.31 22.8827 37.9966 23.3436 37.4897 23.6017C37.3145 23.6846 37.1302 23.8966 37.1025 24.0718C36.8536 25.4083 36.6601 26.7541 36.4112 28.0907C36.3375 28.4778 36.3835 28.782 36.7615 29.0309C37.0657 28.5977 37.3606 28.146 37.674 27.722C37.8492 27.4915 37.886 27.3348 37.6925 27.0675C37.3422 26.5882 37.4251 25.943 37.8307 25.5466C38.2179 25.1595 38.8354 25.0857 39.324 25.353C39.8494 25.6388 40.1167 26.2656 39.9416 26.8094C39.7757 27.344 39.3055 27.6574 38.7064 27.6482C38.5866 27.6482 38.393 27.6482 38.3469 27.7128C37.9045 28.358 37.4897 29.0217 37.0656 29.6761C37.0933 29.713 37.121 29.7499 37.1486 29.7867C37.2961 29.7314 37.4712 29.7038 37.6003 29.6024C39.324 28.2289 41.0293 26.8463 42.753 25.4729C43.0295 25.2516 43.1678 25.0488 43.0479 24.634C42.8544 23.9796 43.306 23.3528 43.942 23.2422C44.5965 23.1316 45.251 23.6017 45.3339 24.2561C45.4169 24.9014 44.9191 25.6296 44.3015 25.5374C43.6471 25.4452 43.3245 25.777 42.9373 26.1457C42.6423 26.4223 42.3382 26.6896 42.0248 26.9385C40.8633 27.8695 39.6835 28.8004 38.522 29.7314L38.5036 29.7222ZM38.4022 32.6811C38.4022 32.6811 38.3746 32.7548 38.3561 32.7825C38.5128 32.8654 38.6695 32.9576 38.8262 33.0406C42.4672 34.8472 46.1174 36.6078 49.869 38.1933C53.1966 39.5943 56.5058 39.7695 59.8333 38.5804C62.6171 37.5849 64.8938 35.7414 66.8572 33.5568C67.9818 32.3032 68.5901 30.7638 68.7745 29.0862C68.8667 28.275 68.7007 27.9616 67.9725 27.5837C67.6315 27.4086 67.2536 27.298 66.9217 27.1044C66.6636 26.9569 66.2857 26.7357 66.2765 26.5329C66.2673 26.3024 66.5899 26.0351 66.8111 25.8323C67.1522 25.5374 67.5485 25.2977 67.908 25.0212C68.3505 24.6894 68.5625 24.2285 68.6086 23.6754C68.7007 22.6338 68.2767 21.795 67.5762 21.0945C66.8111 20.3386 66.0368 19.5735 65.1796 18.9375C63.9905 18.0526 62.7 17.3521 61.1607 17.2046C59.4923 17.0479 57.8792 17.3152 56.2477 17.5549C56.0725 17.5825 55.8882 17.8683 55.8052 18.0711C54.57 21.1498 52.7449 23.6846 49.6478 25.1595C47.3157 26.2656 45.0205 27.4731 42.7069 28.6345C42.5317 28.7175 42.3658 28.8097 42.1354 28.9387C42.3658 29.0493 42.5133 29.1138 42.6608 29.1968C43.2323 29.5379 43.4443 30.3859 43.1124 30.9758C42.7898 31.5473 41.9695 31.8423 41.527 31.3906C41.0108 30.8652 40.5407 31.0956 40.0245 31.2063C39.665 31.28 39.3055 31.3906 38.9368 31.4275C38.5128 31.4736 38.3008 31.6579 38.3193 32.0912C38.3653 32.1188 38.4114 32.1557 38.4483 32.1649C40.5315 32.4138 42.6239 32.6534 44.7071 32.9023C45.1035 32.9484 45.38 32.9115 45.5736 32.4599C45.7764 31.9805 46.3386 31.8146 46.8272 31.9621C47.4079 32.1372 47.7397 32.6166 47.7029 33.2249C47.666 33.7964 47.2604 34.2757 46.6889 34.3956C46.1727 34.5062 45.6657 34.3126 45.4722 33.8333C45.3523 33.5291 45.168 33.5107 44.9007 33.483C43.6747 33.3816 42.458 33.2895 41.2413 33.142C40.2918 33.0221 39.3609 32.8378 38.4114 32.6811H38.4022ZM28.7605 33.5199C28.9541 33.8886 29.1937 33.9255 29.5256 33.7872C30.4381 33.4001 31.3599 33.0406 32.2632 32.6534C32.4199 32.5889 32.5398 32.4599 32.678 32.3585C32.6504 32.3216 32.6319 32.2755 32.6043 32.2386C31.8208 32.3032 31.0465 32.3677 30.263 32.4506C30.1708 32.4599 30.051 32.5705 30.0233 32.6534C29.8205 33.2341 29.3873 33.483 28.7513 33.5199H28.7605ZM29.1661 24.8368C28.7697 24.8276 28.401 25.1871 28.3918 25.6111C28.3918 26.0075 28.6868 26.3393 29.0647 26.3485C29.4703 26.3578 29.8574 25.9983 29.8759 25.6019C29.8943 25.2148 29.5625 24.8461 29.1661 24.8368ZM37.9874 26.3117C37.9413 26.7172 38.2732 27.1044 38.688 27.1505C39.0751 27.1873 39.4254 26.92 39.4807 26.5421C39.536 26.1273 39.1949 25.7125 38.7525 25.6756C38.3746 25.6388 38.0243 25.9337 37.9874 26.3209V26.3117ZM36.1162 31.3077C36.1162 31.8054 36.3743 32.1004 36.8168 32.0912C37.2316 32.0819 37.5818 31.7224 37.5818 31.3169C37.5818 30.9297 37.2224 30.5702 36.8536 30.5702C36.4849 30.5702 36.1254 30.9297 36.1254 31.3077H36.1162ZM41.5178 42.8666C41.5178 42.4426 41.2228 42.1016 40.8357 42.0739C40.4578 42.0555 40.0983 42.3965 40.0891 42.8021C40.0706 43.2261 40.4117 43.604 40.808 43.6133C41.1952 43.6133 41.5178 43.2906 41.527 42.8574L41.5178 42.8666ZM34.9548 26.2195C34.9548 25.8508 34.6506 25.565 34.2266 25.5558C33.7842 25.5466 33.4339 25.8508 33.4247 26.2748C33.4154 26.6619 33.7196 26.9385 34.1436 26.9385C34.5953 26.9385 34.9456 26.6251 34.9548 26.2195ZM36.743 33.2065C36.743 32.7917 36.3559 32.3861 35.9872 32.4138C35.6738 32.4322 35.2774 32.8562 35.2774 33.1696C35.2774 33.566 35.6277 33.8978 36.0333 33.8978C36.4481 33.8978 36.743 33.6121 36.743 33.2157V33.2065ZM31.6549 36.5156C31.2954 36.5249 30.982 36.8567 31.0096 37.207C31.0373 37.5849 31.4244 37.9352 31.8392 37.9352C32.254 37.9352 32.549 37.6402 32.5305 37.2438C32.5121 36.8567 32.0881 36.5064 31.6549 36.5156ZM35.7199 36.6631C35.2959 36.6631 34.9548 36.9765 34.9456 37.3729C34.9364 37.76 35.2498 38.0734 35.6461 38.0826C36.0609 38.0826 36.4204 37.7324 36.4296 37.3176C36.4296 36.9765 36.0978 36.6723 35.7199 36.6723V36.6631ZM42.7437 30.349C42.7437 29.8881 42.4303 29.5471 42.0155 29.5471C41.6561 29.5471 41.3703 29.8789 41.3611 30.2937C41.3519 30.7269 41.6376 31.0772 42.0248 31.0864C42.4119 31.1049 42.7345 30.7638 42.7437 30.3398V30.349ZM37.0933 21.7028C36.7062 21.666 36.3928 21.9425 36.3467 22.3481C36.3006 22.7905 36.5587 23.1131 36.9827 23.1408C37.3883 23.1684 37.7109 22.9103 37.757 22.5232C37.8031 22.1453 37.4804 21.7489 37.1025 21.712L37.0933 21.7028ZM25.2209 28.7728C25.2209 28.3949 24.8983 28.0446 24.548 28.0354C24.1701 28.0354 23.8291 28.3856 23.8291 28.7912C23.8291 29.1691 24.1517 29.5194 24.5019 29.5286C24.8707 29.5286 25.2209 29.1691 25.2209 28.7728ZM34.0976 33.7319C34.457 33.695 34.7244 33.5107 34.7336 33.0774C34.7336 32.7733 34.2911 32.3032 34.0054 32.2939C33.6735 32.2939 33.2956 32.718 33.3048 33.0867C33.3141 33.4462 33.6735 33.7411 34.1068 33.7319H34.0976ZM30.2907 20.2649C30.2907 19.8962 29.9404 19.5735 29.5717 19.5828C29.2122 19.592 28.8896 19.933 28.8803 20.311C28.8803 20.6889 29.2122 21.0115 29.5993 20.9838C29.9773 20.9654 30.2999 20.6244 30.2999 20.2649H30.2907ZM46.3939 33.907C46.8087 33.907 47.159 33.5383 47.1682 33.1512C47.1682 32.764 46.8548 32.4138 46.4953 32.4138C46.1266 32.4138 45.8132 32.8194 45.8224 33.2618C45.8224 33.6674 46.0621 33.861 46.3939 33.907ZM33.9316 42.544C33.9409 42.1753 33.6275 41.8435 33.2311 41.825C32.8716 41.8066 32.5398 42.1384 32.5305 42.5348C32.5305 42.8943 32.8163 43.1892 33.2034 43.2169C33.5906 43.2353 33.9224 42.9404 33.9409 42.5532L33.9316 42.544ZM28.8619 31.575C28.4932 31.575 28.1706 31.9345 28.2075 32.3124C28.2443 32.6995 28.4563 32.9761 28.8711 32.9945C29.2398 33.0129 29.5625 32.6627 29.5532 32.2755C29.544 31.8699 29.2398 31.5565 28.8619 31.5657V31.575ZM44.4951 38.0089C44.4951 37.6586 44.1448 37.3268 43.8038 37.3452C43.4535 37.3545 43.1217 37.7324 43.1309 38.1011C43.1401 38.4698 43.4627 38.774 43.8222 38.7648C44.1909 38.7463 44.5043 38.4053 44.4951 38.0181V38.0089ZM28.1706 33.9439C27.8111 33.9439 27.4885 34.2665 27.4793 34.6629C27.4793 35.0316 27.7558 35.3358 28.1245 35.3542C28.5116 35.3727 28.8343 35.0777 28.8435 34.6813C28.8527 34.3218 28.5209 33.9531 28.1614 33.9439H28.1706ZM36.19 29.8513C36.1992 29.4549 36.0056 29.3074 35.4433 29.289C35.0562 29.2705 34.7981 29.5194 34.7889 29.9434C34.7704 30.3306 35.0378 30.5887 35.4526 30.5979C35.812 30.5979 36.1808 30.2292 36.19 29.8605V29.8513ZM32.9453 30.8283C32.9453 31.2247 33.268 31.5197 33.6735 31.5012C33.9224 31.492 34.3372 30.9482 34.3188 30.6532C34.3003 30.3674 33.9132 30.0448 33.5998 30.054C33.2772 30.0633 32.9361 30.4596 32.9453 30.8283ZM44.1448 25.0673C44.4951 25.0765 44.8177 24.7723 44.8269 24.4036C44.8454 24.0257 44.532 23.6938 44.1356 23.7031C43.7669 23.7031 43.4812 23.998 43.4812 24.3852C43.4812 24.7447 43.7761 25.0581 44.1448 25.0673ZM39.748 37.7785C40.1444 37.7785 40.4762 37.4743 40.4762 37.124C40.4762 36.7369 40.255 36.4972 39.8678 36.4603C39.5176 36.4235 39.1488 36.7922 39.1581 37.1517C39.1581 37.5572 39.4069 37.7416 39.748 37.7877V37.7785ZM40.9924 29.4733C40.1075 29.9434 39.2871 30.3767 38.4667 30.8099C38.4852 30.856 38.5036 30.9021 38.522 30.9482C39.2318 30.8007 39.9508 30.6532 40.6513 30.4965C40.7343 30.4781 40.8357 30.3582 40.8633 30.2661C40.9186 30.0448 40.9463 29.8144 40.9924 29.4825V29.4733ZM35.6553 31.7501C35.6553 31.6671 35.6553 31.5934 35.6553 31.5104C35.4341 31.363 35.2221 31.1233 34.9917 31.1049C34.6506 31.068 34.5308 31.3722 34.5308 31.6856C34.5308 32.0543 34.7704 32.2294 35.0746 32.1741C35.2959 32.1372 35.471 31.8976 35.6738 31.7501H35.6553ZM32.1434 36.064C32.3001 35.6953 32.4568 35.3358 32.6135 34.9763C32.5859 34.9579 32.5674 34.9394 32.5398 34.9302C32.0973 35.2897 31.6457 35.6584 31.1387 36.0732H32.1434V36.064Z" fill="#AF7250" stroke="#AF7250" stroke-width="0.25" stroke-miterlimit="10"/>
<path d="M6.92871 50.9141C6.59998 51.5844 6.42503 52.2056 6.46582 52.8438C6.50655 53.4808 6.75884 54.0735 7.16895 54.6953C6.4991 54.367 5.8779 54.1926 5.24023 54.2334C4.60332 54.2742 4.01028 54.5256 3.38867 54.9355C3.71675 54.266 3.89134 53.6453 3.85059 53.0078C3.80977 52.3705 3.55792 51.7773 3.14746 51.1553C3.8176 51.4838 4.43826 51.6589 5.07617 51.6182C5.71371 51.5774 6.30646 51.3247 6.92871 50.9141Z" fill="#AF7250" stroke="#AF7250"/>
<path d="M68.8789 4.94531C69.1434 6.05498 69.5251 6.91265 70.1709 7.55859C70.8169 8.20461 71.6752 8.58707 72.7852 8.85156C72.9132 8.88207 73.0454 8.91061 73.1816 8.93848C73.0454 8.96634 72.9132 8.99488 72.7852 9.02539C71.6752 9.28989 70.8169 9.67137 70.1709 10.3174C69.5249 10.9634 69.1434 11.8217 68.8789 12.9316C68.8484 13.0597 68.8199 13.1919 68.792 13.3281C68.7641 13.1919 68.7356 13.0597 68.7051 12.9316C68.4406 11.8217 68.0581 10.9634 67.4121 10.3174C66.7662 9.67157 65.9085 9.28985 64.7988 9.02539C64.6706 8.99483 64.5379 8.96639 64.4014 8.93848C64.5379 8.91056 64.6706 8.88213 64.7988 8.85156C65.9087 8.58707 66.7661 8.20459 67.4121 7.55859C68.0581 6.9126 68.4406 6.05518 68.7051 4.94531C68.7356 4.81704 68.7641 4.6844 68.792 4.54785C68.8199 4.68437 68.8483 4.81706 68.8789 4.94531Z" fill="#AF7250" stroke="#AF7250"/>
</svg>
