<svg width="81" height="71" viewBox="0 0 81 71" fill="none" xmlns="http://www.w3.org/2000/svg">
<path d="M50.1984 66.0101C34.6006 73.026 14.2308 68.1309 5.5996 51.3616C-5.62101 29.5493 9.47132 2.69379 34.0703 1.78135C59.1626 0.844241 76.499 25.283 67.5226 47.7612C68.1637 47.8352 68.8049 47.9708 69.4214 48.1927C69.964 46.7008 70.4325 45.1595 70.7778 43.5319C76.2278 18.341 56.1663 -2.34932 30.9631 0.215394C3.44179 3.02671 -9.66536 37.5147 8.13965 58.5379C19.2493 71.6451 37.1283 73.9385 51.0739 67.6377C50.7286 67.1321 50.4327 66.5896 50.1984 66.0101Z" fill="#AF7250"/>
<path d="M51.6168 33.4939H40.1619L39.5823 34.0735V48.0561C39.5823 48.6603 38.2383 49.0795 37.6465 48.6356V18.3523L39.5823 18.9318V30.584L40.1619 31.1635H51.4195L51.999 30.584V18.155C51.999 17.4275 53.9349 17.4275 53.9349 18.155V48.0561C53.9349 48.7836 51.999 48.7836 51.999 48.0561V34.468C51.999 34.3447 51.4811 33.8762 51.6168 33.4939Z" fill="#AF7250"/>
<path d="M17.0684 26.5039L18.8439 26.8615L19.0166 28.822C26.8463 23.0761 34.9967 30.6716 32.0127 39.3028C30.1139 44.8021 23.7144 46.2694 19.0166 43.1992V51.5468C19.0166 52.2743 17.0807 52.2743 17.0807 51.5468V26.5039H17.0684ZM23.1719 28.933C18.7946 29.8208 18.474 35.579 19.0289 39.1055C19.5468 42.4347 24.5405 43.5938 27.3025 41.9785C33.443 38.3904 30.6687 27.404 23.1842 28.9207L23.1719 28.933Z" fill="#AF7250"/>
<path d="M54.4889 63.408L55.389 62.2119C56.2275 63.0504 57.2879 63.8272 58.9648 63.8272C60.6417 63.8272 62.0597 62.5819 62.0597 60.609C62.0597 58.6362 60.8637 57.5018 59.0511 57.5018C58.077 57.5018 57.4605 57.7977 56.622 58.3649L55.6479 57.7484L56.1165 50.9297H63.2064V52.4956H57.7194L57.3495 56.7003C58.003 56.3427 58.6442 56.1084 59.5197 56.1084C61.9364 56.1084 63.9093 57.4894 63.9093 60.5474C63.9093 63.6053 61.6035 65.3562 59.1374 65.3562C56.8563 65.3562 55.463 64.3944 54.4766 63.408H54.4889Z" fill="#AF7250"/>
<path d="M66.4258 63.976C66.4258 63.1375 67.0176 62.5703 67.7451 62.5703C68.4726 62.5703 69.0645 63.1375 69.0645 63.976C69.0645 64.8144 68.4726 65.357 67.7451 65.357C67.0176 65.357 66.4258 64.7898 66.4258 63.976Z" fill="#AF7250"/>
<path d="M71.0494 63.408L71.9496 62.2119C72.788 63.0504 73.8484 63.8272 75.5254 63.8272C77.2023 63.8272 78.6203 62.5819 78.6203 60.609C78.6203 58.6362 77.4242 57.5018 75.6117 57.5018C74.6376 57.5018 74.021 57.7977 73.1826 58.3649L72.2085 57.7484L72.677 50.9297H79.767V52.4956H74.28L73.9101 56.7003C74.5636 56.3427 75.2048 56.1084 76.0802 56.1084C78.497 56.1084 80.4698 57.4894 80.4698 60.5474C80.4698 63.6053 78.164 65.3562 75.698 65.3562C73.4169 65.3562 72.0235 64.3944 71.0371 63.408H71.0494Z" fill="#AF7250"/>
</svg>
