<svg width="74" height="74" viewBox="0 0 74 74" fill="none" xmlns="http://www.w3.org/2000/svg">
<path d="M23.1838 27.4656C23.1938 27.5256 23.2037 27.5956 23.2137 27.6656C23.2137 27.6956 23.2137 27.7256 23.2137 27.7556C23.2137 27.8256 23.2038 27.8856 23.1838 27.9556C23.1838 27.9756 23.1637 27.9956 23.1637 28.0156C29.8837 27.2556 36.6337 26.7656 43.3438 25.9156C44.5938 25.8556 46.0238 26.5856 47.1138 27.1556C48.6238 27.9556 50.3837 28.9756 51.9437 29.9456C52.2237 29.7956 52.5338 29.7256 52.8438 29.7156C51.0338 28.4656 49.0038 27.2456 47.1538 26.2256C46.3238 25.7656 45.4638 25.2456 44.5438 25.0156C37.4538 25.8356 30.1537 26.1856 23.0938 27.2256C23.1037 27.2456 23.1237 27.2656 23.1337 27.2856C23.1637 27.3456 23.1938 27.4056 23.2038 27.4656H23.1838Z" fill="#AF7250" stroke="#AF7250" stroke-width="0.25" stroke-miterlimit="10"/>
<path d="M59.3132 43.4045C59.2832 42.6245 59.1732 40.7445 58.8632 40.1045C58.3132 38.9745 56.4932 38.2745 55.5132 37.5545C55.4132 37.4345 55.4132 37.2145 55.4232 37.0645C55.4532 36.2245 55.6632 35.2745 55.7032 34.4045C55.7032 34.1945 55.7232 34.0045 55.7232 33.8345C55.5132 34.1545 55.2232 34.4245 54.9132 34.6445C54.8032 36.1645 54.5132 38.0245 54.0932 38.8145C53.6232 39.7045 52.9932 39.7345 52.1032 39.8945C48.1532 40.5945 44.1532 40.9745 40.1732 41.4845C37.3732 41.8445 34.5632 42.3245 31.7532 42.6245C30.7632 42.7345 29.6132 42.8645 28.6432 42.6845C26.7932 42.3445 22.1632 38.9645 20.6732 37.6145C19.6632 36.7045 19.5832 36.3245 19.5132 34.9545C19.4632 33.9245 19.4332 31.5645 19.6432 30.1145C19.5432 30.0945 19.4532 30.0545 19.3732 30.0045C19.1832 29.9445 19.0532 29.8145 18.9832 29.6445C18.6132 31.3545 18.6332 34.0345 18.7032 35.1645C18.7432 35.7845 18.8932 36.3545 19.1032 36.9345C18.3332 37.4145 17.4732 37.7145 17.0932 38.6145C16.6632 39.6345 16.3432 42.9045 16.8032 43.8845C17.3632 45.0745 20.8632 47.3045 22.0932 48.0245C24.5332 49.4545 25.6332 50.0345 28.5732 49.9545C34.2632 49.7845 40.1632 48.9045 45.8432 48.3145C48.9932 47.9845 52.2632 47.8345 55.3932 47.4145C58.2132 47.0445 59.4332 46.5745 59.3232 43.4345L59.3132 43.4045ZM18.4932 38.0145C19.4932 37.2445 19.9832 38.0245 20.7032 38.5845C22.1732 39.7145 23.6732 40.8445 25.2432 41.8245C27.0032 42.9145 28.0232 43.6145 30.1932 43.5745C33.7932 43.5145 37.5632 42.7045 41.1232 42.2145C45.0832 41.6745 49.5132 41.4445 53.3032 40.1945C53.7632 40.0445 54.2932 39.9245 54.5932 39.5045C54.7532 39.2745 54.9632 38.6045 55.1032 38.4745C55.1532 38.4245 55.2632 38.3945 55.3232 38.3945C55.5032 38.3945 56.9132 39.3145 57.1532 39.4945C58.2632 40.3145 59.0432 41.2745 57.5332 42.2445C56.7432 42.7445 54.2332 43.0445 53.2032 43.1745C51.9532 43.3345 50.6432 43.3745 49.3832 43.5145C43.2932 44.1945 37.2032 44.9645 31.0832 45.2145C29.7232 45.2745 27.9832 45.4645 26.6532 45.2745C24.4832 44.9745 20.4532 42.1345 18.8232 40.6045C17.9632 39.8045 17.2432 38.9745 18.4932 38.0145ZM58.4832 44.8945C58.1132 46.5745 56.3932 46.4845 54.9832 46.6545C51.9432 47.0045 48.8832 47.1645 45.8332 47.4745C40.1632 48.0445 34.1632 48.9945 28.4932 49.1845C25.8132 49.2745 24.9832 48.8445 22.7732 47.5345C20.9332 46.4345 19.1732 45.2245 17.5732 43.7845C17.1632 43.1945 17.3632 41.3245 17.5332 40.6145C17.5532 40.5345 17.4832 40.4945 17.6332 40.5145C19.4632 42.1545 21.5332 43.7745 23.7032 44.9645C26.0532 46.2545 27.2432 46.1445 29.8632 46.0445C35.6732 45.8245 41.4832 45.2545 47.2632 44.6045C50.5632 44.2345 53.9232 43.8745 57.1732 43.2445C57.3932 43.1845 58.3632 42.4145 58.5032 42.5645C58.5032 43.0345 58.5032 43.4945 58.5032 43.9645C58.5032 44.2945 58.5732 44.5145 58.4932 44.9045L58.4832 44.8945Z" fill="#AF7250" stroke="#AF7250" stroke-width="0.25" stroke-miterlimit="10"/>
<path d="M20.2639 24.8539C16.0839 25.3639 17.7539 32.5739 21.8439 30.5939C25.1839 28.9839 23.8839 24.4139 20.2639 24.8539ZM23.1739 27.9539C23.1739 27.9539 23.1539 28.0139 23.1439 28.0439C23.0839 28.8039 22.7439 29.3839 22.2739 29.7839C22.1739 29.9739 21.9839 30.1239 21.7139 30.1339C21.6939 30.1339 21.6739 30.1539 21.6539 30.1639C21.5939 30.1939 21.5239 30.2239 21.4539 30.2339C21.4339 30.2339 21.4039 30.2339 21.3839 30.2539C21.2839 30.3239 21.1539 30.3639 20.9939 30.3639C20.9439 30.3639 20.9039 30.3639 20.8639 30.3539C20.3039 30.4039 19.7439 30.2739 19.2839 29.9439C19.2039 29.9039 19.1439 29.8439 19.0839 29.7839C18.7439 29.4739 18.4739 29.0439 18.3439 28.4639C18.1539 27.6039 18.3039 26.6439 19.0639 26.1139C19.1839 26.0339 20.0339 25.5639 20.1339 25.5439C21.4739 25.2739 22.8739 25.8539 23.1239 27.2839C23.1239 27.2839 23.1239 27.2839 23.1339 27.3039C23.1639 27.3639 23.1939 27.4239 23.2039 27.4839C23.2139 27.5439 23.2239 27.6139 23.2339 27.6839C23.2339 27.7139 23.2339 27.7439 23.2339 27.7739C23.2339 27.8439 23.2239 27.9039 23.2039 27.9739L23.1739 27.9539Z" fill="#AF7250" stroke="#AF7250" stroke-width="0.25" stroke-miterlimit="10"/>
<path d="M53.2834 28.975C49.1034 29.485 50.7734 36.685 54.8634 34.715C58.2034 33.105 56.9034 28.535 53.2834 28.975ZM56.2034 32.075C56.2034 32.075 56.1834 32.135 56.1734 32.165C56.1434 32.585 56.0134 32.945 55.8334 33.255C55.7834 33.435 55.6734 33.595 55.5034 33.695C55.4334 33.765 55.3734 33.835 55.2934 33.905C55.1934 34.095 55.0034 34.245 54.7334 34.255C54.7134 34.255 54.6934 34.275 54.6734 34.285C54.6134 34.315 54.5434 34.345 54.4734 34.355C54.4534 34.355 54.4234 34.355 54.4034 34.375C54.3034 34.445 54.1734 34.485 54.0134 34.485C53.9634 34.485 53.9234 34.485 53.8834 34.475C53.3234 34.525 52.7634 34.395 52.3034 34.065C52.2234 34.025 52.1634 33.965 52.1034 33.905C51.7634 33.595 51.4934 33.165 51.3634 32.585C51.1734 31.725 51.3234 30.765 52.0834 30.235C52.2034 30.155 53.0534 29.685 53.1534 29.665C54.4934 29.395 55.8934 29.975 56.1434 31.405C56.1434 31.405 56.1434 31.405 56.1534 31.425C56.1834 31.485 56.2134 31.545 56.2234 31.605C56.2334 31.665 56.2434 31.735 56.2534 31.805C56.2534 31.835 56.2534 31.865 56.2534 31.895C56.2534 31.965 56.2434 32.025 56.2234 32.095L56.2034 32.075Z" fill="#AF7250" stroke="#AF7250" stroke-width="0.25" stroke-miterlimit="10"/>
<path d="M24.7842 21.8463C26.9242 21.5463 27.8442 24.3863 26.0942 25.6163C24.9542 26.4163 23.3242 25.5963 23.1742 24.2463C23.0642 23.2463 23.7142 21.9963 24.7842 21.8463ZM26.0042 24.9463C26.5242 24.3863 26.5042 23.0863 25.8142 22.6863C25.5342 22.5263 24.7342 22.6463 24.4542 22.8163C23.9242 23.1363 23.6142 24.1263 23.9442 24.6863C24.3942 25.4463 25.3842 25.5963 26.0042 24.9363V24.9463Z" fill="#AF7250" stroke="#AF7250" stroke-width="0.25" stroke-miterlimit="10"/>
<path d="M49.0537 33.8463C51.1937 33.5463 52.1137 36.3863 50.3637 37.6163C49.2237 38.4163 47.5937 37.5963 47.4437 36.2463C47.3337 35.2463 47.9837 33.9963 49.0537 33.8463ZM50.2737 36.9363C50.7937 36.3763 50.7737 35.0763 50.0837 34.6763C49.8037 34.5163 49.0037 34.6363 48.7237 34.8063C48.1937 35.1263 47.8837 36.1163 48.2137 36.6763C48.6637 37.4363 49.6537 37.5863 50.2737 36.9263V36.9363Z" fill="#AF7250" stroke="#AF7250" stroke-width="0.25" stroke-miterlimit="10"/>
<path d="M51.1332 32.4661C51.1032 32.3661 51.1032 32.2461 51.1332 32.1361C45.9332 32.6761 40.7432 33.3261 35.5332 33.8161C33.8232 33.9761 31.9732 34.2061 30.2732 34.2961C28.5432 34.3861 26.8532 33.1061 25.4032 32.2061C24.2832 31.5161 23.1532 30.7961 22.1032 29.9961C22.0032 30.0761 21.8732 30.1261 21.7032 30.1361C21.6232 30.1961 21.5232 30.2261 21.4032 30.2361C21.3632 30.2661 21.3232 30.2861 21.2832 30.3061C22.1532 30.9861 23.4132 31.8061 23.8332 32.0661C25.0932 32.8861 26.8632 33.7361 27.9832 34.6061C28.7232 35.1761 28.5532 36.3361 28.5332 37.1961C28.5132 38.4461 28.3232 39.8261 28.4632 41.0861C28.5332 41.6961 29.0732 42.0361 29.2132 41.4261C29.3632 40.7761 29.2632 39.9161 29.2832 39.2461C29.3132 38.3161 29.3632 37.3861 29.3532 36.4461C29.3532 35.9861 29.1232 35.4361 29.6732 35.1361C36.9432 34.7661 44.1332 33.6661 51.3432 32.7961C51.2532 32.7061 51.1732 32.5961 51.1332 32.4761V32.4661Z" fill="#AF7250" stroke="#AF7250" stroke-width="0.25" stroke-miterlimit="10"/>
<path d="M42.8548 28.5045C43.4748 28.4845 43.7848 28.9945 43.2948 29.2245C42.9748 29.3745 41.1948 29.4645 40.9048 29.3245C40.6148 29.1845 40.7348 28.8245 41.0248 28.7245C41.3548 28.6145 42.4648 28.5245 42.8548 28.5045Z" fill="#AF7250" stroke="#AF7250" stroke-width="0.25" stroke-miterlimit="10"/>
<path d="M30.4941 30.0152C31.4241 29.9152 32.4641 30.3252 31.0841 30.7452C30.7641 30.8452 29.1541 31.2452 29.3741 30.5452C29.4941 30.1652 30.1441 30.0552 30.4941 30.0252V30.0152Z" fill="#AF7250" stroke="#AF7250" stroke-width="0.25" stroke-miterlimit="10"/>
<path d="M32.8442 30.3148C32.4342 29.8548 33.9342 29.5248 34.0542 30.1648C33.9142 30.5948 33.1042 30.6048 32.8442 30.3148Z" fill="#AF7250" stroke="#AF7250" stroke-width="0.25" stroke-miterlimit="10"/>
<path d="M36.6945 72.4945C56.4663 72.4945 72.4945 56.4663 72.4945 36.6945C72.4945 16.9227 56.4663 0.894531 36.6945 0.894531C16.9227 0.894531 0.894531 16.9227 0.894531 36.6945C0.894531 56.4663 16.9227 72.4945 36.6945 72.4945Z" stroke="#AF7250" stroke-width="1.79" stroke-miterlimit="10" stroke-linecap="round"/>
<path d="M10.9434 62.0436L22.2134 52.1836" stroke="#AF7250" stroke-width="1.79" stroke-miterlimit="10" stroke-linecap="round"/>
<path d="M51.4844 21.8952L62.7544 12.0352" stroke="#AF7250" stroke-width="1.79" stroke-miterlimit="10" stroke-linecap="round"/>
</svg>
