<svg width="170" height="168" viewBox="0 0 170 168" fill="none" xmlns="http://www.w3.org/2000/svg">
<ellipse cx="85" cy="84" rx="75" ry="74" fill="#FDEBEB"/>
<path d="M85 2C130.862 2 168 38.7349 168 84C168 129.265 130.862 166 85 166C39.138 166 2 129.265 2 84C2 38.7349 39.138 2 85 2Z" stroke="#FDEBEB" stroke-width="4"/>
<g clip-path="url(#clip0_3_1049)">
<path d="M83.3787 41.1214C86.2593 40.265 88.5304 44.0064 90.2222 46.0049C98.9862 56.4028 114.274 78.9116 116.514 92.0142C121.422 120.804 87.8445 138.008 64.8447 121.66C40.3513 104.245 59.4492 73.7577 72.0845 55.5463C73.502 53.5178 82.0679 41.5121 83.3787 41.1214ZM84.2627 44.352C74.0812 58.4163 54.7395 81.451 55.6692 99.4821C57.4068 133.05 110.844 134.267 114.182 99.8727C115.523 86.094 101.227 65.4634 93.0419 54.5997C91.9445 53.1422 85.2839 44.0966 84.2627 44.337V44.352Z" fill="#BA131C"/>
<path d="M69.1395 94.0416C69.5053 93.7862 70.8771 94.0716 71.3039 94.4773L79.4429 102.065L95.523 81.9457C96.4984 81.3146 97.3825 82.096 97.8854 82.9825C98.0378 83.8841 88.2679 95.9349 86.8809 97.5727C85.7073 98.9551 80.8452 104.89 79.7021 105.206C79.3058 105.311 79.1076 105.311 78.7113 105.206C77.7511 104.95 69.1091 96.4157 68.8804 95.5141C68.8042 95.2286 69.0786 94.1017 69.1548 94.0566L69.1395 94.0416Z" fill="#BA131C"/>
</g>
<defs>
<clipPath id="clip0_3_1049">
<rect width="64" height="87" fill="white" transform="translate(53 41)"/>
</clipPath>
</defs>
</svg>
