<svg width="168" height="168" viewBox="0 0 168 168" fill="none" xmlns="http://www.w3.org/2000/svg">
<circle cx="84" cy="84" r="74" fill="#FDEBEB"/>
<circle cx="84" cy="84" r="82" stroke="#FDEBEB" stroke-width="4"/>
<g clip-path="url(#clip0_3_1039)">
<path d="M77.8735 57.1403C81.2335 60.2365 82.8876 63.3683 84.9036 67.4255C84.9725 67.5678 84.8346 67.6924 85.1793 67.6212C85.8168 65.8062 86.8334 63.9022 87.8672 62.2829C92.7262 54.5601 101.324 49.4887 110.387 51.6596C127.756 55.8235 129.444 75.6821 121.243 89.4194C113.713 102.036 98.3089 116.698 86.9885 125.916C85.6617 127.001 85.4205 127.517 83.8525 126.396C82.1984 125.222 80.1824 123.353 78.5972 121.965C68.2244 113.015 57.3864 102.285 49.6499 90.7896C43.9294 82.2838 41.3965 68.76 47.634 59.8628C55.3705 48.8481 68.2417 48.2965 77.8735 57.1403ZM85.3688 124.439C89.8315 120.791 94.0357 116.769 98.2055 112.783C106.924 104.438 121.225 90.3981 123.431 78.0487C125.137 68.5287 122.483 58.6172 113.162 54.738C102.599 50.3428 93.7084 56.3217 88.3841 65.5748C87.8155 66.5713 86.0752 70.5039 85.3171 70.8776C84.6451 71.1979 84.1971 70.4149 83.8697 69.8811C82.9738 68.422 82.319 66.5891 81.4058 65.0766C75.4268 55.2541 64.3131 48.9904 53.9059 56.3573C50.5804 58.7062 47.2032 63.4395 46.4968 67.5678C44.3946 79.9527 50.0635 88.6186 57.3692 97.5158C63.486 104.972 70.4299 111.502 77.3911 118.051L84.9208 124.563C85.3516 124.795 85.2654 124.51 85.386 124.421L85.3688 124.439Z" fill="#BA131C"/>
</g>
<defs>
<clipPath id="clip0_3_1039">
<rect width="82" height="76" fill="white" transform="translate(44 51)"/>
</clipPath>
</defs>
</svg>
