<svg width="170" height="168" viewBox="0 0 170 168" fill="none" xmlns="http://www.w3.org/2000/svg">
<path d="M85 2C130.862 2 168 38.7349 168 84C168 129.265 130.862 166 85 166C39.138 166 2 129.265 2 84C2 38.7349 39.138 2 85 2Z" stroke="#FDEBEB" stroke-width="4"/>
<ellipse cx="85" cy="84" rx="75" ry="74" fill="#FDEBEB"/>
<g clip-path="url(#clip0_3_1044)">
<path d="M85.1529 73.5728C85.4477 73.2672 83.7678 67.8887 83.2668 67.2011C81.027 67.0483 78.8166 66.8802 76.621 66.3913C68.6785 64.6035 63.3 59.1792 61.1339 51.0808C60.235 47.704 59.6898 42.5241 60.1908 39.0709C60.2939 38.3986 60.6771 38.0166 61.3402 38.0013C62.6664 37.9707 65.142 38.4902 66.5124 38.7958C76.3263 41.0267 84.2541 47.2762 84.9024 58.3693C85.0351 60.6155 84.7256 62.6477 84.6225 64.8174C84.5488 66.4371 85.6392 68.3471 86.1108 69.9973C86.4055 71.0516 86.5528 72.3351 86.8475 73.2978C86.8918 73.4658 86.9949 73.6034 87.1275 73.7103C87.3043 73.5881 87.4517 73.5422 87.5696 73.3436C87.6727 73.1602 88.9105 69.5084 88.94 69.2944C89.0284 68.5457 88.6011 67.2011 88.5421 66.3607C87.7317 54.5952 94.5395 47.5818 105.12 45.1981C106.254 44.9383 109.039 44.3272 110.071 44.4647C110.867 44.5716 110.896 45.6259 110.955 46.3441C111.25 50.3016 110.425 55.8023 108.863 59.4236C105.694 66.7427 97.9287 69.2639 90.7083 69.7223C90.2957 69.9209 89.2642 72.9158 89.3526 73.5728H94.8195C95.1142 73.5728 96.0573 74.0312 96.2931 74.2909C98.1056 76.2162 96.2783 78.6915 94.068 78.8443L94.0385 97.501L107.153 120.299C109.098 124.806 106.623 129.329 101.966 130.001H72.8045C67.1313 129.115 65.2304 124.485 67.8533 119.275C71.4193 112.185 76.3263 105.263 80.1428 98.2803L80.3786 97.6844L80.4375 79.0124C79.8039 78.5235 78.9787 78.5693 78.3451 78.0803C76.8273 76.9191 77.3136 74.3673 79.0819 73.802C79.185 73.7714 80.0397 73.6034 80.0986 73.6034H85.1677L85.1529 73.5728ZM83.2668 63.0755C83.3699 59.5612 83.2078 56.001 82.0143 52.6852C79.0377 44.373 69.769 40.4308 61.797 39.8349C61.296 47.7346 63.0937 56.5205 69.5921 61.3642C73.3939 64.2062 77.8293 65.1994 82.4563 65.4439C82.6037 65.3064 81.0417 62.7547 80.8354 62.4338C80.2902 61.5323 78.684 58.9194 77.9914 58.3846C77.122 57.7123 75.1327 57.0705 74.057 56.7344C72.3772 56.1996 70.0342 55.9704 68.5754 55.4203C67.7796 55.1147 67.5586 54.1063 68.2807 53.7701C68.7375 53.5562 71.6404 54.2896 72.333 54.473C73.556 54.7938 74.7938 55.1911 75.9727 55.6648C76.0316 55.4203 75.8842 55.3898 75.7664 55.237C73.5413 52.3032 70.3879 49.7973 67.5881 47.4748C67.2492 47.1234 67.146 46.2066 67.6912 46.0232C68.428 45.794 68.8848 46.283 69.4153 46.6955C75.0885 51.2184 79.3913 56.8719 83.2521 63.0755H83.2668ZM91.504 67.9651C97.3835 67.5373 104.53 65.0466 107.183 59.1028C108.524 56.0926 109.231 51.8907 109.319 48.5902C109.334 47.8874 109.393 46.9858 109.187 46.3288C108.877 46.0996 104.884 47.0164 104.206 47.1998C95.5563 49.507 89.0874 56.0315 90.1336 65.9481C90.1631 66.1621 90.1336 66.2996 90.3399 66.4218C93.0512 62.2046 95.8952 58.1096 99.5202 54.6563C99.9917 54.2132 102.57 51.8601 102.939 51.7532C104.25 51.3864 104.398 52.5783 103.514 53.4645C102.364 54.6258 100.817 55.6648 99.6675 56.8872L96.3668 60.6002L101.966 59.1333C102.939 59.332 103.027 60.4016 102.114 60.8141C100.006 61.7615 96.5141 61.9907 94.569 63.3506C93.3754 64.1757 92.2703 66.6663 91.504 67.9498V67.9651ZM85.6687 75.4217C85.315 75.1161 84.9466 75.3911 84.5635 75.3911C83.7236 75.3911 79.7302 75.2383 79.3176 75.5133C79.0377 75.6967 79.0377 76.3232 79.2145 76.5829C79.8039 77.4233 81.7932 76.5829 82.0437 78.6915V97.8372L81.6753 98.9985L74.6317 110.947C78.1241 110.107 81.808 110.137 85.1972 111.406C86.376 111.849 87.4222 112.598 88.5863 113.071C92.6976 114.813 97.0299 115.058 100.964 112.689L92.4913 98.2345C92.1229 92.9935 92.4471 87.7067 92.4618 82.4504C92.4618 81.1516 92.285 79.7306 92.4618 78.4012C92.6976 76.6899 94.6132 77.4692 95.2911 76.4301C95.91 75.4828 94.2743 75.2689 93.7291 75.223C92.6976 75.1466 90.2367 75.0855 89.2789 75.223C88.1738 75.4064 88.0706 78.2179 87.9822 79.2111C87.2307 88.8985 88.2622 99.2582 87.8496 109.037C87.7464 109.954 86.5528 109.985 86.2876 109.114L86.2286 79.6236L85.654 75.3911L85.6687 75.4217ZM101.878 114.324C100.684 114.676 99.5202 115.348 98.2824 115.669C94.9816 116.524 91.4303 116.112 88.3064 114.752C83.9741 112.873 82.1027 111.589 77.0041 112.231C76.0169 112.353 73.777 112.766 73.1434 113.545C71.994 115.883 70.1226 118.144 69.0322 120.467C67.2786 124.18 68.8701 127.648 72.8192 128.305H101.583C103.13 128.122 104.751 127.266 105.532 125.83C107.743 121.796 103.425 117.747 101.893 114.324H101.878Z" fill="#BA131C"/>
</g>
<defs>
<clipPath id="clip0_3_1044">
<rect width="51" height="92" fill="white" transform="translate(60 38)"/>
</clipPath>
</defs>
</svg>
