<svg width="170" height="168" viewBox="0 0 170 168" fill="none" xmlns="http://www.w3.org/2000/svg">
<ellipse cx="85" cy="84" rx="75" ry="74" fill="#FDEBEB"/>
<path d="M85 2C130.862 2 168 38.7349 168 84C168 129.265 130.862 166 85 166C39.138 166 2 129.265 2 84C2 38.7349 39.138 2 85 2Z" stroke="#FDEBEB" stroke-width="4"/>
<g clip-path="url(#clip0_3_1031)">
<path d="M76.5406 82.0549C77.6329 81.8279 78.71 81.5102 79.8326 81.3741C82.0019 81.1017 84.8388 81.2379 87.0536 81.3589C87.5997 81.3892 89.4505 81.949 89.7084 81.5405C91.1041 72.5538 93.061 62.8863 98.0065 55.1251C101.465 49.724 107.048 45.1399 113.89 45.7753C120.049 46.3502 127.846 57.0314 129.834 62.4627C131.305 66.4568 132.2 71.7217 127.346 73.6431C124.008 74.9593 119.685 72.7959 116.757 71.1165C116.12 70.7534 112.828 68.2269 112.403 68.5143C109.248 74.8837 106.032 81.253 101.45 86.7449L101.526 87.0021C108.049 91.5711 111.174 99.5441 110.628 107.426C112.009 107.366 113.404 107.502 114.785 107.426C115.862 107.381 118.82 106.503 119.381 107.774C119.745 108.591 118.714 108.97 118.092 109.121C115.513 109.786 112.57 109.393 109.93 109.711C110.052 111.345 108.853 113.312 108.686 114.734C108.641 115.127 108.732 114.915 108.929 115.006C111.432 116.005 114.542 116.247 117.151 117.018C117.94 117.669 117.606 118.561 116.696 118.849C114.861 119.439 109.87 116.988 107.746 116.912C104.97 121.527 101.116 125.067 96.2013 127.291C83.2914 133.116 67.5902 129.485 59.9899 117.291L52.0256 119.696C50.9636 119.802 50.4782 118.123 51.3884 117.638L58.8673 115.505L57.3503 110.619C56.3036 110.543 55.2265 110.649 54.1797 110.588C52.6172 110.482 50.372 110.437 48.9005 110.21C47.6565 110.013 46.9132 108.954 48.3847 108.319C49.8562 107.684 51.5553 108.364 53.133 108.47C54.5135 108.561 55.9091 108.41 57.2745 108.47C55.5299 100.951 59.2769 94.4002 64.1314 89.0143C59.3983 83.5527 55.0444 77.6221 51.6008 71.2527C47.702 64.0361 43.5151 52.1295 45.5175 43.975C46.8373 38.6041 51.3277 36.5617 56.3642 39.0429C62.5234 42.0687 67.3475 50.8284 70.0478 56.9255C73.5976 64.9136 75.9187 73.3103 76.5558 82.0549H76.5406ZM59.2314 108.47H63.206C63.206 108.47 63.919 108.849 63.9949 108.924C64.6472 109.514 64.2224 110.77 63.737 110.77H59.5803L61.0063 114.628C61.4614 114.961 64.3286 112.616 65.2388 114.023C66.058 115.278 62.8116 116.156 62.0531 116.489C71.6407 131.028 96.2316 131.754 105.47 116.474C105.592 115.687 102.785 116.156 102.512 114.507C102.148 112.253 106.35 114.34 106.699 114.098L107.958 109.529H103.984C103.756 109.529 103.453 108.909 103.559 108.591C103.604 108.47 104.788 107.593 104.863 107.593H108.216L108.474 107.154C109.263 100.649 106.138 93.4622 101.238 89.1807C100.039 88.1368 98.3099 87.7434 99.1443 85.6859C101.192 83.4014 103.058 80.784 104.666 78.1667C106.578 75.0501 108.125 71.2073 110.097 68.2723C110.37 67.8638 110.567 67.3191 111.114 67.2586V66.9107C110.962 66.8955 110.795 66.835 110.674 66.7291C108.398 64.6716 105.85 62.266 104.954 59.2705C105.334 58.5745 105.986 58.5897 106.608 58.9679C107.442 59.4823 109.521 62.614 110.567 63.6428C113.359 66.366 121.035 72.1302 124.964 71.8276C126.709 71.6915 128.18 70.8291 128.499 69.0136C129.652 62.6896 121.384 51.6454 115.983 48.7255C110.583 45.8056 103.726 51.0402 100.631 55.5033C96.626 61.2675 94.0167 70.0121 92.7728 76.8959C92.6059 77.849 92.0143 83.4921 91.8019 83.7645C91.7109 83.8855 91.0585 84.1276 90.8917 84.1427C89.3898 84.1881 87.1901 83.5527 85.5821 83.4619C83.3521 83.3409 80.409 83.5829 78.2245 84.0519C77.6784 84.173 75.5697 84.884 75.3877 84.8538C73.992 84.5814 74.341 82.2213 74.1893 81.0866C72.8088 69.9062 66.6345 47.6211 56.3642 41.4484C52.7082 39.2244 48.9005 40.1019 47.8689 44.5045C44.759 57.7727 56.3794 77.3346 65.1478 86.8054C65.8456 87.5619 66.5586 87.5316 66.6497 88.8327C66.7407 90.1338 65.5877 90.6179 64.7837 91.556C60.6422 96.367 58.2454 101.98 59.2162 108.47H59.2314Z" fill="#BA131C"/>
<path d="M80.1326 108.879C81.5434 107.503 83.1515 108.789 84.3651 109.681C85.6697 108.668 87.1109 107.82 88.4611 109.348C90.1146 111.239 87.5509 114.326 86.0793 115.612C84.4258 117.034 84.2741 117.14 82.4537 115.687C80.6332 114.235 77.9329 111.013 80.1326 108.879Z" fill="#BA131C"/>
<path d="M93.9107 104.175C92.4392 102.768 93.8196 99.6055 95.7159 99.3181C98.0218 98.955 99.2809 101.209 98.9623 103.252C98.6893 104.961 95.1243 105.324 93.9107 104.175Z" fill="#BA131C"/>
<path d="M73.8384 104.536C72.549 105.837 70.5162 104.99 69.5604 103.719C67.558 101.026 71.8056 98.0762 74.157 100.542C75.1279 101.556 74.7487 103.629 73.8233 104.536H73.8384Z" fill="#BA131C"/>
</g>
<defs>
<clipPath id="clip0_3_1031">
<rect width="86" height="92" fill="white" transform="translate(45 38)"/>
</clipPath>
</defs>
</svg>
