<svg width="21" height="22" viewBox="0 0 21 22" fill="none" xmlns="http://www.w3.org/2000/svg">
<path d="M4.60833 17.689C8.63333 17.5578 8.88125 17.3171 9.14375 17.0474L19.3521 6.83902C19.5638 6.63496 19.7322 6.39031 19.8472 6.1197C19.9622 5.84909 20.0215 5.55806 20.0215 5.26402C20.0215 4.96998 19.9622 4.67895 19.8472 4.40834C19.7322 4.13772 19.5638 3.89308 19.3521 3.68902L16.4354 0.655686C16.0144 0.235797 15.4441 0 14.8495 0C14.2549 0 13.6845 0.235797 13.2635 0.655686L2.55938 11.3671L2.39167 15.4578C2.39526 16.0409 2.62552 16.5998 3.03377 17.0162C3.44201 17.4326 3.99622 17.6739 4.57917 17.689H4.60833ZM4.60833 15.7786C4.53307 15.7716 4.46223 15.7399 4.40685 15.6885C4.35146 15.6371 4.31463 15.5688 4.30208 15.4942L4.41875 12.7671L7.33542 15.5963C6.5625 15.6838 5.52708 15.7494 4.60833 15.7786ZM5.49062 11.1338L12.4177 4.20673L15.874 7.65569L8.93958 14.5901L5.49062 11.1338ZM15.101 2.01194L18.0688 4.99423C18.1284 5.05433 18.1619 5.13558 18.1619 5.22027C18.1619 5.30496 18.1284 5.38621 18.0688 5.44631L17.2229 6.30673L13.774 2.85777L14.6125 2.01194C14.6771 1.95249 14.7617 1.9195 14.8495 1.9195C14.9373 1.9195 15.0219 1.95249 15.0865 2.01194H15.101ZM18.8052 19.738H0.955209C0.701872 19.738 0.45891 19.8386 0.279774 20.0178C0.100638 20.1969 0 20.4398 0 20.6932C0 20.9465 0.100638 21.1895 0.279774 21.3686C0.45891 21.5478 0.701872 21.6484 0.955209 21.6484H18.7906C19.044 21.6484 19.2869 21.5478 19.4661 21.3686C19.6452 21.1895 19.7458 20.9465 19.7458 20.6932C19.7458 20.4398 19.6452 20.1969 19.4661 20.0178C19.2869 19.8386 19.044 19.738 18.7906 19.738H18.8052Z" fill="#BA131C"/>
</svg>
