<svg width="24" height="24" viewBox="0 0 24 24" fill="none" xmlns="http://www.w3.org/2000/svg">
<path d="M21.9136 8.89649C21.7872 8.14776 21.3966 7.46912 20.8128 6.9836C20.2289 6.49808 19.4905 6.23782 18.7312 6.25H17.4989V5.625C17.4989 4.13316 16.9063 2.70242 15.8514 1.64752C14.7965 0.592632 13.3658 0 11.8739 0C10.3821 0 8.95135 0.592632 7.89646 1.64752C6.84157 2.70242 6.24893 4.13316 6.24893 5.625V6.25H5.01663C4.2574 6.23782 3.51892 6.49808 2.93509 6.9836C2.35126 7.46912 1.96072 8.14776 1.83426 8.89649L0.0373846 20.1465C-0.0317189 20.5845 -0.00479756 21.0324 0.116285 21.459C0.237367 21.8856 0.449717 22.2808 0.738634 22.6172C1.04542 22.9745 1.4262 23.2609 1.85461 23.4565C2.28301 23.6521 2.74882 23.7522 3.21976 23.75H20.5281C20.999 23.7522 21.4648 23.6521 21.8932 23.4565C22.3216 23.2609 22.7024 22.9745 23.0092 22.6172C23.2981 22.2808 23.5105 21.8856 23.6315 21.459C23.7526 21.0324 23.7795 20.5845 23.7104 20.1465L21.9136 8.89649ZM7.49893 5.625C7.49893 4.46468 7.95987 3.35188 8.78034 2.53141C9.60081 1.71094 10.7136 1.25 11.8739 1.25C13.0343 1.25 14.1471 1.71094 14.9675 2.53141C15.788 3.35188 16.2489 4.46468 16.2489 5.625V6.25H7.49893V5.625ZM22.0583 21.8054C21.8689 22.0253 21.6339 22.2013 21.3697 22.3212C21.1054 22.4412 20.8183 22.5022 20.5281 22.5H3.21976C2.92959 22.5022 2.64243 22.4412 2.3782 22.3212C2.11397 22.2013 1.879 22.0253 1.68961 21.8054C1.51675 21.6076 1.38966 21.3741 1.3174 21.1215C1.24513 20.8689 1.22947 20.6035 1.27152 20.3442L3.0684 9.09424C3.14898 8.63951 3.3898 8.22869 3.7472 7.93623C4.10461 7.64377 4.55495 7.48901 5.01663 7.5H6.24893V10.625C6.24893 10.7908 6.31478 10.9497 6.43199 11.0669C6.5492 11.1842 6.70817 11.25 6.87393 11.25C7.03969 11.25 7.19867 11.1842 7.31588 11.0669C7.43309 10.9497 7.49893 10.7908 7.49893 10.625V7.5H16.2489V10.625C16.2489 10.7908 16.3148 10.9497 16.432 11.0669C16.5492 11.1842 16.7082 11.25 16.8739 11.25C17.0397 11.25 17.1987 11.1842 17.3159 11.0669C17.4331 10.9497 17.4989 10.7908 17.4989 10.625V7.5H18.7312C19.1929 7.48901 19.6433 7.64377 20.0007 7.93623C20.3581 8.22869 20.5989 8.63951 20.6795 9.09424L22.4763 20.3442C22.5184 20.6035 22.5027 20.8689 22.4305 21.1215C22.3582 21.3741 22.2311 21.6076 22.0583 21.8054Z" fill="black"/>
</svg>
