<svg width="23" height="23" viewBox="0 0 23 23" fill="none" xmlns="http://www.w3.org/2000/svg">
<path d="M9.54891 0.000242394C4.2899 0.000268736 -0.000341278 4.28835 -7.87894e-05 9.5477C-9.58588e-05 14.8068 4.29017 19.0927 9.54951 19.0923C11.7796 19.0923 13.8303 18.3158 15.4579 17.0269L20.6103 22.1776C21.0501 22.6165 21.7622 22.6174 22.2011 22.1776C22.6393 21.7384 22.6393 21.0259 22.2011 20.5868L17.0466 15.4339C18.3251 13.8097 19.0944 11.7675 19.0944 9.54739C19.0944 4.28832 14.8082 1.42937e-05 9.54891 0.000242394ZM9.54892 2.25026C13.592 2.25025 16.8438 5.50435 16.8441 9.54718C16.8441 13.5902 13.5922 16.8421 9.54915 16.8421C5.50612 16.8421 2.24985 13.5903 2.24954 9.54752C2.24957 5.50447 5.50617 2.25055 9.54892 2.25026Z" fill="white"/>
</svg>
