<svg width="24" height="21" viewBox="0 0 24 21" fill="none" xmlns="http://www.w3.org/2000/svg">
<path d="M1.45833 2.91667H21.875C22.75 2.91667 23.3333 2.33333 23.3333 1.45833C23.3333 0.583333 22.75 0 21.875 0H1.45833C0.583333 0 0 0.583333 0 1.45833C0 2.33333 0.583333 2.91667 1.45833 2.91667ZM1.45833 11.6667H21.875C22.75 11.6667 23.3333 11.0833 23.3333 10.2083C23.3333 9.33333 22.75 8.75 21.875 8.75H1.45833C0.583333 8.75 0 9.33333 0 10.2083C0 11.0833 0.583333 11.6667 1.45833 11.6667ZM1.45833 20.4167H21.875C22.75 20.4167 23.3333 19.8333 23.3333 18.9583C23.3333 18.0833 22.75 17.5 21.875 17.5H1.45833C0.583333 17.5 0 18.0833 0 18.9583C0 19.8333 0.583333 20.4167 1.45833 20.4167Z" fill="#451F0F"/>
</svg>
